<?xml version="1.0" encoding="UTF-8"?><svg id="a" xmlns="http://www.w3.org/2000/svg" width="24" height="24" viewBox="0 0 24 24"><g><path d="m20,12c-.55,0-1-.45-1-1v-6h-6c-.55,0-1-.45-1-1s.45-1,1-1h6c1.1,0,2,.9,2,2v6c0,.55-.45,1-1,1Z"/><path d="m12,13c-.26,0-.51-.1-.71-.29-.39-.39-.39-1.02,0-1.41l3.95-3.95c.39-.39,1.02-.39,1.41,0,.39.39.39,1.02,0,1.41l-3.95,3.95c-.2.2-.45.29-.71.29Z"/><path d="m16,20H6c-1.1,0-2-.9-2-2v-10c0-1.1.9-2,2-2h2c.55,0,1,.45,1,1s-.45,1-1,1h-2v10h10v-2c0-.55.45-1,1-1s1,.45,1,1v2c0,1.1-.9,2-2,2Z"/></g><rect width="24" height="24" fill="none"/></svg>