<?xml version="1.0" encoding="UTF-8"?><svg id="b" xmlns="http://www.w3.org/2000/svg" width="24" height="24" viewBox="0 0 24 24"><path d="m12,7.51c-2.48,0-4.49,2-4.49,4.49s2,4.49,4.49,4.49,4.49-2,4.49-4.49-2-4.49-4.49-4.49Zm0,7.41c-1.61,0-2.92-1.31-2.92-2.92s1.31-2.92,2.92-2.92,2.92,1.31,2.92,2.92-1.31,2.92-2.92,2.92h0Zm5.72-7.59c0,.58-.47,1.05-1.05,1.05s-1.05-.47-1.05-1.05.47-1.05,1.05-1.05,1.05.47,1.05,1.05Zm2.97,1.06c-.07-1.4-.39-2.64-1.41-3.67-1.02-1.02-2.27-1.34-3.67-1.41-1.45-.08-5.78-.08-7.22,0-1.4.07-2.64.39-3.67,1.41s-1.34,2.27-1.41,3.67c-.08,1.45-.08,5.78,0,7.22.07,1.4.39,2.64,1.41,3.67,1.03,1.02,2.27,1.34,3.67,1.41,1.45.08,5.78.08,7.22,0,1.4-.07,2.64-.39,3.67-1.41,1.02-1.02,1.34-2.27,1.41-3.67.08-1.45.08-5.77,0-7.22h0Zm-1.87,8.77c-.3.77-.89,1.36-1.66,1.66-1.15.46-3.89.35-5.16.35s-4.01.1-5.16-.35c-.77-.3-1.36-.89-1.66-1.66-.46-1.15-.35-3.89-.35-5.16s-.1-4.01.35-5.16c.3-.77.89-1.36,1.66-1.66,1.15-.46,3.89-.35,5.16-.35s4.01-.1,5.16.35c.77.3,1.36.89,1.66,1.66.46,1.15.35,3.89.35,5.16s.11,4.01-.35,5.16Z"/></svg>