<?xml version="1.0" encoding="UTF-8"?><svg id="b" xmlns="http://www.w3.org/2000/svg" width="24" height="24" viewBox="0 0 24 24"><path d="m19.94,7.93c.01.18.01.36.01.53,0,5.42-4.12,11.66-11.66,11.66-2.32,0-4.48-.67-6.29-1.84.33.04.65.05.99.05,1.92,0,3.68-.65,5.09-1.75-1.8-.04-3.31-1.22-3.83-2.84.25.04.51.06.77.06.37,0,.74-.05,1.08-.14-1.88-.38-3.29-2.03-3.29-4.02v-.05c.55.3,1.18.49,1.85.52-1.1-.74-1.83-1.99-1.83-3.41,0-.76.2-1.46.56-2.07,2.02,2.49,5.05,4.11,8.45,4.29-.06-.3-.1-.62-.1-.94,0-2.26,1.83-4.1,4.1-4.1,1.18,0,2.25.49,2.99,1.29.93-.18,1.81-.52,2.6-.99-.3.95-.95,1.75-1.8,2.26.82-.09,1.62-.32,2.36-.63-.56.81-1.26,1.54-2.06,2.12h0Z"/></svg>