<svg xmlns="http://www.w3.org/2000/svg" width="1411" height="451" viewBox="0 0 1411 451"><path d="M753.59,176a109.57,109.57,0,0,0,14.94,10c-10.76.2,27.25,18.66,29.39,19.64-.5,2.06,5.19,4,6.7,5.14A163.72,163.72,0,0,0,829,221.23l-.11,0,.52.21c-3.38,4.62,28.77,12.47,32.71,13.36-11,2.63,29.89,8.35,31.6,8.55-10.28,4.35,24.33,4.13,26.21,4.39-2.54,4.17,26,2.32,29.15,3-9.26,5.21,19.32,2.7,21.53,3.62-3.32,4,18-.76,20-.77l-.13,0a11.85,11.85,0,0,1,3.2-.22h-.13a2.48,2.48,0,0,1,.59.17,1.22,1.22,0,0,1-.07.17l0-.12c-3,4.47,2.49,2.62,4.91,2.1,4.86-.84,9.72-3,14.71-2.47.34,3.75,14.87-3.36,17.85-3.2,1.87-.41.09,1.87,1.37,2.37,4.57-1.2,8.53-4.77,13.16-6.18-2.1,5.36,5.93-1.48,7.45-2.15,6.43-4.2,13.08-8.1,19.13-12.86l0,0,.1-.08h0c.44-.54,2.53-1.34,1.38-2-1,.17-1.69,1.23-2.53,1.75l.06-.05c-8,5.93-16.48,11.1-24.88,16.39,2.56-5.78-11.21,3.61-12.92,4.08l.11-.05a4.49,4.49,0,0,1-.61.23c1.72-6.3-14.31,2.4-17.48,1.85h0a5.16,5.16,0,0,1-1.24.11c-1-3.93-16.79,2.45-20.49,2.22a2.06,2.06,0,0,1,.12-.35l0,.12c3.36-5.33-6.19-2-8.62-2a108.65,108.65,0,0,1-14.27,1.55c2.42-2.36-4.41-1.6-5.54-1.79-5.85-.05-11.77.13-17.58-.68l.29-.23-.1.08c7.42-4-6-2.36-8.31-2.67-6.45-.23-13.09.2-19.39-1.32,3.62-2.64-8.1-1.41-9.3-1.75-6.17-.28-12.41-.46-18.46-1.78,6.76-3.16-6.08-2.95-8-3.65a157.65,157.65,0,0,1-23.44-5.18l.11,0-.21-.08c9.18-1.46-7.89-3.79-9.67-4.77-7.53-2.11-15.38-4.33-21.87-8.78,2.9-1.53-1.7-2.24-3-2.91a134.33,134.33,0,0,1-27.56-12.95l.1.08-.22-.17c2.23.15-.18-1.56-1.05-1.76-10.38-5.44-21.6-9.93-30.56-17.64l.08.09a1.64,1.64,0,0,1-.19-.25c8.75,1.22-1.1-2.92-3.28-4.48-1.53-.38-10.84-8.79-10.64-6.37m138.91,68.6h0m28.18,3.69h0M994,255.52h0m20.63-2.19h0m18.69-2.16v0m0,.35Zm39.36-20.45-.06,0,.06,0m-180.38,12-.13,0,.13,0" fill="#161616"/><path d="M790.81,182.79c.19.85,1.26,1.17,1.89,1.65,2.23,1.39,4.49,2.87,6.71,4.27,5.92,3.88,12.51,6.55,18.83,9.65,6.15,3,12.08,6.4,18.27,9.29,7.15,3.17,14.63,6,21.91,8.93,17.92,7.56,37,12.18,55.93,16.49,20.42,4.1,40.76,5.14,61.61,6.53,14,1.07,28.08.87,42.11.58a347.53,347.53,0,0,0,53.78-5c18-3.2,35.85-7.1,53.61-11.21,6.52-1.71,13.07-3.55,19.48-5.64,4.59-1.52,9.11-3.34,13.72-4.83,7-2.35,14.4-3.82,21.55-5.78,8.15-2.14,16.13-5,24.07-7.76a202.9,202.9,0,0,1,22.25-6.75c4-1.32,11.79-2.56,10.5-3.89a2.27,2.27,0,0,0,.31-.31c.77.33,1-.79.26-1-.23-.52-.87-1.34-1.33-.63-5.71-2.49-11.9-3.18-17.91-4.64-17.85-3.53-36-3.79-54.16-4.46-16-.51-31.9-.36-47.85-1.21-13.47-.38-27-.55-40.39-2.07-42.46-4.26-85.08-7.8-127.79-6.81-9.21.06-18.36.53-27.5,1-8.71.36-17.5.5-26.13,1.8-22.7,2.91-45.81,2.44-68.24,7.55-7.66,1.53-15.21,3.74-23.09,3.75-3.69,0-7.15.07-10.92-.25-.62,0-1.48,0-1.49.79M842.08,209h0l1,.41-1-.41h0Z" fill="#d9ffde"/><path d="M468.78,279.05c-3.93-7.61-9.16-14.47-14.48-21.15h0a492.69,492.69,0,0,0-37.74-44.51c-4.86-4.57-10.56-7.91-16.28-11.26-4.83-3.3-9.55-6.77-14.46-9.94-21.55-14.08-42.9-28.49-65.68-40.54-10.68-6.31-21.3-13-33.05-17.14l.12.05-1.69-.71h0c-8.14-3.31-16.4-7.36-24.5-10.64-16.88-6.35-34.46-12.42-51.85-17.46h0c-15-4.67-30.78-5.4-46.4-6.4h0c-26.25-2.92-52.15.17-77.95,5.18C75.85,106,67,107.65,58.15,109.75c-8.47,1.36-1.11,5.39,1.89,8.36A253.87,253.87,0,0,0,85.6,139.17c7.4,4.7,15.09,9,22.16,14.19,8.07,5.42,16.49,10.3,24.57,15.69,3,1.54,19.52,13.65,12.68,3a3.1,3.1,0,0,1,.68,0l-.13,0a11.58,11.58,0,0,1,3.19,1h0c2.85.26,31,17.48,28.41,11.22,1.65-.18,3.17.7,4.68,1.24h0A175.72,175.72,0,0,1,206.06,198a73.25,73.25,0,0,1,13.54,5.73c1,.16,17.43,10.11,14.21,6.33,2.55-.64,31.57,17.11,26.49,9.75a2.58,2.58,0,0,1,.39,0l-.13,0c10.62,3.14,19.87,11.43,30.76,13.12l-.13,0a2.4,2.4,0,0,1,1.1,0l-.13,0a11.49,11.49,0,0,1,2.37.76l-.12,0c1.42.17,27.06,13.95,20.94,7a4.43,4.43,0,0,1,.72.09l-.13,0c2.42-.38,25.18,9.81,22.66,5.31l.25,0h-.13c8.21,2.24,15.66,6.92,24,8.76,3.91-1,5.54-.58,9.45.74,6,1.84,11.71,4.49,17.76,6.14,1.2.28,2.83.49,3.59-.73,3.22-1.67,23.39,9.22,21.72,4a3.49,3.49,0,0,1,.79,0l-.13,0c6.55,1,12.33,6,19.1,5.06l-.13,0c6.06,1.38,11.85,3.84,18,4.92,4.51,1.74,9.67,2.19,13.88,4.5a.48.48,0,0,0,.66-.17h0c1-1.74-16.4-5.66-18.54-6.2-5.79-1-11.25-4.79-17.2-3.8h.13c-2.62.22-18.75-8.75-17.41-3.68a2.4,2.4,0,0,1-.6,0H414c-5.36-.63-16.92-7.4-21.29-5a.86.86,0,0,1,.07-.1,1,1,0,0,1-.55.43l.11-.05a2,2,0,0,1-.59.12h.12c-7.52-.42-22-10-28.54-7l.12,0a2.93,2.93,0,0,1-.66,0l.13,0c-2.76.53-28.31-12.73-25.16-7.47-5.91-1.56-11.65-3.71-17.47-5.56h0c-1.39-.41-8.41-2.81-5.27.81h0c-7.67-2.87-14.93-7.07-22.6-9.71a2.69,2.69,0,0,0-1.59.07,4.24,4.24,0,0,1-1.61-.32c-3.09-1.13-6.16-2.51-9.13-3.94-1.65-.45-24.52-13.74-20.24-7.12h0c-6-2.35-11.65-5.46-17.47-8.21-3.33-1.55-6.77-3.62-10.52-3.72h0a.44.44,0,0,0-.16.06c-6.3-3.16-12.43-6.66-18.86-9.56-2.77-1.32-5.89-1.52-8.4-3.43-2.17-1.27-30.16-17.61-28-10.88-1.79-.65-3.54-1.46-5.32-2.16l.07,0c-3.28-.36-34.34-20.24-25.41-7.34a2.65,2.65,0,0,1-.37-.12h0l-.09,0,.08,0c-21.74-12-42.1-26.49-63.07-39.78h0c-8.12-6.36-16.08-12.88-23.58-20-4.59-3.87-5.05-4,1.17-5.32h0c19.46-4.31,39.18-7.54,59-10.07h0c14.48-2,29-1,43.45,0h0l1.25.08h0c14.72,1,29.61,1.59,43.82,5.9h0a603,603,0,0,1,94.74,36.06c13.41,7.79,27,15.29,40.4,23.14,23.09,14,45.12,29.63,67.88,44.08h0a76.17,76.17,0,0,1,14.11,13.91Q436.58,236.89,448,251l-.08-.1c5.09,7.16,11,13.75,15.63,21.21a58.14,58.14,0,0,1,4.43,7.44.48.48,0,0,0,.83-.48m-10.31-14.33-.06-.09.06.09m-25.13,5.34h0m-40.76-9.31-.09.07.09-.07m-48.91-13,0,0,0,0m-5.79-.94h0m-189-73.68h0M72.53,127.94l0,0,0,0" fill="#161616"/><path d="M426.85,59.29c-1.48-2.62-8.92-3.87-11.86-5.59-1-.36-6.65-3.39-4.71-.23-4.18,1.13-26.54-6.91-26.23-2.82a5,5,0,0,1-2.18,0l.13,0c-1.46.47-36-8.16-26.83-3-.43,0-.86-.08-1.28-.14l.12,0c-9.24-1.51-18.5-2.91-27.85-3.59-1.92.17-6-1.26-7.28,0a3.43,3.43,0,0,1-1,.21l.13,0c-8.61.29-17.24-.11-25.85-.18-2.35,0-13.59-1-6.25,2.44a2.42,2.42,0,0,1-.72.4l.12,0c-11.51,2.65-23.58,1.17-35.24,2.89-3.17.53-6.81.25-9.23,2.49l.12,0c-9.87,2.91-20.39,3-30.38,5.46a6.93,6.93,0,0,0-3.66,2.19,28.83,28.83,0,0,1-7.9,2.38,213.57,213.57,0,0,0-31.34,6.75c-5.1,1.9-14,2-16.8,7l.07-.1a4.9,4.9,0,0,1-.79.72l.1-.08c-3.4,2.43-8,3-11.65,4.76-7.69,3.56-16.45,5.71-24.43,8.13-8.46,2.44-16.58,6-25.12,8.13-6.9,2-14,3.39-20.53,6.63-4.12,2-9.45,3.25-12,7.31-.41.43.24,1.12.68.67.27-.26.27-.67.52-1,2.59-2.48,5.85-3.94,9.13-5.27h0c8.77-4.38,18.48-6.11,27.78-9,13.52-5,27.55-8.4,41-13.37h0l.1,0h0c3.87-1.76,7.9-3.1,11.91-4.49h0a8.49,8.49,0,0,0,5-4.13l0,0a1.49,1.49,0,0,1,.18-.17l-.05,0,0,0h0c3.55-2.18,7.79-2.76,11.74-4,4.41-1.14,8.83-2.18,13.18-3.55h0c8.42-2.5,17.22-2.9,25.7-5,2-.56,4.1-1.19,5.46-2.84,4.94-2.06,10.72-2.22,16-3.26,3.24-.6,16.44-1.68,17.67-4h0a1.19,1.19,0,0,1,.42-.21h0a103,103,0,0,1,16-1.91c1.86-.42,36.4-.1,26.09-4.95h0c10.09,0,20.18.35,30.27.34,1.45-.17,3.41.32,4.52-.8,5.87.34,11.74.91,17.59,1.59,3.49.44,7.25,1,10.95,1.55,1.21.16,11.77,2.56,7.59-.6h0l0,0q7.8,1.34,15.56,2.83c3.39.65,6.82,1.3,10.23,1.79,1.3.14,3.31.57,3.4-1.19,2.53-1,28.11,7,26.18,2.81h0c.53.2,1.07.42,1.6.65l-.06,0c4.25,1.92,8.8,3.32,13,5.36a.17.17,0,0,0-.06-.06l0,0,0,0a1.58,1.58,0,0,1,.15.12l-.12.14h0C417,65.22,409.53,73,400.77,78.8,390,86,378.83,93,367.44,99.15c-4.85,2.56-10.13,4.3-14.79,7.2-9.43,5.48-18.83,11.26-29,15.34q-8.65,3.18-17.46,6a193.85,193.85,0,0,1-20.71,6.17h0c-14.51,3.72-29.12,7.08-44.19,7-18.89,1-37.91.91-56.7-1.56-21.65-2.49-42.61-9.2-64.35-10.92C98.2,125.92,75.59,122,55.63,111.91c-.48-.32-1.05.53-.49.83,4.44,3,9.65,4.23,14.6,6,21.75,8.43,45.15,9.3,67.93,12.86,27.7,5.81,55.6,11.36,84.05,10.81,11.86-.37,23.76-.45,35.57-1.6,9.69-1.25,19.11-3.87,28.59-6.09,13.57-3.29,26.76-8.07,39.86-12.86,9.47-4,18.33-9.43,27.22-14.6,24.49-11.65,48-25.66,68.4-43.62l-.06,0c1.71-1.57,4.5-2.25,5.55-4.41M242.58,51.91a.12.12,0,0,1-.05.05s0,0,.05-.05m-14.53,2.73h0m-88.19,27-.05,0,.05,0m-81.65,29h0" fill="#161616"/><path d="M178.54,246.46c-.31-2.53-1.64-4.79-2.56-7.13l0,0c-1.52-3.9-3.55-7.89-3.42-12.17v.13c.55-2.26,2.84-3,1.72-5.85-2.07-7.15-5.53-13.81-8-20.82,5.64,3-1.51-5.35-2.16-6.9-3.45-5.89-7.63-11.44-10.55-17.61,3.25-.89-10.85-15-12.14-17a58.42,58.42,0,0,0-14.3-12.9c-5.25-4.67-10-10.25-16.74-12.87-6.86-4.9-13.13-10.73-20.8-14.44-9.74-4-20.1-5.5-30.2-8.23-1.13-.41-5.77-1.31-4.14.26a19.33,19.33,0,0,1,3.7.62c22.13,5.35,31.51,5.79,49.49,21.71,7.32,3.21,12.86,8.84,18.67,14.16a53.94,53.94,0,0,1,13.62,12.34c4.27,5,9,9.91,12.5,15.5-3.18.36,12.44,22,13.82,24.66-3.79-1.42-.15,4.39.19,5.83,2.14,5.55,4.88,10.93,6.27,16.72v-.12c.65,1.88-1.43,2.68-1.79,4.3-.59,7,4.31,13.05,5.86,19.65-3-1.85-16.94-21.43-14.95-8.55Q125,197,90.41,153.68C79.14,140.47,64.48,129.77,56,114.39c-.68-.76-.78-2.68-1.92-2.56a.5.5,0,0,0-.17.66c1.17,2.13,2.2,4.35,3.49,6.41,8.51,11.95,19.5,21.75,29.58,32.32,15.58,19.27,31.69,38.12,47.76,57,6.32,8,13.74,15,20.39,22.73,2.68,2.53,4.75,6.37,7.94,8,1.28-1.12-.05-3.33.51-4.8a.85.85,0,0,1,.22.09l-.12-.05c2.74.29,14.71,17,14.87,12.23m-1-.15v0M173.45,224l0,.09a.36.36,0,0,1,0-.09m-10,10.57s0-.06,0-.09l0,.09m-9.86-58.25s0,0,0,0,0,0,0,0m-.41-1.19,0-.09,0,.09m-36.81-37.24,0,0,0,0M96.66,161.64l0,0,0,0m3.6-35,0,0,0,0" fill="#161616"/><path d="M252.68,350c-2.69-16.13-5.08-32.31-9.92-48-2.87-11.09-4.38-22.5-7.61-33.52-2.81-10-4.39-20.18-6.3-30.33-2.81-12.3-6.35-24.43-10-36.5h0a453.61,453.61,0,0,0-16.63-45c-7.66-15.53-18.63-29.2-28.87-43.08h0c-3.72-4.6-7-9.58-10.57-14.26h0c-1.2-1.54-2.39-3.09-3.55-4.62l0,0c-13.34-18.66-27.56-37-42.54-54.44C99.14,20.4,79.09,2.9,58.71-14,47.13-24.46,35.49-34.76,22.85-43.87,13.54-52.46,3.48-60.11-8-65.52c-.22-.33-.84-.35-1,.1s.18.51.4.69c4.77,2.56,9.6,5,14.17,8,9.66,6.83,17.94,15.45,27.84,22l-.09-.08C52.89-17.76,73.07-1.35,92,16.43c17.32,15.72,32.12,33.84,46.54,52.19h0l0,0h0c2.61,3.2,5.06,6.53,7.59,9.78h0c5.43,7.13,10.36,14.63,16,21.64h0l.14.18h0c3.39,4.4,6.46,9.11,9.93,13.45h0c10.3,13.88,21.26,27.6,29,43.11,12.75,30.34,23.52,61.93,29,94.45,2.36,12.37,6.3,24.37,8.48,36.77,2,11.24,5.69,22.05,8.05,33.2,2,9.61,3.3,19.35,5,29,.13.56,1.11.38.92-.25M-8-65.49l-.06,0,.06,0m-.1-.05,0,0,0,0" fill="#161616"/><path d="M637,261.37a108.32,108.32,0,0,0-11.67-13.63c10.42,2.73-21.14-25.38-22.93-26.9,1-1.85-3.9-5.26-5.06-6.77a163.59,163.59,0,0,0-20.56-16.75l.1.08c-.15-.11-.3-.22-.44-.34,4.5-3.53-24.29-19.83-27.85-21.76,11.33.48-26.49-16.16-28.08-16.82,11.08-1.38-22.29-10.59-24-11.35,3.59-3.33-24.39-9.3-27.24-10.78,10.32-2.5-17.86-7.85-19.73-9.34,4.28-3-17.56-4.17-19.42-4.69l.13,0a12,12,0,0,1-3.14-.66l.12,0a2.35,2.35,0,0,1-.52-.32.76.76,0,0,1,.11-.14l-.07.09c4.07-3.49-1.69-3.19-4.16-3.35-4.91-.51-10.16.2-14.83-1.63.7-3.69-15.22-.8-18-1.77-1.92-.11.42-1.83-.68-2.65-4.72-.09-9.5,2.26-14.34,2.37,3.47-4.59-6.12-.19-7.75,0-7.34,2.3-14.8,4.24-21.91,7.18h0l-.11,0h0c-.58.39-2.8.6-1.89,1.59,1,.1,2-.72,2.91-1l-.07,0c9.28-3.54,18.88-6.2,28.4-9-4,4.86,11.76-.42,13.54-.41h-.12a4.74,4.74,0,0,1,.65-.05c-3.36,5.6,14.43,1.59,17.32,3h0a5.15,5.15,0,0,1,1.23.24c-.12,4,16.83,2.2,20.32,3.43a1.61,1.61,0,0,1-.21.3l.07-.09c-4.67,4.21,5.41,3.62,7.77,4.23A107.61,107.61,0,0,1,449,126.21c-3,1.6,3.8,2.74,4.84,3.22,5.62,1.64,11.36,3.08,16.73,5.44l-.34.14.12,0c-8.24,1.86,5.12,3.9,7.27,4.83,6.14,2,12.64,3.37,18.3,6.54-4.21,1.55,7.4,3.56,8.47,4.21,5.86,1.95,11.82,3.82,17.28,6.74-7.36,1.2,5,4.49,6.69,5.68a158,158,0,0,1,21.14,11.36l-.09-.08.18.14c-9.23-1.1,6.56,5.8,8,7.22,6.68,4.07,13.63,8.35,18.67,14.4-3.21.68,1,2.61,2,3.59a135.5,135.5,0,0,1,23,20l-.07-.09.16.22c-2.1-.75-.25,1.55.53,2,8.51,8.07,18.09,15.44,24.61,25.3l0-.12a1.72,1.72,0,0,1,.11.29c-8.08-3.54.27,3.12,1.95,5.21,1.36.78,8,11.41,8.49,9M522,157.57h0M495.9,146.35h0m-68.58-26.91h0m-20.45-3.51h0m-18.57-3,0,0,0,0m.08-.34Zm-43.44,9,.06,0-.06,0m176.83,37.53.12,0-.12,0" fill="#161616"/><path d="M636.7,260.35c-.49-1.1-2.47,0-3.47-.1a44.53,44.53,0,0,1-7.66,0c-2.93.3-19.54-3.3-9,1.64a5.57,5.57,0,0,1-.91-.06h.13c-6-1-12-2.17-17.87-3.68-2.73-.53-13.82-4.67-6.81,1.3-5.67-.82-11.21-2.61-16.73-4.14-1.35,0-10.14-4.51-8.25-1a4,4,0,0,1-.5,0h.12c-5.61-1.12-11.33-2.67-16.83-4.3-1.75-.1-12.77-5.57-11.39-1.62a1.77,1.77,0,0,1-.67.19l.12,0c-12.31-.21-23.61-6.5-36-6.21h.05c-16.89-2.69-33.27-7.89-49-14.44-1.25-.1-11.61-5.06-9.45-2.41,16.44,6.21,32.72,12.77,50,16.3,3,.65,6.06,1.22,9.1,1.59,4.77.3,9.41.3,14,2,2.85.49,23.91,7.29,22.72,2.51a3.66,3.66,0,0,1,.57.05l-.13,0c2.24,0,30.9,10.77,28.2,6,2.13.52,33.73,11.69,22.91,3.18,1.75.38,36,9.81,26,3.27,5.43.26,16.32,2.29,20.81,0m-46.32-.94-.1,0,.1,0m-.38-2.33h0" fill="#161616"/><path d="M56.94,110.42a.47.47,0,0,0-.57.36.46.46,0,1,0,.9.2.48.48,0,0,0-.33-.56" fill="#161616"/><path d="M331.47,254.17c-1.29-5.6-6.7-9-10.1-13.37-10.09-12.22-21.94-22.89-33.56-33.64-11-9.48-24.9-14.88-36.9-23C235.34,174,220,163.35,204,153.85c-8.14-4.62-17.29-6.95-25.81-10.73h0C150.4,131.2,120,127.45,90.78,120.62c-5-1.49-10.22-1.8-15.27-2.88-4.76-1.31-9.84-2.52-14.52-4.07,9.33.28,18.56,1.75,27.86,2.11,15.2.45,30.37-.38,45.56-1,13.18.21,26.41,1,39.55-.25,12.44-2,24.69-5.18,36.87-8.28h0c5.15-1.64,10.21-3.63,15.41-5.11,4.05-1.2,8.2-2,12.26-3.19,7.88-2.4,15.33-6.1,23.17-8.6,4.54-1.56,8.94-3.47,13.41-5.22,1.62-1.14,15.4-3.45,10.35-5.35-9.12-4.74-19.56-3.92-29.5-4.48-6.1-.5-12.14-2.32-18.17-3.53-3.38-.55-7.2-1.42-10.45-2.15-9.61-2.71-15.5.3-24.74.46A143.66,143.66,0,0,1,185.46,68c-19.4-2.3-40-5.2-58.32,3.56C116.74,75.9,107,81.79,96.4,85.63,90.7,87.84,85.4,91,80,93.71c-5.33,1.51-9.19,5.47-13.41,8.81l0,0,0,0,0,0-.06,0h0c-3,2.22-5.38,5.23-8.07,7.82l.12,0c-1,.43-2.19.36-3.24.74a.49.49,0,0,0-.62.29h0c-5.82,5.46-1.28,23.82-.19,31.28,1.7,9,2.88,18,4.12,27v0a520.69,520.69,0,0,0,9.68,66.56c4.46,17.79,10.42,35.17,16,52.64,3.9,10.73,10.45,20.23,15,30.65,5.54,13.89,14,26.23,20.73,39.54,12,25.13,25.1,50.25,46.65,68.53.36.38,1,.8,1.31.3s.08-.91,0-1.34c-1.79-8.13-3.95-16.17-5.85-24.27-4.12-19.15-11.16-37.49-18.2-55.71-8.39-23.64-18.24-46.73-26.13-70.55-8.54-22.27-14.07-45.55-22.21-68-6-19.65-14.85-38.19-22.88-57.06h0c-1.73-4.53-4.74-8.41-6.62-12.87-2.65-5.54-4.83-11.45-8.65-16.31h0c-1.82-2.48-3.87-5.18-3.19-8.44a.58.58,0,0,1,.35-.15c.68.47,1.12-.69.36-.9a2.85,2.85,0,0,1,.3-.16c.62.35,1.24.68,1.89,1-.41,1.13,1.61,1.42,2.27,2,6.65,3.37,13.13,7.08,20,10C91,130.34,102.27,136,113.78,141.27c10,5,19.22,11.42,28.55,17.52,7.5,5.2,15.89,9,23.38,14.18,14.61,10.37,30.39,18.75,46.65,26.22,10.95,6.55,22.49,11.94,33.72,18a121.19,121.19,0,0,0,27.1,12.52c7.08,3.48,13.66,7.9,21.07,10.71,8.46,3.87,17.61,5.76,26.33,8.87,2.94.64,8.77,6.57,10.9,4.91m-1.09-.62a0,0,0,0,1,0,0h0c-11.65-7.79-25.93-9.13-38.41-15.24-5.72-2.21-10.8-5.66-16.23-8.47-4.22-2.27-8.94-3.32-13.37-5.14-10.54-4.61-20-11.41-30.58-15.91-4.42-2.08-8.7-4.61-13-7.13h0c-11.31-6.59-23.69-11.14-34.85-18-19.64-13-40.13-24.6-59.66-37.73-20.72-11.68-43.15-20.06-64-31.47,5,1.7,10.26,2.91,15.39,4.34,4.53.93,9.23,1.12,13.7,2.5,29.87,7,60.89,10.77,89.25,23h0c7.14,3.19,14.75,5.21,21.74,8.71h0c12.59,6.54,23.63,15,35.81,22.47,8.51,5.64,16.91,11.49,25.85,16.47,7.38,4.49,15.33,8.12,22.18,13.42,4.75,3.82,9.1,8.12,13.51,12.31,7.79,7.46,15.74,14.87,22.5,23.22h0c3.31,4.25,8.08,7.46,10.14,12.6v0l0,0M64.83,105.19c2.67-2.31,5.47-4.41,8.2-6.78,2.42-2.18,5.62-3,8.53-4.4,3.44-2,7-3.72,10.59-5.48,4.17-2.19,8.84-3.26,13-5.46,10.9-5.25,21.66-11.26,33.37-14.45h0c21.37-5.81,43.26,1.82,64.92,1.36,4.7,0,9.36-1.35,14-1.67,11.06.58,22,4.25,32.78,6.1,11.59,2.2,24.18-.51,35,5.3h0c-7.69,2.42-15.19,5.28-22.57,8.22-7.76,2.49-15.56,6.14-23.33,8.71-4.31,1.32-8.77,2.18-13.09,3.45-5.81,1.64-11.4,3.89-17.17,5.65h0c-.6.19-1.2.33-1.8.49h0c-11.21,2.42-22.48,5.86-34,7.37h0l-1.11.12h0c-15.53,1.41-31.18-.56-46.69.46-7.87.19-15.46.87-23.39.86-3.67-.12-7.44-.3-11.12-.24-10.91,0-21.66-2.16-32.59-2.14-.63-.3-1.27-.57-1.89-.91,1-.21,2.24-.2,3-1h0a4.44,4.44,0,0,0,.38-.37h0c1.26-1.53,2.7-2.9,4.09-4.32h0l.85-.81m-6.74,19c4.73,7.83,7.75,16.64,12.58,24.43,4.82,11.13,9.46,22.15,14.55,33.28,9.71,25.34,17.89,51.28,25.57,77.29,2.6,8.16,5.89,16.14,8.65,24.24,3.9,11.44,8,23,12.66,34.17,3.76,9.14,7,18.46,10.38,27.76,2.52,6.72,5.32,13.37,7.61,20.18,2.1,6.42,4.61,12.75,6.6,19.21,2.15,7,3.65,14.26,5.39,21.41,1.7,6.78,3.42,13.57,4.94,20.39h0c-3.55-3.55-7.4-6.93-10.93-10.55-6-7.17-12-14.2-16.77-22.2-9.87-16.42-17.13-34.25-26.92-50.71-2.46-4.29-5.58-9.44-7.68-13.88-2.6-5.59-5-11.31-7.78-16.82-3.12-6.26-6.85-12.28-9.69-18.69A139.55,139.55,0,0,1,81.41,277c-4.18-14-9.19-27.77-12.45-42-1.41-5.85-2.26-11.81-3.29-17.74-2-12.4-4.29-24.79-5.22-37.35-.69-11.24-2.57-22.22-4.27-33.19-1.68-10.05-4.43-20.17-2.89-30.44v0c.54,2.49,2.23,4.38,3.67,6.46h0l0-.06c.38.51.77,1,1.14,1.54M146,67.06h0M57.81,163.87v0" fill="#161616"/><path d="M337.44,202.21a.59.59,0,0,0-.73.42.6.6,0,0,0,1.16.32.61.61,0,0,0-.43-.74h0" fill="#fefefe"/><path d="M320.24,240.93h0c-6.76-8.35-14.71-15.76-22.5-23.22-4.41-4.18-8.77-8.49-13.51-12.3-6.85-5.31-14.8-8.93-22.18-13.42-8.94-5-17.34-10.83-25.85-16.48C224,168.06,213,159.58,200.39,153a145.13,145.13,0,0,1,6.52,15.24c4.45,10.94,8.54,22.12,11.92,33.42,4.26,2.53,8.54,5,13,7.13,3.75.1,7.18,2.16,10.52,3.71,5.82,2.76,11.45,5.87,17.47,8.21-4.33-6.66,18.63,6.68,20.25,7.12,3,1.42,6,2.81,9.12,3.94a4.24,4.24,0,0,0,1.61.32,2.7,2.7,0,0,1,1.59-.07c7.68,2.64,14.94,6.84,22.6,9.71-3.12-3.64,3.86-1.23,5.28-.83h0" fill="#fefefe"/><path d="M215.08,116.73a.62.62,0,0,0-.74.43.6.6,0,0,0,.43.73.59.59,0,0,0,.73-.42.62.62,0,0,0-.42-.74" fill="#fefefe"/><path d="M285.3,79.72h0c-10.86-5.82-23.47-3.09-35.09-5.31-10.74-1.83-21.94-5.64-32.92-6.07-5.47.53-10.89,2-16.41,1.66-8.52-.11-17.15-1.31-25.54-2.17-7.44,2.44-15.6,3.18-22.57,6.83l0,0-.18.16.05,0a8.6,8.6,0,0,1-5,4.13c4.11,5.43,7.54,10.59,11.54,15.9l-.06-.11c1.15,1.53,2.38,3.12,3.58,4.67,15.62,1,31.36,1.73,46.4,6.4,5.77-1.75,11.36-4,17.17-5.64,4.31-1.28,8.78-2.14,13.09-3.45,7.76-2.58,15.57-6.23,23.33-8.71,7.38-2.94,14.87-5.8,22.57-8.23h0" fill="#fefefe"/><path d="M207.33,106.25h0c-14.2-4.31-29.1-4.93-43.81-5.9,3.29,4.41,6.35,9,9.8,13.27,11.54-1.51,22.79-5,34-7.36Z" fill="#fefefe"/><path d="M172.21,113.73h0c-3.47-4.34-6.55-9-9.94-13.45-14.47-1-29-2-43.44,0h.06C99,102.79,79.4,106,59.9,110.34c-.13.13-.25.25-.39.37a78.85,78.85,0,0,0,19,3.3,72.06,72.06,0,0,0,13.45.79c12.9.53,25.66-.25,38.5-.86,13.87-.34,27.9,1,41.79-.21" fill="#fefefe"/><path d="M146.16,78.44h0c-2.53-3.26-5-6.59-7.59-9.78-11.69,3-22.52,9.21-33.41,14.41-4.17,2.2-8.84,3.27-13,5.46C88.59,90.29,85,92,81.56,94c-2.9,1.35-6.12,2.23-8.53,4.4-3,2.66-6.2,4.88-9.05,7.6,3.18-1.23,6.48-3,9.61-4.16,6.43-2,13-3.68,19.44-5.56C103.86,92.81,114.35,89,125.42,86c7.09-1.87,13.65-5.35,20.69-7.51l0,0" fill="#fefefe"/><path d="M167,426.6h0c-1.53-6.82-3.25-13.61-5-20.4-1.73-7.14-3.24-14.37-5.39-21.4-2-6.46-4.5-12.79-6.59-19.21-2.3-6.81-5.09-13.47-7.62-20.19-3.33-9.29-6.61-18.61-10.38-27.75-4.65-11.17-8.75-22.74-12.65-34.17-2.85-8.33-6.23-16.53-8.88-24.93-5.46-19-11.6-37.85-18-56.57-2.22-6.4-4.61-12.94-7-19.27-2.38-5.67-5.49-12-7.83-17.49-2.17-5.35-4.43-10.57-6.74-15.89-1.46-3.12-3.45-5.85-4.89-9-2.95-5.95-5.14-12.27-9.13-17.6l0,.11c-1.5-2.21-3.12-3.94-3.69-6.51-1.57,10.26,1.21,20.4,2.88,30.44,1.69,11,3.57,21.95,4.26,33.19.93,12.56,3.18,24.95,5.23,37.35,1,5.93,1.88,11.89,3.29,17.74,3.26,14.24,8.27,28,12.45,42a137.81,137.81,0,0,0,5.82,16.72c2.83,6.41,6.56,12.42,9.69,18.69,2.79,5.5,5.17,11.23,7.78,16.82,2.09,4.44,5.22,9.61,7.68,13.88,9.78,16.46,17,34.29,26.92,50.7,4.79,8,10.77,15,16.76,22.21,3.53,3.63,7.38,7,10.93,10.55h0" fill="#fefefe"/><path d="M425.88,59.22a.93.93,0,0,0-.15-.13l.08.09c-4.16-2.07-8.76-3.45-13-5.38l.11.07c-.53-.26-1.09-.48-1.65-.69,1.94,4.24-23.61-3.78-26.18-2.8-.07,1.74-2.11,1.35-3.4,1.2-3.41-.5-6.84-1.14-10.23-1.8-5.18-1-10.36-1.94-15.56-2.83,4.2,3.2-6.42.77-7.59.62-3.69-.58-7.46-1.11-10.95-1.55-5.85-.69-11.72-1.25-17.59-1.6-.89,1-2.52.66-3.74.78-10.35.08-20.7-.35-31-.31,11.15,5.12-29,4.53-30.91,5.29A81.42,81.42,0,0,0,243,51.76c-.47.05-.54.55-.86.8-2.1,1.21-4.84,1.45-7.27,2-8.56,1.69-17.8,1.79-26,4.72-1.43,1.74-3.7,2.37-5.78,2.93-8.39,2-17.06,2.47-25.38,4.93,8.43.89,16.47,2,24.89,1.92,6.48.26,13-2.54,19.45-1.37,11.31,1.7,22.56,5.22,33.91,6.59,9.32.64,19.18-.36,27.85,3.78,6.59,2.12-.19,3.18-3,4.19-4.74,1.24-9.47,3.45-14.08,5.21-9.49,3.25-18.7,7.32-28.22,10.47-4.06,1.14-8.21,2-12.26,3.2-5.2,1.48-10.26,3.47-15.41,5.1,6.55,2,13.2,3.87,19.69,6.11,9.9,3.82,20.79,6.9,30.5,10.89,8.1,3.28,16.35,7.33,24.5,10.64a188.68,188.68,0,0,0,20.71-6.17c5.85-1.88,11.69-3.88,17.46-6,10-4,19.26-9.71,28.56-15.08,4.77-3,10.21-4.83,15.2-7.46,11.22-6.07,22.31-13,32.88-20.06,9-5.91,16.67-13.8,25.56-19.86" fill="#fefefe"/><path d="M610.13,252.7c0-.86-.89-1.46-1.37-2.09-1.76-2-3.54-4-5.29-5.94-4.65-5.34-10.27-9.7-15.5-14.41s-9.88-9.44-15.06-13.91c-6-5-12.43-9.78-18.65-14.55C539.07,189.65,522,180,504.92,170.72c-18.53-9.5-37.82-16-57.5-23.05-13.19-4.83-26.79-8.47-40.37-12a346.91,346.91,0,0,0-53.1-9.85C335.8,124,317.52,122.9,299.31,122c-6.74-.13-13.54-.15-20.28.13-4.83.21-9.68.73-14.51.91-7.42.35-14.9-.24-22.32-.3-8.42-.16-16.87.41-25.27.92a202.47,202.47,0,0,1-23.24.44c-4.22.19-12.05-.74-11.17.89a2.56,2.56,0,0,0-.39.22c-.64-.53-1.13.49-.52.91.08.56.47,1.54,1.1,1,4.82,4,10.59,6.3,16,9.34,16.21,8.25,33.65,13.45,50.91,19,15.21,4.83,30.59,9,45.71,14.18,12.86,4,25.81,7.88,38.3,13,39.7,15.65,79.75,30.65,121.12,41.32,8.88,2.44,17.81,4.48,26.73,6.56,8.48,2,17,4.27,25.63,5.37,22.64,3.38,44.75,10.11,67.72,11.3,7.79.61,15.65.54,23.24,2.67,3.56,1,6.9,1.88,10.44,3.21.58.21,1.43.37,1.65-.36m-42.22-39.16h0l-.84-.66.84.66h0Z" fill="#d9ffde"/><path d="M274,302.29c.14-.5-.42-.72-.82-.55a39,39,0,0,0-2.95-10.65c-2.66-6.57-5.41-13.2-8.55-19.56-4.66-8.37-10.72-15.9-15.86-23.93-7.29-10.49-13.95-21.72-23.67-30.21-10.13-8.19-20-16.8-30.53-24.46-6.44-4.18-13.56-7.19-20.31-10.82-10.13-5.38-20.17-10.93-30.6-15.73a129.08,129.08,0,0,0-35.8-10.94c-3.68-.29-17.59-4.58-11.29,3.18,3.63,4.35,7.76,8.29,11.7,12.36,9.56,9.09,18.93,18.41,28.18,27.83,7.27,6.8,14.64,13.52,21.15,21.1,12,12.23,24.52,24,37.31,35.34,10.86,9.53,21.53,19.39,33.51,27.48a119.82,119.82,0,0,0,21.77,12c7.15,3.32,14.5,6.31,22.28,7.73a.47.47,0,0,0-.49.47h0c.47,1.1,2.12,0,3.3,0a.48.48,0,0,0,.94-.21c.29,0,.66-.07.74-.42m-40.73-71.13.07.1-.76-1,.69.91Z" fill="#fdd9ff"/><path d="M104.27,110.25c-3.3-.92-4.68,4.25-1.37,5.1s4.68-4.25,1.37-5.1" fill="#161616"/><path d="M123.65,154.71c-3.3-.91-4.68,4.25-1.37,5.11s4.68-4.25,1.37-5.11" fill="#161616"/><path d="M97.76,137.83c-3.3-.92-4.68,4.24-1.37,5.1s4.68-4.25,1.37-5.1" fill="#161616"/><path d="M73.64,117.08c-3.29-.91-4.68,4.25-1.37,5.11s4.68-4.25,1.37-5.11" fill="#161616"/><path d="M40.13,115.35c-3.3-.92-4.68,4.24-1.37,5.1s4.68-4.25,1.37-5.1" fill="#161616"/><path d="M14.18,130.47c-3.29-.92-4.68,4.24-1.37,5.1s4.68-4.25,1.37-5.1" fill="#161616"/><path d="M30.92,151.83c-3.3-.92-4.68,4.25-1.37,5.1s4.68-4.24,1.37-5.1" fill="#161616"/><path d="M61,177.18c-3.3-.92-4.68,4.25-1.37,5.1s4.68-4.24,1.37-5.1" fill="#161616"/><path d="M55.1,139.93c-3.3-.92-4.68,4.25-1.37,5.1s4.68-4.25,1.37-5.1" fill="#161616"/><path d="M76.62,143.61c-3.29-.91-4.68,4.25-1.36,5.11s4.68-4.25,1.36-5.11" fill="#161616"/><path d="M92.89,173.08c-3.3-.91-4.68,4.25-1.37,5.11s4.68-4.25,1.37-5.11" fill="#161616"/><path d="M134.42,168.06c-3.3-.91-4.68,4.25-1.37,5.11s4.68-4.25,1.37-5.11" fill="#161616"/><path d="M170.11,168.1c-3.3-.91-4.68,4.25-1.37,5.11s4.68-4.25,1.37-5.11" fill="#161616"/><path d="M147.18,142.9c-3.29-.92-4.68,4.25-1.36,5.1s4.68-4.25,1.36-5.1" fill="#161616"/><path d="M105.33,122.4c-3.3-.91-4.68,4.25-1.37,5.11s4.68-4.25,1.37-5.11" fill="#161616"/><path d="M74.4,86.57c-3.3-.92-4.68,4.24-1.37,5.1s4.68-4.25,1.37-5.1" fill="#161616"/><path d="M29.21,76.79c-3.29-.91-4.68,4.25-1.37,5.11s4.68-4.25,1.37-5.11" fill="#161616"/><path d="M52.41,93c-3.29-.92-4.68,4.25-1.37,5.1s4.68-4.25,1.37-5.1" fill="#161616"/><path d="M27.36,181.39c-3.3-.92-4.68,4.24-1.37,5.1s4.68-4.25,1.37-5.1" fill="#161616"/><path d="M61.61,209.49c-3.29-.92-4.68,4.24-1.37,5.1s4.69-4.25,1.37-5.1" fill="#161616"/><path d="M97.53,199.79c-3.3-.92-4.69,4.24-1.37,5.1s4.68-4.25,1.37-5.1" fill="#161616"/><path d="M186.67,199.94c-3.3-.91-4.69,4.25-1.37,5.11s4.68-4.25,1.37-5.11" fill="#161616"/><path d="M276.29,236.31c-3.29-.92-4.68,4.25-1.37,5.1s4.68-4.24,1.37-5.1" fill="#161616"/><path d="M286.47,218.1c-3.29-.91-4.68,4.25-1.37,5.11s4.69-4.25,1.37-5.11" fill="#161616"/><path d="M218.92,182c-3.29-.91-4.68,4.25-1.36,5.11s4.68-4.25,1.36-5.11" fill="#161616"/><path d="M122.64,214.49c-3.3-.91-4.68,4.25-1.37,5.11s4.68-4.25,1.37-5.11" fill="#161616"/><path d="M47,196.55c-3.3-.92-4.68,4.24-1.37,5.1s4.68-4.25,1.37-5.1" fill="#161616"/><path d="M43.67,157.8c-3.3-.92-4.69,4.25-1.37,5.1s4.68-4.25,1.37-5.1" fill="#161616"/><path d="M58.83,74.88c-3.3-.91-4.68,4.25-1.37,5.11s4.68-4.25,1.37-5.11" fill="#161616"/><path d="M12.7,47.63c-3.29-.92-4.68,4.24-1.37,5.1s4.68-4.25,1.37-5.1" fill="#161616"/><path d="M40.78,212.13c-3.3-.91-4.68,4.25-1.37,5.11s4.68-4.25,1.37-5.11" fill="#161616"/><path d="M310.45,22.74c-27.71-7.5-58.31-5.07-86.17,2.17-11,2.93-21.58,7-32.59,9.73C183,37.22,174,38.5,165.49,41.78l.16-.05C145,49,125.83,59.72,106.89,70.51a99.69,99.69,0,0,0-12.68,8.58c-4.51,3.53-9,7.17-13.7,10.44-7,5-13.32,10.82-20.21,16.06-1.82,2-7.79,4.22-6.45,6.65,2.14,2,5.35,2.42,8.11,3.13,7.42,1.39,15,1.13,22.51,1,15.12.47,30.12-2.64,44.89-5.33,23.74-4.17,48.28-5.78,71.18-13.8,24.08-8.36,46.14-21.64,68.45-33.69,9.34-4.78,17.41-11.85,25-19.09,4.26-4.55,7.51-9.87,11.56-14.57,1.77-2,6.24-5.49,4.48-6.5a.58.58,0,0,0,.38-.68" fill="#161616"/><path d="M195,306c0-5.1-2.79-9.44-6-13.2l0,.06A63.32,63.32,0,0,0,171,275.36c-1.71-1.21-3.41-2.46-5.06-3.72-2.39-2.29-3.54-.88-3.18,2,2.09,13.13,12.77,23.17,23.61,29.88,1,.45,9.43,6,8.16,2.91A.6.6,0,0,0,195,306" fill="#161616"/><g style="isolation:isolate"><path d="M552.47,409.12v-35H461.79V346.48l65.29-138.24h33.34L495.14,346.48h57.33v-54.4H582v54.4h20V374.1H582v35Z" fill="#d9e9ff"/><path d="M705.5,413.3q-20.5,0-36.27-9a65.3,65.3,0,0,1-24.76-24.77q-9-15.75-9-36.27V274.08q0-20.5,9-36.27a65.28,65.28,0,0,1,24.76-24.76q15.76-9,36.27-9t36.27,9a65.28,65.28,0,0,1,24.76,24.76q9,15.76,9,36.27v69.19q0,20.52-9,36.27a65.3,65.3,0,0,1-24.76,24.77Q726,413.3,705.5,413.3Zm0-27.9A39.35,39.35,0,0,0,725.8,380a40.61,40.61,0,0,0,14.57-14.51,39.13,39.13,0,0,0,5.44-20.43V272a38.9,38.9,0,0,0-5.44-20.3,40.76,40.76,0,0,0-14.57-14.51,41.05,41.05,0,0,0-40.6,0,40.87,40.87,0,0,0-14.58,14.51,39,39,0,0,0-5.44,20.3v73.1a39.23,39.23,0,0,0,5.44,20.43A40.71,40.71,0,0,0,685.2,380,39.32,39.32,0,0,0,705.5,385.4Z" fill="#d9e9ff"/><path d="M899.68,409.12v-35H809V346.48l65.28-138.24h33.34L842.35,346.48h57.33v-54.4h29.58v54.4h20V374.1h-20v35Z" fill="#d9e9ff"/></g><path d="M502.84,404.53c-2.69-7.44-7.57-13.93-12.16-20.33-6.21-8.79-12.76-17.34-19-26.08A93.5,93.5,0,0,0,458.27,342c-9.66-8.65-19.72-17-30-25-8.23-5.7-16.7-11.09-25.33-16.15-15.42-7.67-31.09-14.94-47-21.56-14.2-6-28.38-12-43.16-16.89-4.35-1.37-8.76-2.54-13.16-3.74-1-.33-3.69-1.11-2.56.93,1.72,1.87,2.66,4.27,4.27,6.22,2.36,3.08,3.92,6.76,6.25,9.87,3.81,5.73,8.31,11.1,12.28,16.77A150.85,150.85,0,0,0,333,307c7.17,7,14.19,14.25,21.66,21,6.67,5.76,14.12,10.49,21.26,15.62s14.29,10.65,21.76,15.51c13.51,9.16,27.63,17.66,42.51,24.38,15.37,8.51,31.09,16.54,48.52,20.19,2.43.85,18.7,3.62,11.09-.69a97.35,97.35,0,0,0-17.9-10.11c-8.43-4.09-16.4-9.14-24.34-14.07-14.17-8.58-28-18-41.8-27.16-6.2-4.12-13-7.77-19.11-12.18-8.23-5.54-17-10.64-24.72-16.81-5.25-3.76-10.78-7.22-15.73-11.29l0,0c-9.71-7.77-19.63-15.34-28.79-23.78-7.09-6.85-14.32-13.5-21.15-20.61-2.64-2.71-5.91-4.84-8.28-7.79,14.49,3.64,28.24,8.77,42,14.34l0,0c17.07,7.29,34.23,14.37,50.93,22.52A132.65,132.65,0,0,1,409,305.58c10.34,6.38,20.58,13,29.73,21,7.95,6.69,16.28,13,23.38,20.65a137.91,137.91,0,0,1,10.07,13.25c6.2,8.4,12.42,16.8,18.5,25.28,3.33,4.88,6.84,9.16,9.26,14.5.9,1.37,2,5.89,3,4.29" fill="#161616"/><path d="M600.67,281.63a.66.66,0,0,0-.46-.8.55.55,0,0,0-.22,0c1.25-.63-2.2-4.57-2.61-5.44a120.31,120.31,0,0,0-8.76-10.12c-5.71-5.51-11.33-11.29-17.54-16.19-8.22-6.33-17-12.33-24.94-18.76C520,208.5,485,204.06,452.19,200.64c-8.48-1.22-5.09,1-.89,5.06,4.78,4.63,9.67,9.18,14.71,13.54,11.32,9.87,22.72,20.34,35.53,28.41C512,254,522,261.08,533.14,266c8.23,3.76,17.24,5.81,25.92,8.21,9.92,2.84,20,5.4,30.31,6l-.06,0c3,0,9.23,3.25,11.36,1.43" fill="#161616"/><path d="M948.38,68.53c3.92,7.61,9.16,14.47,14.47,21.15h0a491.42,491.42,0,0,0,37.75,44.51c4.86,4.57,10.56,7.91,16.28,11.26,4.82,3.31,9.54,6.77,14.45,10,21.56,14.07,42.9,28.48,65.69,40.53,10.68,6.32,21.29,13,33,17.14l-.12,0,1.7.71h0c8.15,3.31,16.4,7.37,24.51,10.64,16.87,6.36,34.45,12.42,51.85,17.46h0c15,4.67,30.78,5.41,46.4,6.4h0c26.25,2.92,52.15-.16,77.94-5.18,8.93-1.47,17.83-3.12,26.64-5.22,8.47-1.36,1.1-5.39-1.89-8.36a255,255,0,0,0-25.56-21.06c-7.41-4.7-15.09-9-22.16-14.18-8.07-5.43-16.49-10.31-24.58-15.7-3-1.54-19.52-13.65-12.67-3a3.85,3.85,0,0,1-.68,0h.12a11.52,11.52,0,0,1-3.18-1h0c-2.85-.26-31-17.48-28.41-11.22-1.64.19-3.17-.7-4.67-1.23h0a175,175,0,0,1-24.17-12.43,73,73,0,0,1-13.54-5.73c-1-.16-17.44-10.1-14.21-6.33-2.56.64-31.58-17.11-26.5-9.74l-.39,0h.13c-10.62-3.14-19.86-11.43-30.75-13.12l.12,0a2.41,2.41,0,0,1-1.1,0l.13,0a11.1,11.1,0,0,1-2.37-.76l.12.05c-1.42-.17-27.06-14-20.94-7.05a5.51,5.51,0,0,1-.71-.08h.13c-2.43.39-25.19-9.81-22.67-5.31l-.24,0,.12,0c-8.21-2.25-15.65-6.93-24-8.76-3.91,1-5.54.57-9.44-.74-6-1.85-11.72-4.5-17.76-6.15-1.21-.28-2.84-.49-3.59.73-3.22,1.67-23.39-9.22-21.73-4a3.4,3.4,0,0,1-.78,0l.13,0c-6.56-1-12.33-6-19.1-5.06l.12,0c-6.06-1.38-11.85-3.84-18-4.92-4.52-1.74-9.67-2.19-13.89-4.5a.49.49,0,0,0-.66.17h0c-1,1.74,16.41,5.66,18.54,6.2,5.79,1,11.26,4.79,17.2,3.81l-.13,0c2.62-.22,18.75,8.75,17.42,3.69a1.73,1.73,0,0,1,.6,0l-.13,0c5.36.63,16.93,7.4,21.3,5l-.08.09a1.09,1.09,0,0,1,.56-.43l-.12,0a2,2,0,0,1,.59-.12l-.12,0c7.53.42,22,10,28.54,7h-.12a3,3,0,0,1,.67,0h-.13c2.75-.54,28.31,12.73,25.15,7.47,5.91,1.56,11.65,3.7,17.48,5.55h0c1.39.4,8.42,2.8,5.27-.82h0v0c7.66,2.87,14.92,7.07,22.6,9.71a2.7,2.7,0,0,0,1.59-.07,4.28,4.28,0,0,1,1.61.32c3.08,1.14,6.16,2.52,9.12,3.94,1.65.46,24.53,13.75,20.24,7.12h0v0c6,2.35,11.64,5.46,17.46,8.22,3.34,1.55,6.78,3.61,10.53,3.71h0a.39.39,0,0,0,.15-.06c6.3,3.17,12.43,6.67,18.86,9.57,2.77,1.32,5.9,1.51,8.4,3.42,2.17,1.27,30.16,17.62,28,10.88,1.79.65,3.54,1.47,5.32,2.16a.15.15,0,0,1-.07,0c3.28.36,34.33,20.24,25.4,7.34a2.29,2.29,0,0,1,.37.12h0l.08,0s0,0-.08,0c21.74,12,42.11,26.49,63.07,39.78h0c8.12,6.36,16.08,12.88,23.58,20,4.6,3.87,5.06,4-1.16,5.32h0c-19.47,4.31-39.18,7.54-59,10.07h0c-14.48,2-29,1-43.44,0h0l-1.25-.08h0c-14.71-1-29.61-1.59-43.81-5.89h0a604.14,604.14,0,0,1-94.75-36.07c-13.41-7.79-27-15.28-40.4-23.13-23.09-14-45.12-29.64-67.88-44.09h0a76.11,76.11,0,0,1-14.11-13.9c-8.07-9-15.93-18.13-23.48-27.56a.39.39,0,0,0,.08.1c-5.1-7.16-11-13.74-15.64-21.2a59.44,59.44,0,0,1-4.43-7.45.48.48,0,0,0-.83.48M958.7,82.87a.27.27,0,0,1,.07.08l-.07-.08m25.13-5.35h0m40.76,9.32.09-.07-.09.07m48.91,13,0,0,0,0m5.79.94v0m189,73.68h0m76.34,45.2a0,0,0,0,1,0,0,0,0,0,0,0,0,0" fill="#161616"/><path d="M975.31,313.3c1.47,2.61,8.91,3.86,11.86,5.58,1,.36,6.65,3.39,4.7.24,4.19-1.13,26.55,6.9,26.23,2.82a5.06,5.06,0,0,1,2.19,0h-.13c1.45-.48,36,8.15,26.82,3,.43,0,.86.08,1.29.14l-.13,0c9.24,1.52,18.51,2.91,27.86,3.6,1.91-.17,6,1.26,7.28,0a4.16,4.16,0,0,1,1-.21l-.12,0c8.61-.28,17.24.11,25.85.18,2.35,0,13.58,1,6.24-2.44a2.55,2.55,0,0,1,.72-.4l-.11.05c11.5-2.64,23.57-1.17,35.24-2.89,3.16-.52,6.81-.24,9.22-2.49a.43.43,0,0,1-.12.05c9.88-2.9,20.39-3,30.38-5.46a6.89,6.89,0,0,0,3.67-2.19,28.62,28.62,0,0,1,7.9-2.38,213.44,213.44,0,0,0,31.33-6.75c5.11-1.89,14-2,16.81-7l-.08.1a6.12,6.12,0,0,1,.8-.72l-.1.08c3.4-2.43,8-3,11.64-4.76,7.69-3.55,16.45-5.71,24.43-8.13,8.46-2.43,16.59-6,25.13-8.13,6.89-2.05,14-3.39,20.52-6.63,4.12-2,9.45-3.25,12-7.3.41-.43-.24-1.12-.69-.68-.26.26-.27.68-.51.95-2.59,2.48-5.85,3.94-9.14,5.27h0c-8.77,4.38-18.48,6.12-27.78,9-13.52,5-27.54,8.4-41,13.37h0l-.1,0h0c-3.87,1.76-7.89,3.1-11.91,4.49h0a8.46,8.46,0,0,0-5,4.14l0,0-.18.17,0,0,0,0h0c-3.55,2.18-7.79,2.76-11.74,4-4.4,1.13-8.83,2.18-13.17,3.54h0c-8.43,2.5-17.22,2.91-25.71,5-2,.56-4.1,1.19-5.45,2.84-4.94,2.07-10.72,2.23-16,3.26-3.24.6-16.44,1.68-17.67,4.05h0a1,1,0,0,1-.42.21h0a103.07,103.07,0,0,1-15.94,1.91c-1.86.42-36.4.1-26.09,4.95h0c-10.09,0-20.18-.35-30.26-.34-1.46.18-3.42-.32-4.52.8-5.87-.34-11.74-.91-17.59-1.59-3.49-.44-7.26-1-11-1.55-1.21-.16-11.77-2.56-7.59.6h0c-5.19-.88-10.38-1.84-15.55-2.82-3.4-.66-6.82-1.31-10.24-1.8-1.3-.14-3.31-.57-3.39,1.2-2.54,1-28.11-7-26.18-2.82h0v0c-.54-.2-1.08-.43-1.6-.66l.06,0c-4.26-1.92-8.81-3.32-13-5.35l.06.05,0,0,0,0a.86.86,0,0,1-.14-.13.53.53,0,0,1,.12-.14h0c8.78-5.87,16.25-13.63,25-19.46,10.73-7.15,21.94-14.19,33.32-20.35,4.85-2.55,10.13-4.3,14.79-7.2,9.43-5.48,18.84-11.26,29-15.34q8.67-3.16,17.47-6a191.45,191.45,0,0,1,20.7-6.18h0c14.5-3.72,29.12-7.08,44.18-7,18.9-1,37.92-.91,56.7,1.56,21.65,2.49,42.61,9.2,64.35,10.92,22.07,2.45,44.68,6.39,64.63,16.45.49.33,1-.53.49-.83-4.43-2.95-9.64-4.23-14.59-6-21.75-8.43-45.16-9.29-67.94-12.85-27.69-5.81-55.6-11.37-84-10.82-11.85.38-23.76.45-35.57,1.6-9.69,1.26-19.1,3.87-28.59,6.09-13.57,3.29-26.76,8.07-39.86,12.86-9.47,4.05-18.32,9.44-27.21,14.6-24.5,11.66-48,25.66-68.4,43.62l.06,0c-1.72,1.57-4.51,2.26-5.55,4.41m184.26,7.38,0-.05,0,.05m14.54-2.73h0m88.19-27,0,0,0,0m81.64-29h0" fill="#161616"/><path d="M1223.62,126.13c.3,2.53,1.63,4.78,2.55,7.13l0,0c1.52,3.9,3.55,7.89,3.42,12.17l0-.13c-.55,2.26-2.84,3-1.72,5.85,2.06,7.15,5.53,13.81,8,20.82-5.64-3,1.51,5.35,2.16,6.9,3.46,5.89,7.63,11.44,10.55,17.61-3.24.89,10.85,15,12.14,17a58.26,58.26,0,0,0,14.31,12.9c5.25,4.67,10,10.26,16.74,12.87,6.86,4.91,13.13,10.73,20.79,14.44,9.75,4,20.11,5.51,30.2,8.23,1.14.41,5.78,1.31,4.14-.26a20.12,20.12,0,0,1-3.7-.61c-22.12-5.35-31.51-5.8-49.49-21.71-7.31-3.22-12.86-8.84-18.67-14.17a53.75,53.75,0,0,1-13.62-12.34c-4.27-5-9-9.91-12.5-15.49,3.18-.37-12.43-22-13.82-24.67,3.79,1.42.15-4.39-.19-5.83-2.14-5.55-4.88-10.93-6.27-16.72l0,.12c-.65-1.88,1.43-2.68,1.78-4.3.6-7-4.31-13-5.85-19.64,3,1.85,16.93,21.42,14.94,8.55q37.59,40.71,72.21,84.07c11.27,13.21,25.93,23.91,34.42,39.3.68.75.78,2.67,1.92,2.55a.49.49,0,0,0,.18-.66c-1.17-2.13-2.21-4.35-3.49-6.41-8.51-12-19.51-21.75-29.59-32.32-15.58-19.27-31.69-38.12-47.75-57-6.32-8-13.74-15-20.4-22.73-2.68-2.52-4.75-6.37-7.94-8-1.28,1.12.06,3.33-.51,4.8a1,1,0,0,1-.22-.09l.12,0c-2.73-.28-14.71-17-14.87-12.23m1,.15v0m4.12,22.28a.36.36,0,0,1,0-.09l0,.09m10-10.57s0,.06,0,.09V138m9.87,58.25v0m.41,1.19,0,.1,0-.1m36.81,37.24,0,0s0,0,0,0m19.72-23.72,0,0,0,0m-3.6,35,0,0,0,0" fill="#161616"/><path d="M1149.48,22.57c2.69,16.12,5.07,32.31,9.91,48,2.88,11.09,4.38,22.5,7.61,33.52,2.81,10,4.4,20.18,6.3,30.34,2.81,12.29,6.36,24.43,10,36.5h0a452.75,452.75,0,0,0,16.64,45c7.65,15.54,18.62,29.2,28.87,43.08h0c3.72,4.6,7,9.58,10.57,14.26h0c1.2,1.54,2.38,3.09,3.55,4.63l0-.06c13.35,18.66,27.57,37,42.54,54.44,17.55,19.94,37.59,37.44,58,54.39,11.57,10.41,23.21,20.72,35.85,29.82,9.32,8.59,19.37,16.24,30.88,21.65.23.33.85.35,1-.1s-.19-.51-.4-.68c-4.77-2.57-9.61-5-14.17-8-9.66-6.83-18-15.44-27.85-22l.1.07c-19.56-17.07-39.73-33.48-58.66-51.26-17.32-15.72-32.12-33.83-46.53-52.19h0l0,0h0c-2.61-3.19-5.06-6.52-7.6-9.78h0c-5.43-7.13-10.36-14.63-16-21.63h0v0h0l-.14-.18h0c-3.39-4.4-6.47-9.11-9.94-13.44h0c-10.3-13.88-21.26-27.6-29-43.11-12.74-30.34-23.51-61.93-29-94.45-2.36-12.37-6.31-24.37-8.48-36.77-2-11.24-5.69-22.05-8.06-33.2-2-9.61-3.3-19.35-5-29-.14-.55-1.12-.38-.93.25m260.66,415.53,0,0,0,0m.09,0,0,0,0,0" fill="#161616"/><path d="M754.17,176.88c.76.92,2.36-.7,3.36-.85A43.81,43.81,0,0,1,764.9,174c2.75-1.09,19.71-2.14,8.2-4a6.68,6.68,0,0,1,.89-.18l-.12,0c6-.68,12.11-1.17,18.19-1.32,2.78-.23,14.57.74,6.2-3.1,5.68-.75,11.5-.54,17.23-.57,1.31-.34,11,1.59,8.2-1.31a4,4,0,0,1,.5-.09h-.13c5.71-.44,11.63-.5,17.37-.43,1.71-.39,13.81,1.89,11.4-1.54a1.57,1.57,0,0,1,.59-.36l-.11.05c11.9-3.15,24.49-.18,36.3-3.81h0c17-2,34.16-1.46,51.11.56,1.22-.25,12.55,1.71,9.74-.25-17.5-1.51-34.95-3.39-52.55-2.09-3.06.2-6.15.47-9.19.94-4.66,1-9.13,2.28-14,1.89-2.88.3-25-.5-22.56,3.77a5.35,5.35,0,0,1-.55.11l.12,0c-2.16.57-32.65-2-28.77,1.9-2.18.09-35.63-2.07-22.91,3.18-1.78.11-37.26.34-25.86,3.92-5.3,1.22-16.33,2.23-20,5.66M799,165.19l.09,0-.09,0m1,2.13h0" fill="#161616"/><path d="M1345.21,262.16a.48.48,0,1,0-.32-.56.46.46,0,0,0,.32.56" fill="#161616"/><path d="M1064.71,170.37a.59.59,0,0,0,.73-.42.6.6,0,1,0-1.15-.31.59.59,0,0,0,.42.73h0" fill="#fefefe"/><path d="M1081.92,131.65h0c6.75,8.35,14.7,15.76,22.5,23.22,4.41,4.19,8.76,8.49,13.5,12.3,6.85,5.31,14.81,8.94,22.18,13.43,8.94,5,17.34,10.83,25.86,16.47,12.18,7.45,23.22,15.93,35.81,22.47a147.34,147.34,0,0,1-6.53-15.24c-4.44-10.94-8.53-22.12-11.92-33.42-4.26-2.53-8.54-5-13-7.12-3.76-.11-7.19-2.17-10.53-3.72-5.82-2.75-11.45-5.87-17.46-8.21,4.32,6.66-18.64-6.68-20.25-7.12-3-1.42-6-2.8-9.13-3.94a4.66,4.66,0,0,0-1.61-.32,2.7,2.7,0,0,1-1.59.08c-7.67-2.65-14.93-6.85-22.6-9.72,3.12,3.64-3.86,1.23-5.27.83h0" fill="#fefefe"/><path d="M1187.08,255.85a.6.6,0,0,0,.31-1.16.6.6,0,0,0-.73.43.59.59,0,0,0,.42.73" fill="#fefefe"/><path d="M1194.82,266.34h0c14.21,4.3,29.1,4.92,43.81,5.89-3.29-4.4-6.34-9-9.8-13.27-11.53,1.52-22.79,5-34,7.37Z" fill="#fefefe"/><path d="M1230,258.86h0c3.47,4.33,6.54,9,9.93,13.44,14.47,1,29,2,43.45,0h-.06c19.84-2.51,39.48-5.76,59-10.07.12-.13.25-.25.38-.37a78.26,78.26,0,0,0-19-3.29,71.17,71.17,0,0,0-13.44-.8c-12.9-.53-25.66.25-38.5.87-13.87.33-27.91-1-41.79.2" fill="#fefefe"/><path d="M1256,294.14h0c2.53,3.26,5,6.59,7.6,9.78,11.69-3,22.51-9.21,33.41-14.41,4.16-2.2,8.84-3.27,13-5.46,3.55-1.76,7.15-3.49,10.59-5.48,2.9-1.35,6.11-2.22,8.53-4.4,3-2.65,6.19-4.87,9-7.6-3.18,1.23-6.48,3-9.62,4.16-6.43,2-13,3.68-19.44,5.56-10.82,3.48-21.31,7.33-32.39,10.31-7.08,1.88-13.65,5.35-20.69,7.52l0,0" fill="#fefefe"/><path d="M1235.14-54h0c1.52,6.83,3.24,13.62,4.94,20.4,1.74,7.15,3.24,14.37,5.39,21.41,2,6.46,4.5,12.78,6.6,19.21,2.29,6.8,5.08,13.46,7.61,20.18,3.33,9.29,6.62,18.62,10.39,27.75,4.64,11.17,8.74,22.74,12.65,34.18,2.85,8.32,6.23,16.52,8.87,24.92,5.46,19,11.61,37.85,18,56.58,2.22,6.39,4.61,12.93,7,19.26,2.38,5.67,5.48,12,7.82,17.49,2.18,5.35,4.43,10.57,6.74,15.89,1.46,3.12,3.46,5.85,4.89,9,3,6,5.14,12.28,9.14,17.6l-.06-.11c1.5,2.21,3.12,4,3.69,6.51,1.57-10.26-1.2-20.39-2.87-30.44-1.7-11-3.58-22-4.27-33.19-.93-12.56-3.18-24.94-5.23-37.35-1-5.93-1.87-11.89-3.28-17.73-3.26-14.25-8.27-28-12.45-42a140.55,140.55,0,0,0-5.82-16.71c-2.84-6.42-6.57-12.43-9.69-18.7-2.8-5.5-5.17-11.22-7.79-16.81-2.09-4.45-5.22-9.61-7.67-13.89-9.79-16.46-17-34.28-26.92-50.7-4.79-8-10.78-15-16.77-22.21-3.53-3.62-7.38-7-10.93-10.55h0" fill="#fefefe"/><path d="M1051,19.29c-.14.5.42.73.82.55a39,39,0,0,0,3,10.65c2.66,6.57,5.41,13.2,8.55,19.57C1068,58.42,1074.07,66,1079.21,74c7.29,10.5,14,21.72,23.67,30.21,10.13,8.19,20,16.8,30.53,24.47,6.44,4.17,13.56,7.19,20.31,10.81,10.13,5.39,20.17,10.93,30.6,15.74a129.4,129.4,0,0,0,35.8,10.93c3.68.29,17.59,4.58,11.29-3.17-3.63-4.36-7.76-8.3-11.7-12.36-9.56-9.1-18.93-18.42-28.18-27.83-7.27-6.81-14.64-13.53-21.15-21.1-12-12.24-24.52-24-37.31-35.35-10.86-9.52-21.53-19.38-33.51-27.48a119.77,119.77,0,0,0-21.77-12c-7.15-3.32-14.5-6.32-22.28-7.74a.47.47,0,0,0,.49-.47h0c-.47-1.09-2.12,0-3.3,0a.48.48,0,0,0-.94.2c-.29.06-.66.07-.74.42m40.73,71.13-.07-.09.76,1-.69-.9Z" fill="#fdd9ff"/><path d="M1297.88,262.33c3.3.92,4.69-4.24,1.37-5.1s-4.68,4.25-1.37,5.1" fill="#161616"/><path d="M1278.51,217.87c3.29.91,4.68-4.25,1.37-5.11s-4.68,4.25-1.37,5.11" fill="#161616"/><path d="M1304.39,234.76c3.3.91,4.69-4.25,1.37-5.11s-4.68,4.25-1.37,5.11" fill="#161616"/><path d="M1328.51,255.5c3.3.91,4.68-4.25,1.37-5.11s-4.68,4.25-1.37,5.11" fill="#161616"/><path d="M1362,257.24c3.29.91,4.68-4.25,1.37-5.11s-4.69,4.25-1.37,5.11" fill="#161616"/><path d="M1120,232.12c3.3.91,4.68-4.25,1.37-5.11s-4.68,4.25-1.37,5.11" fill="#161616"/><path d="M1371.24,220.75c3.29.92,4.68-4.25,1.36-5.1s-4.68,4.25-1.36,5.1" fill="#161616"/><path d="M1341.19,195.4c3.29.92,4.68-4.25,1.37-5.1s-4.68,4.25-1.37,5.1" fill="#161616"/><path d="M1347.05,232.65c3.3.92,4.69-4.24,1.37-5.1s-4.68,4.25-1.37,5.1" fill="#161616"/><path d="M1325.53,229c3.3.91,4.68-4.25,1.37-5.11s-4.68,4.25-1.37,5.11" fill="#161616"/><path d="M1309.27,199.5c3.29.92,4.68-4.25,1.36-5.1s-4.68,4.25-1.36,5.1" fill="#161616"/><path d="M1267.74,204.52c3.29.92,4.68-4.25,1.37-5.1s-4.68,4.24-1.37,5.1" fill="#161616"/><path d="M1232.05,204.48c3.29.91,4.68-4.25,1.36-5.1s-4.68,4.24-1.36,5.1" fill="#161616"/><path d="M1255,229.69c3.3.91,4.68-4.25,1.37-5.11s-4.68,4.25-1.37,5.11" fill="#161616"/><path d="M1296.82,250.18c3.3.91,4.68-4.25,1.37-5.11s-4.68,4.25-1.37,5.11" fill="#161616"/><path d="M1327.76,286c3.29.91,4.68-4.25,1.36-5.11s-4.68,4.25-1.36,5.11" fill="#161616"/><path d="M1372.94,295.79c3.3.92,4.68-4.25,1.37-5.1s-4.68,4.25-1.37,5.1" fill="#161616"/><path d="M1154.55,273.52c3.3.92,4.68-4.25,1.37-5.1s-4.68,4.24-1.37,5.1" fill="#161616"/><path d="M1349.74,279.62c3.3.92,4.68-4.24,1.37-5.1s-4.68,4.25-1.37,5.1" fill="#161616"/><path d="M1191.21,226c3.29.91,4.68-4.25,1.37-5.1s-4.68,4.24-1.37,5.1" fill="#161616"/><path d="M1374.79,191.2c3.3.91,4.68-4.25,1.37-5.11s-4.68,4.25-1.37,5.11" fill="#161616"/><path d="M1340.54,163.1c3.3.91,4.68-4.25,1.37-5.11s-4.68,4.25-1.37,5.11" fill="#161616"/><path d="M1304.63,172.8c3.3.91,4.68-4.25,1.37-5.11s-4.68,4.25-1.37,5.11" fill="#161616"/><path d="M1215.49,172.64c3.29.92,4.68-4.25,1.37-5.1s-4.68,4.24-1.37,5.1" fill="#161616"/><path d="M1125.86,136.27c3.3.92,4.68-4.25,1.37-5.1s-4.68,4.25-1.37,5.1" fill="#161616"/><path d="M1115.68,154.48c3.3.91,4.68-4.25,1.37-5.11s-4.68,4.25-1.37,5.11" fill="#161616"/><path d="M1183.23,190.56c3.3.91,4.68-4.25,1.37-5.11s-4.68,4.25-1.37,5.11" fill="#161616"/><path d="M1279.51,158.09c3.3.92,4.69-4.25,1.37-5.1s-4.68,4.25-1.37,5.1" fill="#161616"/><path d="M1130.87,203.48c3.3.92,4.68-4.25,1.37-5.1s-4.68,4.25-1.37,5.1" fill="#161616"/><path d="M1355.17,176c3.29.91,4.68-4.25,1.37-5.11s-4.68,4.25-1.37,5.11" fill="#161616"/><path d="M1358.49,214.78c3.3.92,4.68-4.25,1.37-5.1s-4.68,4.25-1.37,5.1" fill="#161616"/><path d="M1343.33,297.7c3.29.91,4.68-4.25,1.36-5.11s-4.68,4.25-1.36,5.11" fill="#161616"/><path d="M1407.2,364.4c3.29.91,4.68-4.25,1.37-5.11s-4.68,4.25-1.37,5.11" fill="#161616"/><path d="M1121.45,315c3.3.91,4.68-4.25,1.37-5.11s-4.68,4.25-1.37,5.11" fill="#161616"/><path d="M1238.71,255.05c3.29.91,4.68-4.25,1.37-5.11s-4.69,4.25-1.37,5.11" fill="#161616"/><path d="M1193.36,130.91c3.3.92,4.68-4.25,1.37-5.1s-4.68,4.25-1.37,5.1" fill="#161616"/><path d="M1145,125.55c3.3.92,4.68-4.25,1.37-5.1s-4.68,4.25-1.37,5.1" fill="#161616"/><path d="M1361.37,160.45c3.3.92,4.68-4.25,1.37-5.1s-4.68,4.25-1.37,5.1" fill="#161616"/><path d="M907.7,389.84c27.71,7.51,58.31,5.08,86.17-2.17,11-2.93,21.58-7,32.59-9.72,8.68-2.58,17.73-3.87,26.2-7.14l-.15,0c20.63-7.26,39.82-18,58.76-28.78A99.62,99.62,0,0,0,1124,333.5c4.5-3.54,9-7.18,13.69-10.45,7-5,13.32-10.82,20.21-16.06,1.82-2,7.8-4.21,6.45-6.65-2.14-2-5.35-2.42-8.1-3.13-7.42-1.39-15-1.13-22.51-1-15.13-.47-30.13,2.64-44.89,5.33-23.75,4.17-48.28,5.78-71.19,13.8C993.53,323.67,971.48,337,949.16,349c-9.34,4.78-17.41,11.85-25,19.1-4.27,4.54-7.52,9.86-11.56,14.56-1.77,2-6.25,5.5-4.48,6.5a.6.6,0,0,0-.39.69" fill="#161616"/><path d="M1176.12,75.61c0,5.1,2.78,9.44,6,13.2l0-.06a63.33,63.33,0,0,0,18.1,17.48c1.71,1.2,3.42,2.45,5.07,3.71,2.39,2.3,3.53.88,3.17-2-2.08-13.13-12.77-23.17-23.61-29.88-1-.44-9.43-6-8.16-2.91a.6.6,0,0,0-.5.45" fill="#161616"/><path d="M1071.76,119s0,0,0,0h0v0c11.65,7.78,25.93,9.12,38.41,15.23,5.73,2.21,10.81,5.66,16.23,8.47,4.23,2.28,8.95,3.32,13.37,5.14,10.55,4.61,20,11.42,30.58,15.92,4.43,2.07,8.71,4.6,13,7.12h0c11.31,6.58,23.7,11.14,34.85,18,19.64,13,40.13,24.6,59.67,37.74,20.71,11.68,43.14,20.05,64,31.46-5-1.7-10.27-2.91-15.4-4.33-4.53-.94-9.23-1.13-13.7-2.51-29.86-7-60.88-10.77-89.24-23h0c-7.13-3.19-14.74-5.2-21.74-8.71v0c-12.59-6.55-23.63-15-35.81-22.47-8.52-5.65-16.92-11.5-25.86-16.48-7.37-4.49-15.33-8.12-22.18-13.42-4.74-3.82-9.1-8.12-13.51-12.31-7.79-7.46-15.74-14.87-22.5-23.22h0c-3.32-4.26-8.09-7.47-10.15-12.6v0s0,0,0,0m272.32,129.32c-4.73-7.82-7.75-16.64-12.58-24.43-4.81-11.12-9.46-22.15-14.55-33.27-9.71-25.34-17.88-51.28-25.57-77.3-2.6-8.16-5.89-16.13-8.65-24.23-3.9-11.44-8-23-12.65-34.18-3.76-9.14-7-18.46-10.39-27.75-2.52-6.72-5.31-13.38-7.61-20.19-2.1-6.42-4.61-12.75-6.59-19.2-2.16-7-3.66-14.27-5.4-21.41-1.7-6.78-3.41-13.58-4.94-20.4h0c3.55,3.55,7.4,6.93,10.93,10.55,6,7.18,12,14.2,16.77,22.21,9.87,16.41,17.13,34.25,26.92,50.7,2.46,4.3,5.58,9.44,7.67,13.89,2.61,5.58,5,11.31,7.78,16.81,3.12,6.27,6.86,12.28,9.69,18.69a137.37,137.37,0,0,1,5.82,16.73c4.18,14,9.19,27.76,12.45,42,1.41,5.85,2.27,11.8,3.29,17.73,2,12.41,4.3,24.79,5.23,37.35.69,11.24,2.57,22.23,4.26,33.2,1.68,10,4.43,20.16,2.89,30.43v0c-.54-2.48-2.22-4.38-3.66-6.46h0l0,.06-1.15-1.53m-87.9,57.18.12,0-.12,0m88.17-96.82a.06.06,0,0,0,0,0,.06.06,0,0,1,0,0" fill="#161616"/></svg>