<svg xmlns="http://www.w3.org/2000/svg" width="19.5" height="22.285" viewBox="0 0 19.5 22.285">
    <path d="M16.714 15.321H9.75a1.391 1.391 0 0 1-1.393-1.393V2.786A1.391 1.391 0 0 1 9.75 1.393h4.705a.7.7 0 0 1 .492.2l2.953 2.96a.7.7 0 0 1 .2.492v8.884a1.391 1.391 0 0 1-1.386 1.392zm2.172-11.756L15.935.614A2.089 2.089 0 0 0 14.46 0H9.75a2.788 2.788 0 0 0-2.786 2.786v11.142a2.788 2.788 0 0 0 2.786 2.786h6.964a2.788 2.788 0 0 0 2.786-2.786V5.045a2.089 2.089 0 0 0-.614-1.476zm-16.1 2.006A2.788 2.788 0 0 0 0 8.357V19.5a2.788 2.788 0 0 0 2.786 2.786H9.75a2.788 2.788 0 0 0 2.786-2.786v-1.393h-1.393V19.5a1.391 1.391 0 0 1-1.393 1.392H2.786A1.391 1.391 0 0 1 1.393 19.5V8.357a1.391 1.391 0 0 1 1.393-1.393h2.785V5.571z" style="fill:rgba(255,255,255,.85)"/>
</svg>
