<svg xmlns="http://www.w3.org/2000/svg" xmlns:xlink="http://www.w3.org/1999/xlink" width="48" height="48" viewBox="0 0 48 48"><defs><clipPath id="b"><rect width="48" height="48"/></clipPath></defs><g id="a" clip-path="url(#b)"><path d="M14.266,35.664A11.885,11.885,0,0,1,2.378,23.776a13.84,13.84,0,0,1,1.36-5.015A51.608,51.608,0,0,1,7.2,12.312a111.253,111.253,0,0,1,7.021-9.934h.1a112.389,112.389,0,0,1,7.021,9.934A51.542,51.542,0,0,1,24.8,18.761a13.952,13.952,0,0,1,1.352,5.015A11.885,11.885,0,0,1,14.266,35.664ZM0,23.776a14.266,14.266,0,0,0,28.532,0C28.532,17,18.858,4.287,16.153.869A2.31,2.31,0,0,0,14.333,0H14.2a2.31,2.31,0,0,0-1.82.869C9.674,4.287,0,17,0,23.776Zm8.322,0a1.189,1.189,0,0,0-2.378,0A8.318,8.318,0,0,0,14.266,32.1a1.189,1.189,0,1,0,0-2.378A5.942,5.942,0,0,1,8.322,23.776Z" transform="translate(9.734 4.979)" fill="#4545ff"/></g></svg>