<svg xmlns="http://www.w3.org/2000/svg" width="452" height="322" viewBox="0 0 452 322"><rect x="-162.64" y="-159.57" width="431.47" height="758.66" transform="translate(-172.92 214.14) rotate(-74.99)" fill="none"/><path d="M268.59,271.05c-3.93-7.61-9.16-14.47-14.48-21.15h0a491.18,491.18,0,0,0-37.75-44.51c-4.85-4.57-10.56-7.91-16.27-11.26-4.83-3.3-9.55-6.77-14.46-9.94-21.55-14.08-42.9-28.49-65.69-40.54-10.67-6.31-21.29-13-33-17.14l.12,0-1.69-.71h0c-8.15-3.31-16.4-7.36-24.5-10.64C43.93,108.86,26.35,102.79,9,97.75h0c-15-4.67-30.78-5.4-46.4-6.4h0c-26.25-2.92-52.14.17-77.94,5.18-8.93,1.47-17.83,3.12-26.64,5.22-8.46,1.36-1.1,5.39,1.89,8.36a255.11,255.11,0,0,0,25.57,21.06c7.4,4.7,15.09,9,22.16,14.19,8.07,5.42,16.48,10.3,24.57,15.69,3,1.54,19.52,13.65,12.68,3a3,3,0,0,1,.67,0l-.12,0a11.41,11.41,0,0,1,3.18,1h0c2.85.26,31,17.48,28.41,11.22,1.65-.18,3.17.7,4.67,1.24h0A175.72,175.72,0,0,1,5.87,190a73.16,73.16,0,0,1,13.53,5.73c1,.16,17.44,10.11,14.22,6.33,2.55-.64,31.57,17.11,26.49,9.75a2.58,2.58,0,0,1,.39,0l-.13,0C71,215,80.24,223.24,91.12,224.93L91,225a2.41,2.41,0,0,1,1.1,0L92,225a11.49,11.49,0,0,1,2.37.76l-.12,0c1.42.17,27.06,13.95,20.94,7a4.18,4.18,0,0,1,.71.09l-.12,0c2.42-.38,25.18,9.81,22.66,5.31l.25,0h-.13c8.21,2.24,15.65,6.92,24,8.76,3.91-1,5.54-.58,9.45.74,6,1.84,11.71,4.49,17.75,6.14,1.21.28,2.84.49,3.59-.73,3.23-1.67,23.39,9.22,21.73,4a3.4,3.4,0,0,1,.78,0l-.13,0c6.56,1,12.33,6,19.11,5.06l-.13,0c6.06,1.38,11.85,3.84,18,4.92,4.52,1.74,9.67,2.19,13.89,4.5a.48.48,0,0,0,.66-.17h0c1-1.74-16.4-5.66-18.54-6.2-5.79-1-11.26-4.79-17.2-3.8h.13c-2.62.22-18.75-8.75-17.41-3.68a2.49,2.49,0,0,1-.61,0h.13c-5.36-.63-16.92-7.4-21.3-5l.08-.1a1,1,0,0,1-.56.43l.12-.05a2,2,0,0,1-.59.12h.12c-7.52-.42-22-10-28.54-7l.12,0a2.89,2.89,0,0,1-.66,0l.12,0c-2.75.53-28.31-12.73-25.15-7.47-5.91-1.56-11.65-3.71-17.48-5.56h0c-1.39-.41-8.42-2.81-5.27.81h0c-7.67-2.87-14.93-7.07-22.6-9.71a2.69,2.69,0,0,0-1.59.07A4.2,4.2,0,0,1,89,223.8c-3.09-1.13-6.16-2.51-9.13-3.94-1.65-.45-24.52-13.74-20.24-7.12h0c-6-2.35-11.64-5.46-17.46-8.21-3.33-1.55-6.77-3.62-10.52-3.72h0l-.15.06c-6.3-3.16-12.43-6.66-18.86-9.56-2.77-1.32-5.9-1.52-8.4-3.43C2,186.62-26,170.28-23.78,177c-1.8-.65-3.54-1.46-5.33-2.16l.08,0c-3.28-.36-34.34-20.24-25.41-7.34a2.29,2.29,0,0,1-.37-.12h0l-.08,0,.08,0c-21.74-12-42.11-26.49-63.07-39.78h0c-8.12-6.36-16.08-12.88-23.58-20-4.6-3.87-5.06-4,1.17-5.32h0c19.46-4.31,39.17-7.54,59-10.07h0c14.48-2,29-1,43.44,0h0l1.25.08h0c14.71,1,29.61,1.59,43.81,5.9h0a602.73,602.73,0,0,1,94.75,36.06c13.41,7.79,27,15.29,40.4,23.14,23.09,14,45.12,29.63,67.88,44.08h0a76.17,76.17,0,0,1,14.11,13.91c8.07,9,15.93,18.13,23.48,27.55l-.07-.1c5.09,7.16,11,13.75,15.63,21.21a58.14,58.14,0,0,1,4.43,7.44.48.48,0,0,0,.83-.48m-10.31-14.33-.07-.09.07.09m-25.13,5.34h0m-40.76-9.31-.09.07.09-.07m-48.91-13-.05,0,.05,0m-5.79-.94h0m-189-73.68h0m-76.34-45.19,0,0,0,0" fill="#161616"/><path d="M226.66,51.29c-1.48-2.62-8.92-3.87-11.86-5.59-1.05-.36-6.65-3.39-4.71-.23-4.18,1.13-26.55-6.91-26.23-2.82a5,5,0,0,1-2.18,0l.13,0c-1.46.47-36-8.16-26.83-3-.43,0-.86-.08-1.29-.14l.13,0C144.58,38,135.31,36.64,126,36c-1.92.17-6-1.26-7.28,0a3.5,3.5,0,0,1-1,.21l.12,0c-8.6.29-17.23-.11-25.85-.18-2.35,0-13.58-1-6.24,2.44a2.55,2.55,0,0,1-.72.4l.12,0c-11.51,2.65-23.58,1.17-35.24,2.89-3.17.53-6.81.25-9.23,2.49l.12,0c-9.87,2.91-20.39,3-30.38,5.46a7,7,0,0,0-3.67,2.19,28.66,28.66,0,0,1-7.89,2.38,213.57,213.57,0,0,0-31.34,6.75c-5.1,1.9-14,2-16.8,7l.07-.1a5.36,5.36,0,0,1-.79.72l.09-.08c-3.39,2.43-8,3-11.64,4.76C-69.27,76.72-78,78.87-86,81.29c-8.46,2.44-16.59,6-25.13,8.13-6.89,2-14,3.39-20.52,6.63-4.12,2-9.45,3.25-12,7.31-.4.43.24,1.12.69.67.27-.26.27-.67.51-1,2.6-2.48,5.85-3.94,9.14-5.27h0c8.77-4.38,18.48-6.11,27.78-9,13.52-5,27.54-8.4,41-13.37h0l.1,0h0c3.87-1.76,7.9-3.1,11.91-4.49h0a8.48,8.48,0,0,0,5-4.13l0,0,.18-.17,0,0,0,0h0c3.55-2.18,7.79-2.76,11.74-4,4.41-1.14,8.83-2.18,13.18-3.55h0c8.42-2.5,17.21-2.9,25.7-5,2-.56,4.1-1.19,5.46-2.84C13.59,49.2,19.38,49,24.69,48c3.24-.6,16.44-1.68,17.67-4h0a1.11,1.11,0,0,1,.42-.21h0a103.07,103.07,0,0,1,15.94-1.91c1.87-.42,36.4-.1,26.09-4.95h0c10.09,0,20.18.35,30.27.34,1.45-.17,3.41.32,4.51-.8,5.88.34,11.74.91,17.59,1.59,3.49.44,7.26,1,11,1.55,1.21.16,11.77,2.56,7.59-.6h0l0,0q7.78,1.34,15.56,2.83c3.39.65,6.81,1.3,10.23,1.79,1.3.14,3.31.57,3.4-1.19,2.53-1,28.1,7,26.17,2.81h0c.53.2,1.07.42,1.6.65l-.06,0c4.25,1.92,8.8,3.32,13,5.36l-.06-.06,0,0,0,0a.81.81,0,0,1,.14.12.53.53,0,0,1-.12.14h0c-8.78,5.88-16.25,13.63-25,19.46C189.85,78,178.64,85,167.25,91.15c-4.85,2.56-10.13,4.3-14.79,7.2-9.43,5.48-18.83,11.26-29,15.34q-8.67,3.18-17.47,6a193.68,193.68,0,0,1-20.7,6.17h0c-14.5,3.72-29.12,7.08-44.18,7-18.9,1-37.92.91-56.7-1.56-21.65-2.49-42.61-9.2-64.35-10.92-22.07-2.44-44.67-6.38-64.63-16.45-.49-.32-1.05.53-.49.83,4.43,3,9.64,4.23,14.6,6,21.74,8.43,45.15,9.3,67.93,12.86,27.7,5.81,55.6,11.36,84.05,10.81,11.86-.37,23.76-.45,35.57-1.6,9.69-1.25,19.1-3.87,28.59-6.09,13.57-3.29,26.76-8.07,39.86-12.86,9.47-4,18.33-9.43,27.21-14.6,24.5-11.65,48-25.66,68.41-43.62l-.07,0c1.72-1.57,4.51-2.25,5.56-4.41M42.39,43.91l0,.05,0-.05M27.86,46.64h0m-88.19,27-.05,0,.05,0m-81.65,29h0" fill="#161616"/><path d="M302.65,396.53c-2.69-7.44-7.57-13.93-12.16-20.33-6.21-8.79-12.76-17.34-19-26.08A93.5,93.5,0,0,0,258.08,334c-9.66-8.65-19.72-17-30-25-8.23-5.7-16.7-11.09-25.33-16.15-15.42-7.67-31.1-14.94-47-21.56-14.2-6-28.38-12-43.17-16.89-4.35-1.37-8.75-2.54-13.15-3.74-1-.33-3.69-1.11-2.57.93,1.73,1.87,2.67,4.27,4.28,6.22,2.35,3.08,3.92,6.76,6.25,9.87,3.81,5.73,8.31,11.1,12.28,16.77A150.85,150.85,0,0,0,132.8,299c7.17,7,14.19,14.25,21.65,21,6.67,5.76,14.13,10.49,21.27,15.62s14.29,10.65,21.76,15.51C211,360.3,225.1,368.8,240,375.52c15.37,8.51,31.09,16.54,48.52,20.19,2.43.85,18.7,3.62,11.09-.69a97.35,97.35,0,0,0-17.9-10.11c-8.43-4.09-16.4-9.14-24.34-14.07-14.17-8.58-28-18-41.8-27.16-6.2-4.12-13-7.77-19.11-12.18-8.23-5.54-17-10.64-24.72-16.81-5.25-3.76-10.78-7.22-15.73-11.29l0,0c-9.71-7.77-19.63-15.34-28.79-23.78-7.09-6.85-14.32-13.5-21.15-20.61-2.64-2.71-5.91-4.84-8.28-7.79,14.48,3.64,28.24,8.77,42,14.34l0,0c17.07,7.29,34.23,14.37,50.93,22.52a132,132,0,0,1,18,9.49c10.35,6.38,20.59,13,29.74,21,7.95,6.69,16.28,13,23.38,20.65a136.19,136.19,0,0,1,10.06,13.25c6.21,8.4,12.43,16.8,18.5,25.28,3.33,4.88,6.85,9.16,9.27,14.5.89,1.37,2,5.89,3,4.29" fill="#161616"/><path d="M52.49,342c-2.69-16.13-5.08-32.31-9.92-48C39.7,283,38.19,271.55,35,260.53c-2.81-10-4.39-20.18-6.3-30.33-2.81-12.3-6.36-24.43-10-36.5h0A453.68,453.68,0,0,0,2,148.69c-7.65-15.53-18.62-29.2-28.86-43.08h0c-3.72-4.6-7-9.58-10.57-14.26h0c-1.2-1.54-2.38-3.09-3.54-4.62l0,0c-13.34-18.66-27.56-37-42.54-54.44C-101.06,12.4-121.1-5.1-141.48-22c-11.58-10.41-23.22-20.71-35.86-29.82-9.32-8.59-19.37-16.24-30.88-21.65-.23-.33-.85-.35-.95.1s.18.51.39.69c4.77,2.56,9.61,5,14.17,8,9.67,6.83,18,15.45,27.85,22l-.1-.08C-147.3-25.76-127.13-9.35-108.2,8.43c17.32,15.72,32.12,33.84,46.53,52.19h0l0,0h0c2.62,3.2,5.07,6.53,7.6,9.78h0c5.43,7.13,10.36,14.63,16,21.64h0l.14.18h0c3.39,4.4,6.46,9.11,9.93,13.45h0c10.3,13.88,21.26,27.6,29,43.11,12.75,30.34,23.51,61.93,29,94.45,2.37,12.37,6.31,24.37,8.48,36.77,2,11.24,5.7,22.05,8.06,33.2,2,9.61,3.3,19.35,5,29,.13.56,1.11.38.92-.25M-208.16-73.49l-.06,0,.06,0m-.1-.05,0,0,0,0" fill="#161616"/><path d="M436.81,253.37a108.32,108.32,0,0,0-11.67-13.63c10.42,2.73-21.14-25.38-22.93-26.9,1-1.85-3.91-5.26-5.06-6.77a163.59,163.59,0,0,0-20.56-16.75l.1.08c-.15-.11-.3-.22-.44-.34,4.5-3.53-24.29-19.83-27.85-21.76,11.33.48-26.49-16.16-28.08-16.82,11.08-1.38-22.29-10.59-24-11.35,3.58-3.33-24.39-9.3-27.24-10.78,10.32-2.5-17.86-7.85-19.74-9.34,4.29-3-17.55-4.17-19.41-4.69l.13,0a12,12,0,0,1-3.14-.66l.12,0a2.14,2.14,0,0,1-.52-.32.76.76,0,0,1,.11-.14l-.08.09c4.08-3.49-1.69-3.19-4.15-3.35-4.91-.51-10.16.2-14.83-1.63.7-3.69-15.22-.8-18-1.77-1.92-.11.42-1.83-.69-2.65-4.71-.09-9.5,2.26-14.34,2.37,3.48-4.59-6.11-.19-7.75,0-7.33,2.3-14.79,4.24-21.9,7.18h0l-.12,0h0c-.58.39-2.81.6-1.89,1.59,1,.1,1.95-.72,2.91-1l-.08,0c9.29-3.54,18.89-6.2,28.41-9-4,4.86,11.76-.42,13.54-.41h-.12a4.62,4.62,0,0,1,.65-.05c-3.37,5.6,14.42,1.59,17.32,3h0a5.15,5.15,0,0,1,1.23.24c-.12,4,16.82,2.2,20.32,3.43a1.61,1.61,0,0,1-.21.3l.07-.09c-4.68,4.21,5.41,3.62,7.77,4.23a108.17,108.17,0,0,1,14.16,2.39c-3,1.6,3.8,2.74,4.83,3.22,5.63,1.64,11.37,3.08,16.74,5.44L270,127l.12,0c-8.25,1.86,5.11,3.9,7.26,4.83,6.14,2,12.65,3.37,18.31,6.54-4.21,1.55,7.4,3.56,8.47,4.21,5.86,1.95,11.82,3.82,17.28,6.74-7.36,1.2,5,4.49,6.69,5.68a158.58,158.58,0,0,1,21.14,11.36l-.1-.08a1.33,1.33,0,0,1,.19.14c-9.23-1.1,6.56,5.8,8,7.22,6.68,4.07,13.63,8.35,18.67,14.4-3.21.68,1,2.61,2,3.59a135.5,135.5,0,0,1,23,20l-.08-.09.17.22c-2.1-.75-.25,1.55.53,2,8.51,8.07,18.09,15.44,24.61,25.3a.61.61,0,0,1-.05-.12c0,.1.08.19.11.29-8.09-3.54.27,3.12,1.94,5.21,1.36.78,8,11.41,8.5,9m-115-103.79h0M295.7,138.35h0m-68.57-26.91h0m-20.45-3.51h0m-18.57-3,0,0,0,0m.07-.34Zm-43.44,9,.07,0-.07,0m176.84,37.53.12,0-.12,0" fill="#161616"/><path d="M436.5,252.35c-.48-1.1-2.46,0-3.46-.1a44.53,44.53,0,0,1-7.66,0c-2.94.3-19.55-3.3-9,1.64a5.49,5.49,0,0,1-.91-.06h.12c-6-1-12-2.17-17.86-3.68-2.74-.53-13.83-4.67-6.82,1.3-5.66-.82-11.2-2.61-16.72-4.14-1.36,0-10.14-4.51-8.25-1a4.38,4.38,0,0,1-.51,0h.13c-5.61-1.12-11.33-2.67-16.83-4.3-1.75-.1-12.78-5.57-11.39-1.62a1.77,1.77,0,0,1-.67.19l.12,0c-12.31-.21-23.61-6.5-36-6.21h.05c-16.89-2.69-33.27-7.89-49-14.44-1.25-.1-11.61-5.06-9.45-2.41,16.44,6.21,32.71,12.77,50,16.3,3,.65,6,1.22,9.1,1.59,4.76.3,9.41.3,14,2,2.86.49,23.92,7.29,22.73,2.51a3.66,3.66,0,0,1,.57.05l-.13,0c2.24,0,30.89,10.77,28.2,6,2.13.52,33.73,11.69,22.91,3.18,1.75.38,36,9.81,25.95,3.27,5.44.26,16.33,2.29,20.82,0m-46.33-.94-.1,0,.1,0m-.37-2.33h0" fill="#161616"/><path d="M131.28,246.17c-1.29-5.6-6.7-9-10.1-13.37-10.1-12.22-21.94-22.89-33.56-33.64-11-9.48-24.9-14.88-36.9-23C35.15,166,19.81,155.35,3.81,145.85c-8.14-4.62-17.29-6.95-25.81-10.73h0c-27.81-11.92-58.17-15.67-87.43-22.5-5-1.49-10.22-1.8-15.27-2.88-4.76-1.31-9.84-2.52-14.52-4.07,9.32.28,18.56,1.75,27.86,2.11,15.2.45,30.37-.38,45.56-1,13.17.21,26.41,1,39.55-.25,12.44-2,24.69-5.18,36.87-8.28h0c5.15-1.64,10.22-3.63,15.42-5.11,4.05-1.2,8.19-2,12.26-3.19,7.88-2.4,15.32-6.1,23.17-8.6,4.53-1.56,8.94-3.47,13.41-5.22,1.61-1.14,15.39-3.45,10.35-5.35C76.1,66,65.67,66.83,55.73,66.27c-6.11-.5-12.14-2.32-18.17-3.53-3.38-.55-7.2-1.42-10.45-2.15-9.61-2.71-15.51.3-24.75.46A143.62,143.62,0,0,1-14.73,60c-19.4-2.3-40-5.2-58.32,3.56-10.4,4.37-20.13,10.26-30.74,14.1-5.7,2.21-11,5.33-16.45,8.08-5.33,1.51-9.19,5.47-13.41,8.81l0,0-.06,0a.05.05,0,0,0,0,0l-.06,0h0c-3,2.22-5.38,5.23-8.07,7.82l.12,0c-1,.43-2.2.36-3.24.74a.49.49,0,0,0-.62.29h0c-5.82,5.46-1.28,23.82-.2,31.28,1.71,9,2.88,18,4.13,27v0a522.49,522.49,0,0,0,9.69,66.56c4.46,17.79,10.41,35.17,16,52.64,3.9,10.73,10.44,20.23,15,30.65,5.54,13.89,14,26.23,20.73,39.54,12,25.13,25.1,50.25,46.65,68.53.36.38.94.8,1.31.3a2,2,0,0,0,0-1.34c-1.79-8.13-3.95-16.17-5.85-24.27-4.12-19.15-11.16-37.49-18.21-55.71C-64.65,314.93-74.5,291.84-82.39,268c-8.54-22.27-14.07-45.55-22.21-68-6-19.65-14.85-38.19-22.88-57.06h0c-1.74-4.53-4.74-8.41-6.62-12.87-2.65-5.54-4.83-11.45-8.65-16.31h0c-1.82-2.48-3.87-5.18-3.19-8.44a.56.56,0,0,1,.35-.15c.68.47,1.11-.69.35-.9l.31-.16c.62.35,1.24.68,1.88,1-.4,1.13,1.62,1.42,2.27,2,6.66,3.37,13.14,7.08,20,10,11.51,5.26,22.82,10.94,34.34,16.19,10,5,19.22,11.42,28.54,17.52,7.51,5.2,15.9,9,23.39,14.18,14.61,10.37,30.39,18.75,46.64,26.22,11,6.55,22.5,11.94,33.72,18A121.47,121.47,0,0,0,73,221.68c7.08,3.48,13.65,7.9,21.07,10.71,8.46,3.87,17.61,5.76,26.32,8.87,3,.64,8.77,6.57,10.91,4.91m-1.09-.62s0,0,0,0h0c-11.65-7.79-25.93-9.13-38.41-15.24-5.73-2.21-10.81-5.66-16.23-8.47-4.23-2.27-8.95-3.32-13.37-5.14-10.54-4.61-20-11.41-30.58-15.91-4.42-2.08-8.71-4.61-13-7.13h0C7.34,187.1-5,182.55-16.2,175.66c-19.64-13-40.13-24.6-59.67-37.73-20.71-11.68-43.14-20.06-64-31.47,5.05,1.7,10.27,2.91,15.4,4.34,4.53.93,9.23,1.12,13.7,2.5,29.86,7,60.89,10.77,89.25,23h0c7.13,3.19,14.75,5.21,21.74,8.71h0c12.58,6.54,23.63,15,35.8,22.47C44.53,173.15,52.93,179,61.87,184c7.37,4.49,15.33,8.12,22.18,13.42,4.74,3.82,9.1,8.12,13.51,12.31,7.79,7.46,15.74,14.87,22.5,23.22h0c3.31,4.25,8.08,7.46,10.14,12.6v0s0,0,0,0M-135.36,97.19c2.67-2.31,5.47-4.41,8.2-6.78,2.42-2.18,5.62-3,8.53-4.4,3.44-2,7-3.72,10.58-5.48,4.18-2.19,8.85-3.26,13-5.46,10.89-5.25,21.65-11.26,33.37-14.45h0C-40.28,54.81-18.39,62.44,3.27,62c4.7.05,9.36-1.35,14.05-1.67,11.06.58,22,4.25,32.78,6.1,11.59,2.2,24.17-.51,35,5.3h0C77.42,74.14,69.92,77,62.54,79.94,54.78,82.43,47,86.08,39.21,88.65,34.9,90,30.43,90.83,26.12,92.1,20.31,93.74,14.72,96,9,97.75h0c-.59.19-1.19.33-1.79.49h0c-11.21,2.42-22.48,5.86-34,7.37h0l-1.11.12h0c-15.53,1.41-31.18-.56-46.69.46-7.87.19-15.47.87-23.39.86-3.67-.12-7.44-.3-11.12-.24-10.91,0-21.66-2.16-32.59-2.14-.64-.3-1.28-.57-1.89-.91,1-.21,2.24-.2,3-1h0a4.44,4.44,0,0,0,.38-.37h0c1.27-1.53,2.71-2.9,4.09-4.32h0c.28-.27.56-.55.85-.81m-6.74,19c4.73,7.83,7.75,16.64,12.58,24.43,4.81,11.13,9.46,22.15,14.55,33.28,9.71,25.34,17.88,51.28,25.57,77.29,2.6,8.16,5.89,16.14,8.65,24.24,3.9,11.44,8,23,12.65,34.17,3.77,9.14,7.06,18.46,10.39,27.76,2.52,6.72,5.32,13.37,7.61,20.18,2.1,6.42,4.61,12.75,6.6,19.21,2.15,7,3.65,14.26,5.39,21.41,1.7,6.78,3.41,13.57,4.94,20.39h0c-3.54-3.55-7.4-6.93-10.93-10.55-6-7.17-12-14.2-16.76-22.2C-70.77,369.43-78,351.6-87.81,335.14c-2.46-4.29-5.59-9.44-7.68-13.88-2.61-5.59-5-11.31-7.78-16.82-3.12-6.26-6.85-12.28-9.69-18.69A139.55,139.55,0,0,1-118.78,269c-4.18-14-9.19-27.77-12.45-42-1.41-5.85-2.26-11.81-3.29-17.74-2-12.4-4.3-24.79-5.23-37.35-.69-11.24-2.57-22.22-4.26-33.19-1.68-10.05-4.43-20.17-2.89-30.44v0c.54,2.49,2.22,4.38,3.67,6.46h0l0-.06c.38.51.77,1,1.14,1.54m87.9-57.18h0m-88.17,96.81v0" fill="#161616"/><path d="M137.25,194.21a.59.59,0,0,0-.73.42.6.6,0,0,0,1.16.32.61.61,0,0,0-.43-.74h0" fill="#fefefe"/><path d="M120,232.93h0c-6.75-8.35-14.7-15.76-22.49-23.22-4.41-4.18-8.77-8.49-13.51-12.3-6.85-5.31-14.8-8.93-22.18-13.42-8.94-5-17.34-10.83-25.86-16.48C23.83,160.06,12.78,151.58.2,145a145.13,145.13,0,0,1,6.52,15.24c4.45,10.94,8.54,22.12,11.92,33.42,4.26,2.53,8.54,5,13,7.13,3.75.1,7.18,2.16,10.52,3.71,5.82,2.76,11.45,5.87,17.46,8.21-4.32-6.66,18.64,6.68,20.26,7.12,3,1.42,6,2.81,9.12,3.94a4.24,4.24,0,0,0,1.61.32,2.7,2.7,0,0,1,1.59-.07c7.67,2.64,14.93,6.84,22.6,9.71-3.12-3.64,3.86-1.23,5.28-.83h0" fill="#fefefe"/><path d="M14.88,108.73a.6.6,0,0,0-.73.43.59.59,0,0,0,.42.73.6.6,0,0,0,.74-.42.62.62,0,0,0-.43-.74" fill="#fefefe"/><path d="M85.11,71.72h0C74.25,65.9,61.64,68.63,50,66.41c-10.74-1.83-22-5.64-32.92-6.07-5.47.53-10.89,2-16.41,1.66-8.52-.11-17.15-1.31-25.54-2.17-7.44,2.44-15.6,3.18-22.57,6.83l.05,0-.18.16,0,0a8.58,8.58,0,0,1-5,4.13C-48.4,76.33-45,81.49-41,86.8l-.06-.11c1.14,1.53,2.37,3.12,3.58,4.67,15.62,1,31.36,1.73,46.39,6.4,5.78-1.75,11.37-4,17.17-5.64,4.32-1.28,8.79-2.14,13.1-3.45C47,86.09,54.78,82.44,62.53,80c7.39-2.94,14.88-5.8,22.58-8.23h0" fill="#fefefe"/><path d="M7.14,98.25h0c-14.2-4.31-29.1-4.93-43.81-5.9,3.29,4.41,6.34,9,9.8,13.27,11.53-1.51,22.79-5,34-7.36Z" fill="#fefefe"/><path d="M225.68,51.22a.86.86,0,0,0-.14-.13l.08.09c-4.17-2.07-8.76-3.45-13-5.38l.11.07c-.53-.26-1.1-.48-1.65-.69,1.94,4.24-23.61-3.78-26.18-2.8-.08,1.74-2.12,1.35-3.4,1.2-3.41-.5-6.84-1.14-10.23-1.8-5.18-1-10.36-1.94-15.56-2.83,4.2,3.2-6.42.77-7.59.62-3.7-.58-7.46-1.11-11-1.55-5.84-.69-11.71-1.25-17.58-1.6-.89,1-2.52.66-3.75.78-10.34.08-20.69-.35-31-.31,11.14,5.12-29,4.53-30.92,5.29a81.5,81.5,0,0,0-11.1,1.58c-.47.05-.55.55-.86.8-2.1,1.21-4.85,1.45-7.27,2-8.56,1.69-17.81,1.79-26,4.72C7.21,53,4.94,53.64,2.86,54.2c-8.39,2-17.06,2.47-25.38,4.93,8.43.89,16.47,2,24.88,1.92,6.49.26,13-2.54,19.46-1.37,11.3,1.7,22.55,5.22,33.91,6.59,9.32.64,19.17-.36,27.85,3.78,6.59,2.12-.19,3.18-3,4.19-4.74,1.24-9.47,3.45-14.08,5.21C57,82.7,47.82,86.77,38.3,89.92c-4.06,1.14-8.21,2-12.26,3.2-5.2,1.48-10.26,3.47-15.41,5.1,6.55,2,13.2,3.87,19.69,6.11,9.9,3.82,20.79,6.9,30.5,10.89,8.1,3.28,16.35,7.33,24.5,10.64A189.34,189.34,0,0,0,106,119.69c5.85-1.88,11.69-3.88,17.46-6,10-4,19.25-9.71,28.56-15.08,4.76-3,10.21-4.83,15.2-7.46,11.22-6.07,22.31-13,32.88-20.06,9-5.91,16.66-13.8,25.56-19.86" fill="#fefefe"/><path d="M409.94,244.7c.05-.86-.89-1.46-1.37-2.09-1.77-2-3.54-4-5.3-5.94-4.64-5.34-10.26-9.7-15.5-14.41-5.09-4.57-9.87-9.44-15-13.91-6-5-12.43-9.78-18.65-14.55-15.19-12.15-32.29-21.79-49.34-31.08-18.53-9.5-37.83-16-57.5-23.05-13.19-4.83-26.79-8.47-40.37-12a347.14,347.14,0,0,0-53.1-9.85C135.61,116,117.32,114.9,99.11,114c-6.73-.13-13.54-.15-20.27.13-4.83.21-9.68.73-14.51.91-7.42.35-14.9-.24-22.32-.3-8.42-.16-16.87.41-25.27.92a202.69,202.69,0,0,1-23.25.44c-4.21.19-12-.74-11.16.89a1.87,1.87,0,0,0-.39.22c-.65-.53-1.13.49-.52.91.07.56.47,1.54,1.1,1,4.82,4,10.59,6.3,16,9.34,16.21,8.25,33.65,13.45,50.91,19,15.21,4.83,30.59,9,45.71,14.18,12.86,4,25.81,7.88,38.3,13,39.7,15.65,79.75,30.65,121.12,41.32,8.88,2.44,17.81,4.48,26.72,6.56,8.48,2,17,4.27,25.64,5.37,22.64,3.38,44.75,10.11,67.72,11.3,7.78.61,15.65.54,23.24,2.67,3.55,1,6.9,1.88,10.44,3.21.58.21,1.43.37,1.64-.36m-42.21-39.16h0l-.84-.66.84.66h0Z" fill="#d9ffde"/><path d="M73.78,294.29c.13-.5-.42-.72-.82-.55a38.7,38.7,0,0,0-3-10.65c-2.65-6.57-5.4-13.2-8.54-19.56-4.66-8.37-10.72-15.9-15.86-23.93-7.29-10.49-14-21.72-23.67-30.21-10.13-8.19-20-16.8-30.53-24.46-6.44-4.18-13.56-7.19-20.31-10.82-10.13-5.38-20.17-10.93-30.6-15.73a129.08,129.08,0,0,0-35.8-10.94c-3.68-.29-17.6-4.58-11.29,3.18C-103,155-98.85,158.91-94.9,163c9.56,9.09,18.93,18.41,28.17,27.83,7.28,6.8,14.65,13.52,21.16,21.1,12,12.23,24.52,24,37.31,35.34,10.86,9.53,21.53,19.39,33.51,27.48a119.82,119.82,0,0,0,21.77,12c7.15,3.32,14.5,6.31,22.27,7.73a.47.47,0,0,0-.48.47h0c.47,1.1,2.12,0,3.3,0a.48.48,0,0,0,.94-.21c.29,0,.66-.07.74-.42M33.05,223.16l.07.1-.75-1,.68.91Z" fill="#fdd9ff"/><path d="M76.1,228.31c-3.3-.92-4.68,4.25-1.37,5.1s4.68-4.24,1.37-5.1" fill="#161616"/><path d="M86.28,210.1c-3.3-.91-4.68,4.25-1.37,5.11s4.68-4.25,1.37-5.11" fill="#161616"/><path d="M18.73,174c-3.3-.91-4.68,4.25-1.37,5.11S22,174.88,18.73,174" fill="#161616"/><path d="M110.26,14.74C82.55,7.24,52,9.67,24.09,16.91c-11,2.93-21.58,7-32.59,9.73-8.68,2.58-17.73,3.86-26.2,7.14l.16-.05c-20.64,7.26-39.82,18-58.77,28.78A99.58,99.58,0,0,0-106,71.09c-4.51,3.53-9,7.17-13.7,10.44-7,5-13.32,10.82-20.21,16.06-1.82,2-7.8,4.22-6.45,6.65,2.14,2,5.35,2.42,8.1,3.13,7.43,1.39,15,1.13,22.52,1,15.12.47,30.12-2.64,44.88-5.33C-47.09,98.9-22.56,97.29.35,89.27,24.43,80.91,46.48,67.63,68.8,55.58c9.34-4.78,17.41-11.85,25-19.09,4.27-4.55,7.52-9.87,11.57-14.57,1.77-2,6.24-5.49,4.48-6.5a.58.58,0,0,0,.38-.68" fill="#161616"/><path d="M400.48,273.63a.66.66,0,0,0-.47-.8.5.5,0,0,0-.21,0c1.25-.63-2.2-4.57-2.61-5.44a122.17,122.17,0,0,0-8.76-10.12c-5.71-5.51-11.33-11.29-17.54-16.19-8.23-6.33-17-12.33-24.94-18.76-26.18-21.8-61.15-26.24-93.95-29.66-8.48-1.22-5.09,1-.9,5.06,4.79,4.63,9.68,9.18,14.71,13.54,11.32,9.87,22.73,20.34,35.54,28.41C311.77,246,321.8,253.08,333,258c8.23,3.76,17.24,5.81,25.91,8.21,9.93,2.84,20,5.4,30.31,6l-.05,0c3,0,9.23,3.25,11.36,1.43" fill="#161616"/></svg>