<svg xmlns="http://www.w3.org/2000/svg" xmlns:xlink="http://www.w3.org/1999/xlink" width="213" height="63" viewBox="0 0 213 63"><defs><clipPath id="a"><rect width="211.302" height="61.261" fill="#4545ff"/></clipPath><clipPath id="c"><rect width="213" height="63"/></clipPath></defs><g id="b" clip-path="url(#c)"><rect width="213" height="63" fill="#fff"/><g transform="translate(1.001 0.999)" clip-path="url(#a)"><path d="M7.961,42.767V23.645H0V14.56H7.961V3.744L18.515,2.619V14.56H30.285v9.084H18.43V42.767c0,4.068,2.164,6.059,5.538,6.059a12.394,12.394,0,0,0,5.1-1.3l2.944,9a22.628,22.628,0,0,1-9.605,1.817c-8.827,0-14.45-5.191-14.45-15.575" transform="translate(0 2.571)" fill="#4545ff"/><path d="M18.284,31.661V8.646H28.841V31.574c0,6.489,3.549,11.422,10.3,11.422,6.576,0,10.9-5.451,10.9-11.941V8.646H60.51V51.562H51.079L50.385,46.2c-4.412,4.412-8.478,6.4-14.45,6.4-10.123,0-17.652-7.787-17.652-20.939" transform="translate(17.943 8.485)" fill="#4545ff"/><rect width="10.469" height="60.046" transform="translate(88.151)" fill="#4545ff"/><path d="M53.011,45.674,58.2,38.147c4.155,4.327,10.21,5.97,15.056,5.97,3.9,0,7.355-1.643,7.355-4.674,0-2.853-2.336-4.5-8.48-4.844-7.959-.691-17.652-3.547-17.652-13.237,0-9.95,10.212-13.239,18-13.239,6.661,0,11.682,1.3,16.613,5.538l-5.885,6.923a14.744,14.744,0,0,0-10.556-3.808c-5.1,0-7.787,1.557-7.787,4.24,0,2.768,2.683,4.325,7.961,4.672,8.048.434,18.256,2.423,18.256,13.586,0,7.527-6.229,14.018-18.343,14.018-6.836,0-13.412-1.127-19.728-7.616" transform="translate(52.021 7.971)" fill="#4545ff"/><rect width="10.555" height="42.916" transform="translate(149.515 17.133)" fill="#4545ff"/><path d="M84.069,30.576c0-12.2,8.652-22.411,22.236-22.411,13.671,0,22.5,10.212,22.5,22.411,0,12.461-8.48,22.5-22.411,22.5s-22.324-10.035-22.324-22.5m33.918,0c0-6.4-4.5-12.633-11.595-12.633-7.614,0-11.595,6.231-11.595,12.633s3.9,12.633,11.595,12.633,11.595-6.231,11.595-12.633" transform="translate(82.499 8.013)" fill="#4545ff"/></g></g></svg>