<?xml version="1.0" encoding="UTF-8"?><svg id="a" xmlns="http://www.w3.org/2000/svg" width="75.14mm" height="22.22mm" viewBox="0 0 213 63"><g id="b"><g><path d="m8.96,46.34v-19.12H1v-9.09h7.96V7.31l10.55-1.12v11.94h11.77v9.08h-11.85v19.12c0,4.07,2.16,6.06,5.54,6.06,1.77-.06,3.51-.51,5.1-1.3l2.94,9c-3.03,1.3-6.31,1.92-9.6,1.82-8.83,0-14.45-5.19-14.45-15.58" fill="#4545ff"/><path d="m37.23,41.14v-23.01h10.56v22.93c0,6.49,3.55,11.42,10.3,11.42s10.9-5.45,10.9-11.94v-22.41h10.47v42.92h-9.43l-.69-5.36c-4.41,4.41-8.48,6.4-14.45,6.4-10.12,0-17.65-7.79-17.65-20.94" fill="#4545ff"/><rect x="89.15" y="1" width="10.47" height="60.05" fill="#4545ff"/><path d="m106.03,54.64l5.19-7.53c4.15,4.33,10.21,5.97,15.06,5.97,3.9,0,7.36-1.64,7.36-4.67,0-2.85-2.34-4.5-8.48-4.84-7.96-.69-17.65-3.55-17.65-13.24s10.21-13.24,18-13.24c6.66,0,11.68,1.3,16.61,5.54l-5.89,6.92c-2.88-2.61-6.67-3.98-10.56-3.81-5.1,0-7.79,1.56-7.79,4.24s2.68,4.33,7.96,4.67c8.05.43,18.26,2.42,18.26,13.59,0,7.53-6.23,14.02-18.34,14.02-6.84,0-13.41-1.13-19.73-7.62" fill="#4545ff"/><rect x="150.52" y="18.13" width="10.56" height="42.92" fill="#4545ff"/><path d="m167.57,39.59c0-12.2,8.65-22.41,22.24-22.41s22.5,10.21,22.5,22.41-8.48,22.5-22.41,22.5-22.32-10.03-22.32-22.5m33.92,0c0-6.4-4.5-12.63-11.6-12.63-7.61,0-11.6,6.23-11.6,12.63s3.9,12.63,11.6,12.63,11.6-6.23,11.6-12.63" fill="#4545ff"/></g></g></svg>