<?xml version="1.0" encoding="UTF-8"?><svg id="Vrstva_1" xmlns="http://www.w3.org/2000/svg" width="16.93mm" height="16.93mm" viewBox="0 0 48 48"><path d="m11.51,11.93c-.38-.62-1.07-1.01-1.81-1.01s-1.43.39-1.81,1.02L1.06,23.18c-.57.93-.87,2-.87,3.09v.12c0,3.94,4.26,7.14,9.52,7.14s9.52-3.2,9.52-7.14v-.12c0-1.09-.3-2.16-.87-3.09l-6.84-11.24Zm-1.81,1.61l6.37,10.46H3.33l6.37-10.46Zm5.3,15.99h0c-1.27.95-3.14,1.61-5.3,1.61s-4.03-.66-5.3-1.61c-1.27-.95-1.84-2.09-1.84-3.15h14.28c0,1.06-.57,2.19-1.84,3.15Z" fill="#4545ff" stroke-width="0"/><path d="m46.9,32.68l-6.84-11.24c-.39-.63-1.07-1.02-1.81-1.02s-1.43.39-1.81,1.02l-6.84,11.24c-.57.94-.87,2.01-.87,3.09v.12c0,3.94,4.26,7.14,9.52,7.14s9.52-3.2,9.52-7.14v-.12c0-1.09-.3-2.16-.87-3.09Zm-8.65-9.63l6.37,10.46h-12.74l6.37-10.46Zm5.3,15.99c-1.27.95-3.14,1.61-5.3,1.61s-4.03-.66-5.3-1.61c-1.27-.95-1.84-2.09-1.84-3.15h14.28c0,1.06-.57,2.19-1.84,3.15Z" fill="#4545ff" stroke-width="0"/><path d="m39.4,15.67c.01-.52-.36-.97-.86-1.14l-10.09-3.36c.15-.46.22-.95.22-1.46,0-2.33-1.78-4.39-4.09-4.7s-4.45,1.1-5.17,3.15l-9.4-3.14c-.75-.25-1.56.29-1.57,1.15,0,.51.37.95.86,1.12l9.93,3.32c.34,1.81,1.72,3.26,3.49,3.72v25.13c0,.66.53,1.19,1.19,1.19h0c.66,0,1.19-.53,1.19-1.19V14.34c.77-.19,1.46-.58,2.02-1.09l10.69,3.56c.74.25,1.55-.27,1.57-1.13Zm-15.48-3.57c-1.31,0-2.38-1.07-2.38-2.38s1.07-2.38,2.38-2.38,2.38,1.07,2.38,2.38-1.07,2.38-2.38,2.38Z" fill="#4545ff" stroke-width="0"/></svg>