<svg xmlns="http://www.w3.org/2000/svg" width="486" height="217" viewBox="0 0 486 217"><path d="M362.46,156.59a1.79,1.79,0,0,0,3.57-.33,1.79,1.79,0,0,0-3.57.33" fill="#161616"/><path d="M371.48,131.48a1.79,1.79,0,0,0,3.57-.33,1.79,1.79,0,0,0-3.57.33" fill="#161616"/><path d="M361.33,112.14a1.79,1.79,0,0,0,3.57-.33,1.79,1.79,0,0,0-3.57.33" fill="#161616"/><path d="M382.1,151.87a1.79,1.79,0,0,0,3.57-.34,1.79,1.79,0,0,0-3.57.34" fill="#161616"/><path d="M391.88,123.43a1.79,1.79,0,0,0,3.57-.33,1.79,1.79,0,0,0-3.57.33" fill="#161616"/><path d="M377.22,102.88a1.79,1.79,0,0,0,3.57-.34,1.79,1.79,0,0,0-3.57.34" fill="#161616"/><path d="M387.11,135.8c.19,2.31,3.81,2,3.57-.34a1.79,1.79,0,0,0-3.57.34" fill="#161616"/><path d="M363.24,147.07a1.79,1.79,0,0,0,3.57-.33,1.79,1.79,0,0,0-3.57.33" fill="#161616"/><path d="M426.54,163c.19,2.31,3.81,2,3.57-.34a1.79,1.79,0,0,0-3.57.34" fill="#161616"/><path d="M398.49,136.06a1.79,1.79,0,0,0,3.57-.33,1.79,1.79,0,0,0-3.57.33" fill="#161616"/><path d="M201.88,130a90,90,0,0,0-10,14.21h0a334.94,334.94,0,0,0-19.39,34.54c-1.76,4.17-2.53,8.58-3.32,13-.95,3.86-2,7.68-2.9,11.55-3.86,17-8,34-10.26,51.37-1.5,8.29-3.22,16.62-3.09,25.08v-.09c0,.42,0,.83,0,1.25h0c-.18,6-.81,12.17-1,18.1-.06,12.24.24,24.86,1.14,37.12h0c.58,10.67,3.84,20.86,6.9,31h0c4.35,17.39,12.43,33.14,21.72,48.37,3.05,5.33,6.2,10.6,9.62,15.71,2.86,5.06,3.69-.57,4.87-3.18a171.39,171.39,0,0,0,7.35-21.24c1.25-5.82,2.15-11.73,3.79-17.45,1.55-6.42,2.66-12.93,4.18-19.35.26-2.27,4.07-15.64-1.07-8.78a3.26,3.26,0,0,1-.15-.44l0,.09a7.81,7.81,0,0,1-.12-2.26h0v0h0c-.51-1.88,3.8-23.85.42-20.73a7.34,7.34,0,0,1-.32-3.27h0a119.93,119.93,0,0,1,2.19-18.32,48.91,48.91,0,0,1,.45-10c-.14-.67,2.31-13.48.66-10.54-1-1.47,3.43-24.13-.06-19.16l-.07-.25,0,.08c-.51-7.5,2.58-15.34,1.08-22.67a.3.3,0,0,1,0,.08,1.65,1.65,0,0,1-.23-.71.29.29,0,0,0,0,.09,7.37,7.37,0,0,1-.08-1.69v.09c-.23-1,2.48-20.52-.47-15a2.77,2.77,0,0,1-.11-.48.29.29,0,0,0,0,.09c-.82-1.45.29-18.34-2-15.68a.94.94,0,0,1,0-.16l0,.08c-.52-5.75.7-11.59-.11-17.35-1.55-2.26-1.68-3.39-1.76-6.18-.24-4.25.09-8.52-.29-12.75-.11-.84-.36-1.93-1.32-2.12-1.82-1.65.34-17.06-2.61-14.76a2.24,2.24,0,0,1-.16-.5.19.19,0,0,0,0,.08c-.89-4.41.88-9.25-1.3-13.34l0,.08c-.56-4.18-.36-8.45-1.13-12.62,0-3.29-.9-6.67-.42-9.9a.33.33,0,0,0-.26-.38h0c-1.35-.23.27,11.77.43,13.26.76,3.91-.38,8.29,1.65,11.84a.24.24,0,0,1,0-.08c.76,1.61-1.14,14,1.77,11.95a1.32,1.32,0,0,1,.13.38s0-.05,0-.08c.86,3.56-.71,12.52,1.85,14.73l-.08,0a.71.71,0,0,1,.41.25l-.06-.06a1.2,1.2,0,0,1,.21.34.25.25,0,0,0,0-.07c1.52,4.89-1.14,16.34,2.28,19.82l0-.07a1.53,1.53,0,0,1,.13.43.29.29,0,0,0,0-.09c1,1.63-1.4,21,1.2,17.77.4,4.13.39,8.29.59,12.43h0c.07,1,.21,6,1.76,3.16h0c0,5.56-1,11.17-.83,16.68a1.76,1.76,0,0,0,.42,1,3,3,0,0,1,.18,1.1c0,2.23-.15,4.51-.35,6.74.1,1.15-2.95,18.85.25,14.56h0c-.07,4.38-.72,8.7-1.1,13.05-.2,2.49-.7,5.17.13,7.58h0a.31.31,0,0,0,.07.09c-.52,4.75-1.3,9.48-1.62,14.26-.19,2.07.43,4.11-.19,6.15-.3,1.68-4.08,23.35-.32,20.36,0,1.29-.09,2.6-.12,3.89a.43.43,0,0,0,0-.05c.54,2.17-4.77,26.63,1.34,17.9a2.25,2.25,0,0,1,0,.26h0v0h0s0,0,0,.07v-.06c-2.5,16.67-6.9,33.05-10.4,49.53h0c-2.12,6.67-4.39,13.28-7.12,19.72-1.38,3.84-1.37,4.17-3.66.52h0c-7.35-11.36-14.06-23.14-20.35-35.13v0c-4.69-8.74-7.48-18.2-10.26-27.64h0l-.24-.81h0c-2.86-9.59-6-19.21-6.61-29.27h0a409.5,409.5,0,0,1,.55-68.8c1.79-10.37,3.33-20.81,5.17-31.18,3.43-18,8.19-35.71,12-53.6h0A51.18,51.18,0,0,1,177,171.3c3.8-7.26,7.77-14.43,12-21.46l0,.07c3.35-4.93,6.15-10.22,9.8-15a39.35,39.35,0,0,1,3.68-4.57.33.33,0,0,0-.5-.42m-6.68,9.95,0,.06,0-.06m9.34,14.72v0s0,0,0,0m3.71,28.14.07,0-.07,0m3.3,34.19v0m.77,3.9h0m-2.2,137.65v0m-10.7,59.25v0" fill="#161616"/><path d="M272.37,23.21c-2,.12-5,4.27-6.95,5.55-.53.52-4.06,3-1.56,2.79-.56,2.89-12.16,14.1-9.58,15.13a3.31,3.31,0,0,1-.65,1.33l.05-.07c-.15,1-15.75,19.46-9.87,15.44l-.46.74s0-.05,0-.08c-3.69,5.18-7.31,10.4-10.53,15.89-.47,1.22-2.57,3.28-2.18,4.44a2.28,2.28,0,0,1-.17.67l0-.09c-2.41,5.33-5.24,10.47-7.86,15.69-.68,1.44-4.65,8-.39,4.53a1.34,1.34,0,0,1,0,.56.22.22,0,0,0,0-.08c-1.84,7.8-6.36,14.7-8.81,22.32-.62,2.09-1.89,4.22-1.25,6.36a.19.19,0,0,0,0-.08c-1.19,6.88-4.29,13.31-5.78,20.13a4.69,4.69,0,0,0,.23,2.89,18.9,18.9,0,0,1-.92,5.53,145.66,145.66,0,0,0-5.28,21.1c-.37,3.68-3,9.13-.78,12.32l0-.07a4.29,4.29,0,0,1,.2.7l0-.08c.46,2.79-.57,5.74-.59,8.51-.14,5.75-1.46,11.73-2.38,17.32-1,5.88-1.33,11.89-2.58,17.73-.81,4.81-2.13,9.55-2.11,14.49,0,3.11-.85,6.73.85,9.5a.32.32,0,0,0,.61-.21c-.08-.24-.33-.37-.42-.6a18.86,18.86,0,0,1-.47-7.14h0c0-6.65,1.81-13.09,2.84-19.62,1-9.72,3.14-19.29,4.16-29h0v-.07h0c.09-2.89.48-5.74.84-8.6h0a5.72,5.72,0,0,0-1-4.28l0,0a.75.75,0,0,1,0-.16v0c-.27-2.82.65-5.57,1.1-8.35.62-3,1.32-6,1.79-9.08h0c1-5.88,3.39-11.35,4.65-17.16A7,7,0,0,0,207,156c.23-3.63,1.86-7.2,2.82-10.74.61-2.16,3.91-10.52,2.83-12h0a.81.81,0,0,1,0-.31h0a68.54,68.54,0,0,1,3.62-10.28c.3-1.26,10.85-22.19,4.8-17.37h0c3-6.14,6.26-12.18,9.28-18.33.33-.93,1.22-2,.87-3,2-3.47,4.07-6.87,6.24-10.23,1.31-2,2.77-4.13,4.23-6.2.46-.7,5.08-6.41,1.9-4.81h0c2.09-2.9,4.23-5.77,6.38-8.63,1.42-1.87,2.84-3.76,4.16-5.69.48-.75,1.34-1.85.29-2.43.16-1.84,12.71-15,9.56-15.09h0c.28-.27.58-.53.87-.78l0,0c2.45-2,4.66-4.37,7.16-6.31l-.06,0h0l.12-.05a.37.37,0,0,1,0,.11h0c.94,7.11,3.42,14,4.35,21.07,1.14,8.68,2.07,17.62,2.4,26.39.1,3.72-.42,7.46,0,11.17.51,7.38,1.21,14.84.66,22.24q-.66,6.23-1.58,12.43a131.07,131.07,0,0,1-2.45,14.46h0c-2.09,10-4.42,19.86-9,29a211.55,211.55,0,0,1-17.94,34.06c-8,12.44-18.38,23.19-25.94,35.91-8.1,12.71-17.28,25.29-29.39,34.43-.34.2,0,.8.36.54,3.12-1.81,5.46-4.6,8-7.08,11.65-10.71,19.19-24.71,28.19-37.51,11.84-15.13,23.59-30.45,31.78-47.94,3.32-7.33,6.84-14.6,9.69-22.14,2.13-6.28,3.37-12.79,4.86-19.23a253.84,253.84,0,0,0,4.11-28.13c.37-7-.25-14-.73-21,.25-18.41-1.25-36.89-6.06-54.73v.05c-.44-1.51,0-3.41-1-4.7m-59.72,110s0,0,0,0l0,0M210,142.87l0,0,0,0m-10,61.8v0m-6.82,58.41h0" fill="#161616"/><path d="M268.76,199.46a20,20,0,0,0-3.93,3.31l0,0c-2.13,1.89-4.18,4.12-6.94,5.05l.09,0c-1.57.18-2.58-1.1-4.13.29-4.06,3-7.48,6.78-11.36,10,.59-4.3-3,2.23-3.88,3-2.92,3.59-5.47,7.56-8.7,10.87-1.34-1.85-7,10.46-8,11.75a39.6,39.6,0,0,0-4.82,12.16c-1.73,4.44-4.15,8.81-4.23,13.69-1.5,5.52-3.72,10.89-4.27,16.64-.24,7.15,1.25,14.09,1.9,21.16,0,.82.53,4,1.15,2.57a13.17,13.17,0,0,1-.49-2.5c-1.83-15.34-3.76-21.41,2.11-36.61.32-5.42,2.59-10.27,4.6-15.23A36.39,36.39,0,0,1,222.55,244c2.2-3.91,4.19-8,6.9-11.62,1,1.94,11-13.11,12.43-14.63,0,2.75,2.83-.94,3.66-1.49,3-2.67,5.8-5.69,9.16-8l-.08,0c1-.85,2.05.28,3.16.12,4.61-1.28,7.29-5.83,11.12-8.37-.46,2.38-9.63,15.84-1.91,11.53q-17,33.54-36.42,65.82c-5.74,10.29-9.08,22.15-16.86,31.19-.32.61-1.52,1.13-1.17,1.82a.34.34,0,0,0,.46,0c1.08-1.25,2.24-2.43,3.26-3.74,5.58-8.24,9.22-17.55,13.56-26.46,8.58-14.47,16.76-29.17,25-43.86,3.59-5.91,6.3-12.29,9.63-18.35,1-2.3,2.94-4.53,3.24-7-1-.55-2.1.82-3.17.81a.43.43,0,0,1,0-.16v.09c-.47-1.81,7.32-13.37,4.26-12.35m.14.65,0,0,0,0M255.7,208h0m9.08,3.85h0M230.06,231.9h0m-.66.54-.06,0,.06,0m-15,32.22v0m19.75,6.94v0m-23.12,6v0" fill="#161616"/><path d="M320.48,82c-4.09,3.47-7.07,8.11-10.06,12.54-4.12,6-8,12.21-12.08,18.28a63.68,63.68,0,0,0-7.1,12.32c-3.22,8.19-6.16,16.57-8.8,25-1.68,6.58-3.11,13.25-4.29,19.93-1.23,11.63-2.15,23.32-2.61,35-.45,10.45-.92,20.9-.54,31.46.16,3.09.46,6.17.74,9.25,0,.71.17,2.61,1.2,1.41.78-1.54,2.08-2.7,2.94-4.19,1.41-2.22,3.37-4.09,4.8-6.31,2.75-3.78,5.1-7.91,7.77-11.77a103.22,103.22,0,0,0,6.17-11.79c2.76-6.23,5.71-12.41,8.22-18.74,2.09-5.61,3.33-11.47,4.91-17.22s3.4-11.61,4.72-17.51a193.07,193.07,0,0,0,5.46-32.81c1.79-11.79,3.18-23.69,1.38-35.64,0-1.75-2.12-12.76-3.06-6.9a65.56,65.56,0,0,0-2.2,13.78,187.19,187.19,0,0,1-3.2,18.82c-2.11,11-4.81,22-7.4,33-1.15,4.92-1.86,10.13-3.23,15-1.57,6.54-2.76,13.31-4.85,19.7-1.15,4.22-2,8.56-3.47,12.67l0,0c-2.65,8-5.12,16.11-8.33,23.94-2.67,6.13-5.19,12.3-8.1,18.32-1.11,2.32-1.69,4.91-3,7.11a218,218,0,0,1-.8-30.12v0c.61-12.59,1.05-25.18,2.29-37.73a90.52,90.52,0,0,1,1.77-13.72c1.61-8.09,3.39-16.17,6.33-23.88,2.37-6.64,4.44-13.44,7.61-19.76a93,93,0,0,1,6.05-9.54c3.87-5.93,7.74-11.87,11.71-17.74,2.31-3.27,4.21-6.52,7-9.32.66-.9,3.27-2.69,2-2.9" fill="#161616"/><path d="M150.86,27.11a74.73,74.73,0,0,0-5.92,10.64c-.72-7.27-11.14,19.45-11.69,21-1.42-.22-2.42,3.73-3.11,4.82a111,111,0,0,0-5.79,17l0-.08-.12.36c-3.31-2-6.87,20.14-7.26,22.86-2.37-7.32-4,20.67-4.06,21.84-3.5-6.72-1.47,16.69-1.54,18-3-1.49-.15,17.72-.41,19.88-4-6-.78,13.22-1.28,14.77-2.9-2,1.49,12.15,1.61,13.46l0-.09a8.21,8.21,0,0,1,.31,2.15v-.09a1.87,1.87,0,0,1-.09.41.35.35,0,0,1-.11,0l.08,0c-3.19-1.77-1.64,1.83-1.16,3.44.84,3.24,2.53,6.42,2.47,9.82-2.51.43,3.09,9.87,3.14,11.89.39,1.25-1.26.17-1.52,1.07,1,3,3.68,5.5,4.89,8.56-3.74-1.13,1.33,3.93,1.86,4.92,3.19,4.13,6.19,8.41,9.75,12.24l0,0,.06.07h0c.39.27,1,1.64,1.46.82-.17-.64-.92-1.07-1.32-1.61l0,0c-4.45-5.07-8.41-10.55-12.45-15.94,4,1.41-3-7.39-3.46-8.52l0,.07a2.93,2.93,0,0,1-.19-.4c4.36.82-2.4-9.55-2.2-11.72v0a3.35,3.35,0,0,1-.14-.83c2.6-.88-2.58-11.23-2.62-13.75l.24.07-.08,0c3.79,2,1-4.29.86-5.94a73.77,73.77,0,0,1-1.83-9.57c1.73,1.52.84-3.06.91-3.84a91.5,91.5,0,0,1-.5-11.93l.17.18-.05-.06c3.13,4.8,1.27-4.18,1.35-5.77-.19-4.37-.85-8.84-.17-13.19,2,2.31.52-5.55.68-6.39a75.47,75.47,0,0,1,.2-12.58c2.51,4.4,1.67-4.27,2-5.6a105.85,105.85,0,0,1,2.23-16.14l0,.08s0-.1,0-.15c1.49,6.14,2.14-5.54,2.7-6.8,1-5.2,2.1-10.64,4.75-15.27,1.19,1.88,1.42-1.27,1.81-2.16a91.21,91.21,0,0,1,7.26-19.35l-.05.08.11-.16c0,1.51,1-.21,1.12-.81,3.12-7.32,5.55-15.15,10.28-21.63l-.06.06a1.07,1.07,0,0,1,.16-.14c-.35,6,1.92-.91,2.85-2.47.18-1,5.36-7.81,3.73-7.54M112,124.8v0m-1,19.27h0m-.9,50v0h0v0m2.6,13.84h0m2.48,12.52h0m-.23,0ZM131,246l0,0,0,0M113,124.6s0-.06,0-.09v.09" fill="#161616"/><path d="M150.28,27.54c-.58.57.61,1.56.76,2.23a30,30,0,0,1,1.8,4.88c.88,1.79,2.52,13.21,3.16,5.32a3.18,3.18,0,0,1,.18.6.29.29,0,0,1,0-.09c.79,4.06,1.45,8.13,1.88,12.24.31,1.87.3,9.9,2.44,4a96.09,96.09,0,0,1,1.32,11.62c.3.87-.48,7.51,1.33,5.47a1.89,1.89,0,0,1,.09.34.29.29,0,0,0,0-.09c.62,3.84,1,7.84,1.24,11.73.36,1.13-.52,9.44,1.67,7.63a.94.94,0,0,1,.27.38.25.25,0,0,0,0-.07c2.78,7.88,1.45,16.56,4.56,24.35,0,0,0,0,0,0a147.62,147.62,0,0,1,2.4,34.61c.24.81-.48,8.58.7,6.58.07-11.93.39-23.83-1.45-35.67-.3-2.06-.65-4.14-1.14-6.16-.94-3.1-2-6.06-2-9.36-.36-1.93-1-16.94-3.78-15a2.54,2.54,0,0,1-.1-.37s0,.06,0,.08c-.5-1.43-.45-22.2-2.85-19.36-.17-1.47-.54-24.22-3.39-15.32-.18-1.2-2.26-25.2-4.06-17.28-1.12-3.52-2.4-10.93-4.92-13.25m10.35,29.7a.14.14,0,0,0,0,.06s0,0,0-.06m-1.39.79s0,0,0,0h0a.09.09,0,0,0,0-.05" fill="#161616"/><path d="M-56.59,80.64c-.75,1.67,4.09,4.57,5,6.4,3.45,5.25,6.16,11,10.07,15.94,3,4.44,7,8.07,10.44,12.18A82.14,82.14,0,0,0-18.49,131c5.78,6.44,11.19,13.18,17.26,19.36a194,194,0,0,0,24.77,26.55c4.64,4.11,8.47,9,13.1,13.15,5.52,5.18,11.22,10.24,16.13,16,5.31,6.75,10.87,13.3,16.18,20.06,3,4.07,6.51,7.75,9.81,11.6.46.34,1,1.63,1.66,1.18.29.38.61.73.94,1.09a1.74,1.74,0,0,1,0,.22c-.27-.46-1,0-.54.38a.47.47,0,0,1,0,.26c-2,1-4.15,0-6.07-.75h0c-3.82-1.74-8.07-2.24-12.15-3.1-3.24-.52-6.28-1.88-9.55-2.3h0c-13.73-2.27-27.37-5.11-41.3-5.94-16.09-1.77-32.33-1.68-48.39-3.74-17-1.39-33.78-4.19-50.71-5.93-13.15-1.72-26.37-3.42-39.66-3.07-5.65.05-11.3-.09-17,0a1.34,1.34,0,0,0-.88.22c-.27.33.1.65.4.82,15.52,11.29,34.2,15.93,52.68,19.78,9.85,2.28,19.35,5.9,29.4,7.33,7.61,1.36,14.92,4.15,22.63,5,12.41.85,24.83,2,37.27,2.08a354.93,354.93,0,0,0,45.45-4.28h0c6.16-.63,12.32-1.3,18.5-1.62C66.47,245,79.3,245,82,240.3h0a.34.34,0,0,0,.09-.46c.08-.75-.15-1.5,0-2.25v.08c1.27-2.18,2.88-4.21,3.86-6.57h0l0,0v0l0,0h0c1.53-3.32,3.52-6.5,3.66-10.26.94-4,2.15-8,2.69-12.14.84-7.61,3.16-15,4.38-22.53,2.83-13.5-2.38-26.61-7-39A97,97,0,0,1,86.17,136c-1.38-6.11-.34-10.48-3.67-16.39-1-2-2.19-4.4-3.09-6.54-1.76-3.79-3.93-7.48-5.24-11.42-2-6.47-3.09-13.48-7.68-18.74-2.07-3-1.38,6.44-1.88,7.69-.43,3.22-1,6.43-1.29,9.68-.39,5.57-1.63,11.07-2,16.65-.11,2.87,0,5.74-.14,8.6-.15,3.67-.64,7.33-.9,11h0c-.1,8.53-.26,17.12.45,25.64C62,171,64.7,179.6,67,188.25c2,10.13,3.89,20.26,6.63,30.21,1.73,6.08,4.18,11.94,5.86,18-1.77-2.84-3.39-6-5-8.92-1.51-3.16-2.56-6.55-4.34-9.61-9.19-18.21-16.54-37.63-28.86-54.05h0c-3.86-5-6.87-10.67-11.22-15.3-8.83-9-18.29-17.45-27.51-26.08-7.28-6.61-13.06-14.89-21.09-20.65-8.95-5.94-17.88-12-27.56-16.74-3.41-1.54-6.54-4.56-10.44-4.51m.58.6h0c3.72.53,6.61,3.16,9.94,4.67h0C-39.47,89-33.31,93.1-27.13,97c3.46,2.24,7,4.42,10.28,6.93,4.59,3.67,8.26,8.34,12.4,12.48,4.72,5.1,9.93,9.7,15,14.41,6.86,6.84,14.22,12.76,20.56,20h0c3.44,4,6,8.75,9.23,12.95h0C53,180.55,60.43,200.4,69.85,219c1.62,2.73,2.5,5.8,3.85,8.64,1.76,3.15,3.39,6.4,5.32,9.46-10.86-11.93-20-25.38-31-37.17-11.79-10.78-22.72-22.43-34.45-33.29-6.33-6.26-11.32-13.7-17.48-20.1h0c-2.35-2.41-4.7-4.83-6.78-7.41-4.67-6.28-10.67-11.4-15.4-17.62-1.9-2.62-3.35-5.57-5.53-8-2.72-3.13-5.81-5.92-8.19-9.34-6-7.25-9.2-16.46-16.2-22.9h0M84.42,232.61c-.13.24-.27.47-.4.69h0c-.72,1.14-1.39,2.31-2.2,3.39h0a3.21,3.21,0,0,0-.19.31h0a3.43,3.43,0,0,0-.21,2.15c-.32-.36-.6-.74-.9-1.11-1.74-7.21-4.91-13.95-6.64-21.15-.55-2.43-1.27-4.89-1.94-7.29-1.28-5.23-2-10.35-3.18-15.57-1.82-10.39-5.62-20.39-7.18-30.86h0c0-.25-.07-.5-.1-.75h0c-.85-7.85-.39-15.84-.59-23.62h0c0-.42,0-.84,0-1.26h0c.23-4.09.82-8.14,1-12.23.15-3,0-6.14.18-9.19.45-5.53,1.61-11.27,2-16.78.75-5.34,1.44-10.75,1.81-16.21h0c5.57,6.22,5.8,14.95,9.11,22.25,3,6.81,7.13,13.43,9.28,20.63.54,3.15.36,6.45,1.15,9.54,3.17,14.36,11.71,27.57,11.31,42.59h0c-.23,8.24-2.47,16.3-4.18,24.33-.79,3.1-.74,6.35-1.52,9.45-.59,2.63-1.15,5.28-1.92,7.86-.42,2.14-.48,4.39-1.53,6.34-1.12,2.18-2.06,4.36-3.16,6.49m-11.47,7.5,1.19.51h0c1.6.62,3.12,1.43,4.85,1.38h0c-6.53,2.66-13.65,2.47-20.54,3-7.5.65-15,1.17-22.57,2.51-8.43,1.4-17,1.9-25.47,2.54-4.08.28-8.14.67-12.23.68-9.91.13-19.81-1-29.7-1.48a94,94,0,0,1-12-1.15c-4.68-.85-9.25-2.34-13.88-3.4-4.08-1-8.24-1.61-12.34-2.43-3.27-.67-7.16-1.91-10.39-2.84-12.42-3.82-25.34-5.75-37.75-9.62-6-1.88-11.64-4.7-17.34-7.5-3-1.75-5.79-3.75-8.7-5.52h0c4.74-.09,9.5-.05,14.24,0,5,0,10-.17,15,.12,4.57.28,9.15.92,13.72,1.27,4.86.43,9.7,1.2,14.53,1.79,6.67.71,13.34,1.38,20,2.4,8.11,1.27,16.4,2.12,24.57,2.86,5.78.53,11.57,1.42,17.37,1.82,18.39.9,36.8,2.13,55.07,4.47,8.16,1.57,16.17,2.87,24.28,4.26,5.91,1.94,12.21,2.52,18.13,4.38M96.55,173a.22.22,0,0,1,0,.08.22.22,0,0,0,0-.08M46.84,246.64h0" fill="#161616"/><path d="M242.39,115.53h0c-6.8,4.87-8.92,13.36-13.76,19.77-4.32,6-10,11.68-13.56,18.23-1.32,3.49-2.06,7.22-3.91,10.49-2.61,5.15-5.93,10-9,14.9-.75,5.27-2.74,10.45-2.61,15.79v0l0,.15v0a5.83,5.83,0,0,1,1,4.28c4.54-.87,8.71-1.42,13.14-2.26h-.09c1.28-.23,2.62-.51,3.92-.77,5.29-9.22,10.45-18.58,17.81-26.34.66-4,1-8.12,1.7-12.15.52-3,1.34-6,1.83-9,.76-5.5.88-11.35,1.69-16.82.42-5.38.93-10.8,1.76-16.21h0" fill="#fefefe"/><path d="M272,23.78l-.12,0,.08,0c-2.51,1.91-4.73,4.3-7.18,6.31l.08-.05c-.32.25-.62.53-.92.8,3.17.09-9.38,13.25-9.55,15.1,1,.57.19,1.7-.29,2.43-1.32,1.93-2.74,3.83-4.16,5.69-2.15,2.86-4.29,5.73-6.38,8.63,3.2-1.6-1.47,4.14-1.91,4.81-1.45,2.08-2.91,4.21-4.22,6.2-2.17,3.36-4.28,6.76-6.25,10.24.34.83-.35,1.73-.64,2.51-3.06,6.32-6.42,12.49-9.5,18.81,6.46-5.25-5.92,19-6,20.41a53.73,53.73,0,0,0-2.37,7.24c-.11.29.17.49.23.76.1,1.64-.57,3.38-1,5-1.54,5.72-4.25,11.38-4.91,17.24a7.26,7.26,0,0,1,0,4.4c-1.26,5.72-3.61,11.13-4.6,16.93a146.11,146.11,0,0,0,8.63-14.58c2.1-3.87,2.35-8.69,5-12.25,4.43-6.38,9.95-12.17,14.19-18.67,3.18-5.49,5.52-11.79,10.65-15.83,3.26-3.38,1.87,1.06,1.65,3.07a94.71,94.71,0,0,0-1,10.13c-.86,6.76-1.14,13.59-2.08,20.33-.52,2.81-1.25,5.59-1.73,8.42-.65,3.61-1,7.29-1.51,10.92,3.21-3.38,6.31-6.89,9.62-10.16,5.29-4.89,10.44-10.6,15.78-15.31,4.42-4,9.36-7.76,13.82-11.73a128.76,128.76,0,0,0,2.45-14.46q.92-6.19,1.58-12.43c.55-7.29-.14-14.64-.63-21.91-.42-3.82.13-7.67,0-11.5-.33-8.65-1.22-17.48-2.36-26-.91-7.25-3.41-14.29-4.43-21.52" fill="#fefefe"/><path d="M151.7,46.25c-.57.17-.72.91-1,1.37-.83,1.58-1.7,3.19-2.53,4.77-2.3,4.22-3.74,8.82-5.5,13.27s-3.67,8.51-5.29,12.86c-1.76,5-3.28,10.23-4.85,15.31-4.14,12.54-6.23,25.69-8.11,38.74-1.66,14-1.26,27.85-1.07,42,0,9.53,1,19,1.9,28.52a236.22,236.22,0,0,0,6.3,36.11c3.14,12,6.75,23.87,10.5,35.66,1.51,4.32,3.11,8.65,4.88,12.87,1.27,3,2.75,6,4,9,2,4.63,3.36,9.53,5.08,14.26,1.89,5.4,4.25,10.64,6.56,15.87a135.92,135.92,0,0,1,5.78,14.68c1.11,2.64,2.37,7.84,3.2,6.89a1.43,1.43,0,0,0,.23.2c-.18.54.58.61.71.12.34-.19.86-.67.36-.94,1.37-4,1.5-8.22,2.16-12.37,1.41-12.26.6-24.59.06-36.88-.52-10.82-1.48-21.6-1.78-32.44-.48-9.13-1.09-18.28-.8-27.43.57-29,.65-58-2.35-86.83-.54-6.22-1.36-12.39-2.14-18.55a165.27,165.27,0,0,0-2.64-17.58c-3.21-15.2-4.15-30.86-8.82-45.75-1.46-5.1-3.36-10.09-3.8-15.42-.21-2.5-.43-4.83-.43-7.4,0-.42-.1-1-.61-1M136.76,82.36h0l-.22.69.22-.69h0Z" fill="#d9ffde"/><path d="M241.68,118.76c-.35,0-.36.43-.16.65a26.57,26.57,0,0,0-6.08,4.4c-3.55,3.24-7.11,6.56-10.42,10.06-4.22,4.94-7.58,10.58-11.47,15.75-5,7.12-10.52,14-13.62,22.2-2.82,8.38-6,16.69-8.35,25.2-1.14,5.09-1.37,10.33-2.08,15.48-1,7.72-2.19,15.42-2.78,23.19a87.77,87.77,0,0,0,1.51,25.36c.68,2.41,1.24,12.28,4.69,6.43,1.91-3.33,3.44-6.89,5.09-10.36,3.53-8.24,7.25-16.4,11.05-24.51a186.73,186.73,0,0,1,8.42-18.44c5-10.51,9.44-21.27,13.67-32.09,3.49-9.17,7.24-18.29,9.56-27.82a81.75,81.75,0,0,0,2.48-16.69,63,63,0,0,0-.35-16,.32.32,0,0,0,.41.2h0c.59-.56-.5-1.35-.79-2.1.36-.21,0-.78-.35-.55-.1-.17-.2-.4-.44-.37m-35.63,42.74,0-.07-.46.71.41-.64Z" fill="#fdd9ff"/><path d="M37.29,82.92C30,101,29.14,121.8,31.76,141.16c1.08,7.62,2.95,15.11,3.91,22.75,1,6.06,1.16,12.26,2.68,18.23l0-.1C41.55,196.53,47.22,210.33,53,224a68.28,68.28,0,0,0,4.75,9.24c2,3.32,4.11,6.64,5.93,10.08,2.81,5.14,6.21,9.85,9.18,14.92,1.18,1.38,2.21,5.59,4,4.88,1.54-1.27,2.06-3.4,2.76-5.2,1.55-4.89,2-10,2.53-15.09,1.54-10.15.66-20.51,0-30.68-.89-16.34,0-33-3.52-49.09-3.68-16.9-10.84-32.84-17.15-48.86-2.46-6.68-6.56-12.69-10.83-18.42-2.71-3.24-6-5.86-8.88-9-1.2-1.35-3.19-4.65-4-3.55a.4.4,0,0,0-.43-.31" fill="#161616"/><path d="M172.34,45.43a.45.45,0,0,0-.4.49.43.43,0,0,0,0,.14c-.7-.65-2.39,2.48-2.84,2.94a81.07,81.07,0,0,0-4.37,8c-2.16,4.94-4.51,9.87-6.16,15-2.08,6.73-3.83,13.71-6,20.31-7.67,21.8-2.24,45.1,3.34,66.78,1.23,5.69,1.87,3,3.44-.63,1.81-4.13,3.55-8.32,5.13-12.56,3.6-9.53,7.57-19.26,9.68-29.32,1.54-8.12,3.7-16.18,4.19-24.44.44-6.12-.38-12.34-.91-18.42-.54-7-1.28-14-3.33-20.71v0c-.71-1.92-.12-6.63-1.78-7.56" fill="#161616"/><path d="M10.83,73.71c-1.43,3.15-.91,6.62,0,9.83v-.05a43,43,0,0,0,6.33,15.86c.72,1.23,1.43,2.47,2.1,3.71.84,2.09,1.94,1.54,2.52-.34,2.37-8.71-1.44-17.9-6.28-25.07-.52-.57-4.15-6.36-4.24-4.08a.39.39,0,0,0-.43.14" fill="#161616"/><path d="M92.65,139c-2.24-.58-3.13,2.94-.87,3.48s3.13-2.93.87-3.48" fill="#161616"/><path d="M102.27,102.37c-2.25-.58-3.13,2.94-.88,3.48s3.13-2.93.88-3.48" fill="#161616"/><path d="M68.73,111.25a1.79,1.79,0,0,0-.87,3.47,1.79,1.79,0,0,0,.87-3.47" fill="#161616"/><path d="M44.38,143.93c-2.25-.59-3.13,2.93-.87,3.48s3.13-2.94.87-3.48" fill="#161616"/><path d="M85.57,158.52A1.79,1.79,0,0,0,84.7,162a1.79,1.79,0,0,0,.87-3.47" fill="#161616"/><path d="M78.27,56.19c-2.25-.58-3.13,2.94-.88,3.48s3.13-2.93.88-3.48" fill="#161616"/><path d="M90.74,82.76c-2.25-.58-3.13,2.94-.87,3.48s3.13-2.93.87-3.48" fill="#161616"/><path d="M11.83,124.7c-2.25-.58-3.13,2.94-.88,3.48s3.13-2.93.88-3.48" fill="#161616"/><path d="M44,208.45c-2.25-.59-3.13,2.93-.87,3.48s3.13-2.94.87-3.48" fill="#161616"/><path d="M383,109.37a.32.32,0,0,0-.57.31,40.26,40.26,0,0,1,2.74,5.2c2.67,5.34,4.4,11.07,6.75,16.56l0-.08c2.78,7.71,5.3,15.5,7.64,23.35a52.07,52.07,0,0,1,3.06,13.09h0c.31,18.3,1.58,36.6,1.5,54.92-.19,10.52-.67,21.06-.9,31.58a410,410,0,0,1-12.65,67.63h0c-2.54,9.76-7.45,18.6-12.1,27.46h0l-.4.75h0c-4.54,8.74-9.08,17.49-15.37,25.17v0c-8.47,10.57-17.32,20.84-26.7,30.59h0c-2.95,3.14-2.88,2.82-3.49-1.21-1.46-6.85-2.41-13.77-3.22-20.72h0c-.28-16.85-1.45-33.77-.72-50.61v0h0v0a1.1,1.1,0,0,1,.06-.26c4.31,9.74,3.79-15.28,4.74-17.31a.07.07,0,0,1,0,.05c.23-1.27.37-2.58.63-3.84,3.12,3.66,3.56-18.34,3.6-20-.22-2.13.77-4,1-6.08.59-4.75.74-9.54,1.14-14.31l.09-.06h0c1.27-2.21,1.29-4.93,1.57-7.41.47-4.35.66-8.71,1.43-13h0c2.31,4.82,2.72-13.13,3-14.24.23-2.23.52-4.5.95-6.68a2.84,2.84,0,0,1,.39-1.05,1.75,1.75,0,0,0,.6-.89c1.19-5.38,1.33-11.07,2.38-16.53h0c1,3.11,2.08-1.81,2.33-2.76h0c1-4,1.78-8.11,3-12.09,1.93,3.7,3.29-15.8,4.58-17.2a.2.2,0,0,0,0,.08,1.69,1.69,0,0,1,.21-.4l-.05.06c4-2.76,3.61-14.51,6-19l-.05.07a1.33,1.33,0,0,1,.28-.3l-.07.05a.66.66,0,0,1,.45-.17h-.09c2.94-1.68,3.11-10.78,4.64-14.11l0,.08a1,1,0,0,1,.2-.35c2.46,2.56,3-10,4-11.39a.3.3,0,0,0,0,.08c2.67-3.09,2.4-7.61,3.88-11.31.45-1.43,4.34-12.89,3-12.93h0a.34.34,0,0,0-.33.32c-.15,3.26-1.71,6.41-2.31,9.64-1.55,4-2.18,8.17-3.52,12.17l0-.08c-2.92,3.6-2.11,8.69-3.83,12.85a.59.59,0,0,1,0-.08,2.68,2.68,0,0,1-.26.47c-2.46-2.83-3.29,12.71-5.39,14-1,0-1.44,1-1.7,1.82-1.18,4.09-1.68,8.34-2.73,12.46-.62,2.73-1,3.82-2.91,5.73-1.9,5.5-1.83,11.46-3.43,17a.25.25,0,0,1,0-.07l-.07.15c-1.72-3.05-3.86,13.74-4.95,15l0-.08a2.48,2.48,0,0,1-.2.44c-1.83-6-2.93,13.74-3.33,14.62,0,0,0,0,0-.08a7.15,7.15,0,0,1-.4,1.64.59.59,0,0,1,0-.08,1.69,1.69,0,0,1-.37.65l.06-.07c-2.88,6.9-1.35,15.19-3.29,22.46l0-.08-.12.24c-2.47-5.56-2.46,17.54-3.73,18.79-1.05-3.21-1.11,9.83-1.37,10.47a50,50,0,0,1-1.47,9.87,119.17,119.17,0,0,1-1.36,18.39h0v0h0a7.23,7.23,0,0,1-.94,3.14c-2.71-3.7-2.69,18.69-3.55,20.43h0v0h0a7.91,7.91,0,0,1-.55,2.19l0-.08a2,2,0,0,1-.23.4c-3.72-7.72-2.55,6.13-2.72,8.42.25,6.59.1,13.19.39,19.79.51,5.93.26,11.9.37,17.85A172.31,172.31,0,0,0,331.48,403c.66,2.78.39,8.47,4.18,4.05,4.33-4.36,8.44-8.92,12.45-13.58,12-13.16,23-27.07,30.59-43.3h0c4.95-9.4,10.1-18.78,12.71-29.14h0c3.24-11.86,5.95-24.18,8.24-36.21,1-5.85,1.55-12.06,2.52-17.95h0c.06-.41.13-.82.19-1.23v.08c1.74-8.28,1.64-16.78,1.76-25.2,1.09-17.46.3-34.92-.22-52.38-.1-4-.43-7.93-.64-11.9a59.62,59.62,0,0,0-.76-13.41,333.63,333.63,0,0,0-12.41-37.61h0A89.33,89.33,0,0,0,383,109.36m4.65,11,0,.07,0-.07m-12,12.66s0,0,0,0l0,0m-9,26.91-.08,0,.08,0M356.8,192.9a0,0,0,0,0,0,0,0,0,0,0,1,0,0m-1.51,3.68v0M331.07,332.11v0m-.85,60.2v0" fill="#161616"/><path d="M452.76,18.2c-1.55-.58,2.24,7,2.21,8.11.62,1.71,1.52,8.91,2.33,3a1.83,1.83,0,0,1,.13.16l-.05-.06c3.4,7.26,4.28,15.42,5.94,23.2,0,.6.64,2.49.95,1a1.34,1.34,0,0,1,.07.18l0-.08a91.52,91.52,0,0,1,3.42,20.39c.21.93-.17,4.07,1.36,2.45,1.72,5.06,1.73,10.6,1.73,15.91.32,1.34-1.28,12.92,1.35,7.19a.76.76,0,0,1,0,.15.25.25,0,0,0,0-.08,106.48,106.48,0,0,1-.91,16.26c.11,1.38-2.37,9.73.93,5.89A74.85,74.85,0,0,1,470,134.23c0,.85-3,8.28-.56,6.4-.17,4.4-1.66,8.66-2.69,12.91-.23,1.58-3.78,10,.22,5.92l-.07,0a1.53,1.53,0,0,1,.21-.14A92.91,92.91,0,0,1,464.31,171c-.09.77-1.83,5.1.16,4a73.51,73.51,0,0,1-3.63,9c-.48,1.58-4.4,7.21-.3,6h.17c-.53,2.46-7.59,11.62-5.21,13a3.19,3.19,0,0,1-.29.8s0,0,0,0c-.23,2.17-8.84,11-4.41,11.09-.08.12-.17.24-.26.35l.05-.06c-.62,1-9.28,8.31-5,7.7-5,4.52-9.93,9.13-15.27,13.26l.05,0c-.5.45-1.32.73-1.61,1.33.25.88,1.16-.34,1.59-.53h0a.18.18,0,0,0,.07,0l0,0c4.22-3.08,8-6.71,11.91-10.15.71-.87,6.66-4.86,2.77-4.47,1.77-2.77,4.83-4.7,6.44-7.47-.08-.93-1.9-.18-1.29-1.33.44-2,7.75-10.17,5.36-11.08.6-3.35,2.87-6.14,4.31-9.16.78-1.49,3-4.72-.47-3.6h0a2,2,0,0,1,0-.42v.09a8.33,8.33,0,0,1,.72-2.05l0,.08c.36-1.26,7.39-14.34,4.16-12.9-.2-1.62,6.67-19.83,1.57-14.74.16-2.17,6.6-20.49,3.4-19.59.18-1.28,6.66-23.86,1.94-17.93.18-1.16,3.93-28.95.2-22.22.14-2.74.89-25.19-2.75-23.82,0-.13,0-.26,0-.38s0,0,0,.08a110.46,110.46,0,0,0-2.42-17.83c-.47-1.2-.69-5.27-2.13-5.33-.25-1.57-5.35-29.8-7.46-22.8a72.5,72.5,0,0,0-3.77-11.58m19.42,103.33h0m-2.75,19.1h0m-8.69,49.23v0h0v0M455.51,203h0m-4.83,11.81h0m.23.08h0Zm-20.58,22,0,0,0,0m40.86-115.69V121s0,.06,0,.09" fill="#161616"/><path d="M453.24,18.73c-2.92,1.79-5.6,8.81-7.37,12.05-.25-8.11-6.9,15-7.3,16.19-1.1-9.28-5.81,13-6.27,14.39-1.81-3.25-5.74,17.14-6.51,18.45a.59.59,0,0,0,0-.08,3.78,3.78,0,0,1-.17.35c-2.35-2.38-5.87,12.22-6.6,14-.63,3.24-2.27,5.93-3.79,8.79-.86,1.89-1.61,3.87-2.3,5.83-4.07,11.26-6,23-8.25,34.73.77,2.19,1.56-5.57,1.94-6.33a147.72,147.72,0,0,1,9-33.5s0,0,0,0c4.54-7,4.9-15.82,9.14-23l-.06.06a1.07,1.07,0,0,1,.35-.32c1.8,2.2,2.53-6.12,3.09-7.17,1-3.76,2.13-7.62,3.47-11.27l0,.08a1.82,1.82,0,0,1,.16-.31c1.38,2.35,1.89-4.33,2.35-5.12a95,95,0,0,1,3.52-11.15c1,6.17,2.51-1.72,3.17-3.49,1.21-4,2.64-7.82,4.19-11.65l0,.08a4.07,4.07,0,0,1,.28-.55c-.88,7.87,2.92-3,4.13-4.62a29.54,29.54,0,0,1,2.7-4.44c.28-.63,1.63-1.37,1.17-2M437.38,45.89l0,.06s0,0,0-.06m1.21,1,0,0h0l0,0" fill="#161616"/><path d="M479.93,198.84c-1.82-.16-2.95,5.37-4.39,6.82-3.82,5-8.34,9.44-11.72,14.77-3.19,4.34-5.3,9.28-8.05,13.88A82.12,82.12,0,0,0,445,251.44c-4.16,7.58-8.75,14.91-12.57,22.68a194.29,194.29,0,0,0-16.89,32.15c-2.34,5.74-5.73,11-8.08,16.71-3.06,6.92-6,14-9.79,20.51-4.62,7.25-9,14.66-13.59,21.9-2.85,4.21-5.17,8.71-7.71,13.09-.17.55-1.22,1.46-.57,1.95-.26.41-.49.83-.71,1.25l-.24,0c.36-.41-.31-.9-.53-.39a.47.47,0,0,1-.26.05c-1.59-1.61-1.42-3.9-1.3-6h0c.38-4.18-.55-8.35-1.09-12.48-.58-3.23-.3-6.56-1-9.78h0c-2.39-13.71-4.21-27.52-8-40.94-3.64-15.78-9.08-31.08-12.44-46.91C345.87,248.78,343,232,339,215.44c-2.72-13-5.48-26-10.2-38.45-1.91-5.32-3.65-10.69-5.63-16-.11-.27-.21-.63-.49-.76s-.58.31-.64.65c-5.53,18.37-3.74,37.53-1.27,56.25,1.09,10,.81,20.22,2.78,30.17,1.23,7.64,1,15.46,2.75,23,3.29,12,6.31,24.1,10.34,35.88a354.74,354.74,0,0,0,19.05,41.48v0c2.62,5.61,5.29,11.2,7.63,16.93,2.14,4.65,6.33,16.78,11.66,17.74h0a.34.34,0,0,0,.46-.07c.73-.17,1.37-.64,2.12-.77h-.09c2.49.48,4.93,1.33,7.48,1.48H385c3.64.34,7.3,1.17,10.9.06,4.11-.45,8.28-.63,12.35-1.47,7.46-1.73,15.17-2,22.71-3.31,13.68-1.78,24.33-11,34.53-19.5a95.61,95.61,0,0,1,9.34-6.93c5.32-3.32,9.79-3.78,14.26-8.87,1.58-1.62,3.43-3.52,5.16-5.08,3-2.91,5.75-6.18,9.05-8.72,5.45-4,11.7-7.37,15.14-13.44,2.17-2.94-6.52.83-7.87.77-3.19.66-6.4,1.2-9.56,2-5.39,1.47-11,2.11-16.37,3.66-2.74.84-5.41,1.89-8.17,2.7-3.5,1.08-7.12,1.81-10.66,2.78h0c-8.08,2.73-16.25,5.42-24.05,8.9-8,4.12-15.2,9.47-22.63,14.45-8.89,5.24-17.83,10.37-26.32,16.24-5.17,3.63-9.89,7.88-15.09,11.48,2.09-2.61,4.54-5.17,6.76-7.68,2.49-2.47,5.34-4.58,7.64-7.27,14.15-14.69,30.05-28,41.49-45.09h0c3.46-5.3,7.81-10,10.74-15.64,5.61-11.32,10.42-23,15.53-34.58,3.84-9.06,9.74-17.24,12.52-26.72,2.66-10.41,5.46-20.86,6.7-31.55.33-3.73,2.15-7.68.82-11.34m-.38.75v0c.72,3.68-.81,7.28-1.13,10.92h0c-.77,7.25-2.56,14.41-4.25,21.53-1,4-1.86,8.07-3.15,12-1.94,5.55-5.14,10.55-7.68,15.83-3.25,6.14-5.88,12.57-8.64,18.93-4.19,8.73-7.35,17.64-12.1,26h0c-2.7,4.58-6.29,8.54-9.18,13h0c-11.62,17.46-27.91,31-42.33,46.07-2,2.43-4.64,4.28-6.87,6.49-2.4,2.7-4.93,5.32-7.17,8.15,7.67-14.2,17.35-27.25,24.84-41.55,6.28-14.69,13.67-28.85,20-43.51,3.81-8,9.18-15.21,13.2-23.13h0c1.5-3,3-6,4.76-8.84,4.39-6.48,7.24-13.84,11.54-20.35,1.85-2.67,4.15-5,5.72-7.87,2.05-3.6,3.67-7.44,6.12-10.81,4.85-8.09,12.49-14.12,16.25-22.86h0v0m-96.5,182.53-.78-.15h0c-1.31-.3-2.64-.54-3.92-.95h0l-.36-.07h0a3.44,3.44,0,0,0-2.1.51c.23-.42.5-.81.75-1.21,6.23-4,11.54-9.24,17.77-13.25,2.12-1.33,4.2-2.82,6.24-4.24,4.51-2.93,9.09-5.35,13.64-8.15,9.21-5.15,17.4-12,26.77-17h0l.67-.34h0c7.13-3.4,14.82-5.6,22.1-8.36h0c.4-.12.8-.27,1.2-.38h0c3.94-1.13,7.95-1.91,11.87-3.12,2.92-.87,5.79-2,8.73-2.87,5.37-1.4,11.16-2.2,16.5-3.65,5.29-1.05,10.61-2.19,15.89-3.65h0c-4,7.31-12.19,10.41-18,15.94-5.45,5-10.33,11.16-16.41,15.57-2.79,1.55-6,2.47-8.62,4.24-12.51,7.73-22.16,20.16-36.47,24.74h0c-7.85,2.51-16.2,3.05-24.34,4.09-3.19.28-6.24,1.4-9.43,1.69-2.67.31-5.36.65-8.05.79-2.16.3-4.3,1-6.48.64-2.43-.34-4.8-.51-7.18-.84m-10.87-8.35c0,.43-.05.86-.08,1.29a.06.06,0,0,1,0,0h0c0,1.72-.31,3.42.3,5h0c-4.66-5.27-6.84-12.06-9.59-18.4-3.08-6.87-6.06-13.82-9.82-20.48-4.11-7.49-7.4-15.38-10.81-23.2-1.6-3.75-3.32-7.46-4.67-11.31-3.41-9.32-5.64-19-8.42-28.53a95,95,0,0,1-2.86-11.67c-.75-4.7-.84-9.5-1.38-14.22-.44-4.17-1.19-8.31-1.77-12.45-.45-3.31-.57-7.39-.76-10.74-.5-13-2.94-25.82-3.38-38.82-.23-6.32.59-12.54,1.35-18.84.68-3.36,1.62-6.71,2.34-10h0c1.65,4.45,3.18,8.95,4.71,13.44,1.65,4.71,3.46,9.38,4.83,14.19,1.25,4.41,2.16,8.94,3.34,13.37,1.2,4.72,2.07,9.55,3.11,14.31,1.53,6.52,3.1,13,4.33,19.63,1.48,8.08,3.41,16.19,5.41,24.14,1.41,5.63,2.48,11.39,4,17,5.22,17.65,10.14,35.44,14,53.46,1.21,8.22,2.64,16.21,4,24.32.13,6.22,1.66,12.36,1.85,18.56m71.17.12-.07,0,.07,0m-86-22.6s0,0,0,0,0,0,0,0" fill="#161616"/><path d="M346,87.44h0c5.74,6.08,6.18,14.83,9.71,22,3.1,6.71,7.58,13.38,9.82,20.49.62,3.68.64,7.49,1.82,11.05,1.58,5.56,3.9,11,5.95,16.34-.28,5.31.69,10.79-.46,16v0a1.09,1.09,0,0,1-.08.15l0,0a5.8,5.8,0,0,0-1.82,4c-4.28-1.73-8.27-3.06-12.46-4.74l.08,0c-1.21-.48-2.47-1-3.7-1.51-3.42-10.06-6.69-20.24-12.42-29.26.12-4.1.61-8.16.65-12.25.07-3.06-.16-6.14-.07-9.19.31-5.55,1.32-11.31,1.57-16.83.61-5.36,1.16-10.78,1.38-16.24h0" fill="#fefefe"/><path d="M448.26,36.82c-.5-.13-.71.42-.8.83-.48,2.52-1.15,4.77-1.83,7.18-1.45,5.15-4.28,9.68-6.68,14.41-7.44,13.72-11.37,28.91-17.43,43.21a165,165,0,0,0-6,16.75c-1.95,5.9-3.93,11.79-5.66,17.8C401.43,164.73,396,193.23,391,221.76c-1.47,9-3.83,17.9-6,26.78-2.37,10.57-5.39,21-8,31.49-2.89,12-6.05,23.9-7,36.21-.15,4.2-.84,8.37-.25,12.56-.55.16-.13.74.17,1,0,.51.79.58.71,0a1.43,1.43,0,0,0,.27-.15c.63,1.09,2.86-3.77,4.46-6.15a136.05,136.05,0,0,1,8.49-13.3c3.26-4.68,6.58-9.38,9.47-14.31,2.6-4.32,4.9-8.86,7.73-13,1.81-2.74,3.83-5.36,5.66-8.08,2.55-3.81,4.95-7.75,7.25-11.7,5.94-10.85,11.77-21.84,17.15-33a236.58,236.58,0,0,0,13.09-34.24c2.76-9.12,5.47-18.28,7.33-27.63,2.91-13.88,5.95-27.37,7-41.46.65-13.16,1.12-26.47-.53-39.57-.57-5.29-1.06-10.7-1.83-16-.75-4.58-1.88-9.08-2.73-13.64s-1.4-9.5-2.85-14.08c-.52-1.71-1.06-3.45-1.57-5.17-.19-.5-.21-1.26-.73-1.53M456,75.14h0l.09.72-.09-.72Z" fill="#d9ffde"/><path d="M344.05,70.74c-.24-.07-.37.14-.51.28-.29-.29-.76.19-.45.47-.42.68-1.64,1.25-1.17,1.91h0a.33.33,0,0,0,.45-.11A62.71,62.71,0,0,0,339,88.93a81.11,81.11,0,0,0-.77,16.84c.45,9.81,2.38,19.48,4.05,29.14,2.08,11.44,4.42,22.85,7.27,34.12a187.13,187.13,0,0,1,4.73,19.71c2.18,8.69,4.26,17.41,6.14,26.17,1,3.72,1.78,7.51,3,11.15,2.26,6.4,4.7-3.18,5.84-5.41A88,88,0,0,0,375.58,196c.91-7.74,1.25-15.51,1.71-23.29.29-5.19,1.07-10.38.93-15.59-.71-8.81-2.21-17.57-3.36-26.33-1.48-8.64-5.62-16.47-9.12-24.4-2.83-5.82-5-12-8.24-17.66-2.57-4.07-5.44-8-8.3-11.87a26.42,26.42,0,0,0-5.13-5.48c.25-.17.31-.57,0-.67m26.77,48.76.29.72-.32-.8,0,.08Z" fill="#fdd9ff"/><path d="M481,168.5c-16.77,9.93-30.07,26-39.73,42.94-3.77,6.72-6.82,13.8-10.7,20.46-2.85,5.44-6.51,10.45-8.93,16.12l.05-.1c-6.24,13.48-10.1,27.88-13.82,42.2A68.32,68.32,0,0,0,406,300.35c-.41,3.87-.76,7.77-1.4,11.61-.89,5.79-1,11.6-1.76,17.43.1,1.81-1.64,5.78.18,6.28,2-.08,3.71-1.45,5.36-2.46,4.19-2.95,7.65-6.75,11.16-10.46,7.39-7.13,13-15.9,18.66-24.36,9.21-13.52,20-26.21,27-41.15,7.33-15.67,11.32-32.68,16-49.24,2.1-6.8,2.48-14.07,2.56-21.21-.19-4.23-1.23-8.33-1.61-12.52-.13-1.81.29-5.64-1-5.26a.39.39,0,0,0-.15-.51" fill="#161616"/><path d="M428.15,32.07a.44.44,0,0,1,.3.55.31.31,0,0,1-.06.13c.8-.5,1.87,2.9,2.22,3.44a82,82,0,0,1,2.76,8.65,161.19,161.19,0,0,1,3.17,15.89c.75,7,1.14,14.19,2,21.09,3.35,22.87-6.45,44.69-16.08,64.9-2.3,5.34-2.4,2.58-3.25-1.27-1-4.41-1.89-8.85-2.63-13.32-1.71-10-3.73-20.35-3.88-30.63,0-8.26-.53-16.59.57-24.79.74-6.09,2.74-12,4.42-17.91,1.87-6.75,3.94-13.47,7.24-19.69v0c1.06-1.76,1.39-6.49,3.19-7.08" fill="#161616"/></svg>