<svg xmlns="http://www.w3.org/2000/svg" xmlns:xlink="http://www.w3.org/1999/xlink" width="48" height="48" viewBox="0 0 48 48"><defs><clipPath id="b"><rect width="48" height="48"/></clipPath></defs><g id="a" clip-path="url(#b)"><path d="M21.4,14.622V2.378H11.888V14.622a7.121,7.121,0,0,1-1.055,3.737L7.5,23.776H25.79L22.461,18.36A7.061,7.061,0,0,1,21.4,14.622ZM9.511,2.378H8.322A1.189,1.189,0,1,1,8.322,0H24.965a1.189,1.189,0,1,1,0,2.378H23.776V14.622a4.741,4.741,0,0,0,.706,2.489l8.039,13.069a5.158,5.158,0,0,1-4.391,7.861H5.156A5.158,5.158,0,0,1,.765,30.181L8.8,17.119a4.761,4.761,0,0,0,.706-2.489ZM2.786,31.429a2.783,2.783,0,0,0,2.37,4.235H28.13a2.783,2.783,0,0,0,2.37-4.235l-3.247-5.275H6.033Z" transform="translate(7.357 4.979)" fill="#4545ff"/></g></svg>