<svg xmlns="http://www.w3.org/2000/svg" xmlns:xlink="http://www.w3.org/1999/xlink" width="48" height="48" viewBox="0 0 48 48"><defs><clipPath id="b"><rect width="48" height="48"/></clipPath></defs><g id="a" clip-path="url(#b)"><path d="M14.719,12.82,16.4,14.5l7.125,7.125L25.2,23.3,26.5,24.6a1.187,1.187,0,1,0,1.679-1.679h0l-1.293-1.293,1.679-1.679,7.3-7.3A7.413,7.413,0,0,0,25.381,2.158l-7.3,7.3L16.4,11.141,15.105,9.848h0a1.187,1.187,0,1,0-1.679,1.679l1.293,1.293Zm3.366,0L27.06,3.845a5.038,5.038,0,0,1,7.125,7.125L25.21,19.946,18.085,12.82Zm-4.168,4.651a1.187,1.187,0,0,0-1.679-1.679L4.116,23.906a5.95,5.95,0,0,0-1.739,4.205v3.061l-2.1,3.67A2.128,2.128,0,0,0,2.125,38.03a2.1,2.1,0,0,0,1.055-.282l3.67-2.1H9.912a5.95,5.95,0,0,0,4.205-1.739l8.121-8.121a1.187,1.187,0,1,0-1.679-1.679l-8.121,8.114a3.567,3.567,0,0,1-2.519,1.048H6.226l-.275.156-3.15,1.8,1.8-3.15.156-.275V28.111A3.567,3.567,0,0,1,5.8,25.592l8.114-8.121Z" transform="translate(4.981 4.991)" fill="#4545ff"/></g></svg>