<svg xmlns="http://www.w3.org/2000/svg" width="1000" height="900" viewBox="0 0 1000 900"><rect width="1000" height="900" fill="#f5f5f5"/><path d="M709.45,518.13c-1-.49-16.2-8.08-39.64-14.73,39.92-53.1,52.85-107.21,53.5-110a26.45,26.45,0,0,0-31.22-31.86c-2.76.58-54.81,11.87-108,46.27C577,327,536.25,265.34,534.37,262.53a26.46,26.46,0,0,0-44,0c-1.89,2.81-42.62,64.48-49.71,145.31-53.2-34.41-105.25-45.69-108-46.27a26.46,26.46,0,0,0-31.22,31.86c.64,2.76,13.58,56.86,53.5,110-23.45,6.65-38.66,14.24-39.64,14.73a26.45,26.45,0,0,0-.05,47.22c1.9,1,45,22.47,100,24.7-2.35,5.66-3.52,9.15-3.65,9.52a26.46,26.46,0,0,0,32.65,33.66c1.37-.41,26-7.9,54.88-25.39v59.55a6.61,6.61,0,0,0,6.61,6.61H519a6.61,6.61,0,0,0,6.61-6.61V607.85c28.88,17.49,53.51,25,54.87,25.38a26.44,26.44,0,0,0,32.65-33.65c-.12-.38-1.29-3.86-3.64-9.52,55-2.24,98.08-23.75,100-24.7a26.47,26.47,0,0,0,0-47.23ZM600.33,563.79a266.63,266.63,0,0,1-35.12-2c-.18.09-.33.13-.51.23,16.36,24.8,23.33,45.85,23.33,45.85s-39.74-11.82-75.65-41.74c-35.9,29.92-75.65,41.74-75.65,41.74s7-21,23.34-45.85c-.18-.1-.33-.14-.51-.23a265.08,265.08,0,0,1-35.13,2c-53.68,0-97.2-22-97.2-22s33.85-17.09,78.63-21.14c-.7-.67-1.3-1.13-2-1.81-59.25-56.42-76.62-131.35-76.62-131.35s78.67,16.55,137.91,73c.77.74,1.3,1.35,2.05,2.08-.7-9.33-1.1-19.57-1.1-31,0-85.21,46.29-154.28,46.29-154.28s46.29,69.07,46.29,154.29c0,11.4-.4,21.64-1.1,31,.75-.73,1.28-1.34,2-2.08,59.24-56.43,137.91-73,137.91-73s-17.37,74.92-76.62,131.35c-.71.67-1.31,1.14-2,1.8,44.78,4.06,78.63,21.15,78.63,21.15S654,563.79,600.33,563.79Z" fill="#f9d5fb"/><path d="M684.68,493.34c-1-.5-16.2-8.09-39.64-14.74,39.92-53.1,52.85-107.21,53.49-110a26.44,26.44,0,0,0-31.21-31.85c-2.76.58-54.81,11.86-108,46.26-7.1-80.84-47.83-142.49-49.71-145.31a26.46,26.46,0,0,0-44,0C463.75,240.55,423,302.21,415.93,383c-53.21-34.4-105.26-45.68-108-46.26a26.44,26.44,0,0,0-31.21,31.85c.64,2.76,13.57,56.86,53.5,110-23.45,6.65-38.66,14.24-39.64,14.74a26.44,26.44,0,0,0-.05,47.21c1.9,1,45,22.47,100,24.71-2.35,5.65-3.52,9.14-3.65,9.51a26.44,26.44,0,0,0,32.65,33.66c1.37-.41,26-7.9,54.88-25.39v59.55A6.61,6.61,0,0,0,481,649.2h13.22a6.61,6.61,0,0,0,6.62-6.61V583.05c28.88,17.49,53.51,25,54.87,25.39a26.82,26.82,0,0,0,7.54,1.1,26.45,26.45,0,0,0,25.11-34.76c-.12-.37-1.29-3.86-3.64-9.52,55-2.24,98.08-23.74,100-24.7a26.47,26.47,0,0,0,0-47.22ZM575.56,539a266.63,266.63,0,0,1-35.12-2c-.19.1-.33.13-.52.23,16.37,24.8,23.34,45.86,23.34,45.86s-39.74-11.82-75.65-41.74C451.7,571.26,412,583.08,412,583.08s7-21.06,23.34-45.86c-.19-.1-.33-.13-.52-.23a264.91,264.91,0,0,1-35.12,2c-53.68,0-97.2-22-97.2-22s33.85-17.08,78.63-21.14c-.7-.66-1.3-1.13-2-1.8-59.25-56.43-76.62-131.35-76.62-131.35s78.67,16.54,137.91,73c.77.73,1.3,1.34,2.05,2.07-.7-9.32-1.1-19.56-1.1-31,0-85.21,46.29-154.29,46.29-154.29s46.29,69.08,46.29,154.3c0,11.39-.4,21.64-1.1,31,.75-.73,1.28-1.34,2.05-2.08,59.24-56.43,137.91-73,137.91-73S655.39,437.58,596.14,494c-.71.68-1.31,1.14-2,1.8,44.78,4.07,78.63,21.15,78.63,21.15S629.24,539,575.56,539Z" fill="#d5fbda"/><path d="M697.07,505.74c-1-.5-16.2-8.09-39.65-14.74,39.93-53.1,52.85-107.21,53.5-110a26.46,26.46,0,0,0-25.76-32.43,25.89,25.89,0,0,0-5.45.58c-2.76.57-54.81,11.86-108,46.26C564.59,314.6,523.87,253,522,250.13a26.45,26.45,0,0,0-44,0c-1.9,2.82-42.62,64.48-49.71,145.31-53.21-34.4-105.26-45.69-108-46.26a25.89,25.89,0,0,0-5.45-.58A26.46,26.46,0,0,0,289.09,381c.64,2.76,13.57,56.86,53.49,110-23.45,6.65-38.65,14.24-39.64,14.74a26.44,26.44,0,0,0-.05,47.21c1.9,1,45,22.47,100,24.71-2.35,5.65-3.52,9.14-3.64,9.51a26.44,26.44,0,0,0,32.65,33.66c1.37-.41,26-7.9,54.87-25.39V655a6.61,6.61,0,0,0,6.61,6.61H506.6a6.61,6.61,0,0,0,6.61-6.61V595.45c28.88,17.49,53.51,25,54.88,25.39a26.75,26.75,0,0,0,7.54,1.09,26.45,26.45,0,0,0,25.11-34.75c-.13-.37-1.29-3.86-3.65-9.52,55-2.24,98.08-23.74,100-24.7a26.47,26.47,0,0,0,0-47.22ZM587.94,551.39a266.74,266.74,0,0,1-35.12-2c-.18.1-.33.13-.51.23,16.37,24.8,23.33,45.86,23.33,45.86S535.9,583.66,500,553.73c-35.91,29.93-75.65,41.75-75.65,41.75s7-21.06,23.33-45.86c-.18-.1-.33-.13-.51-.23a265,265,0,0,1-35.12,2c-53.69,0-97.21-22-97.21-22s33.85-17.08,78.64-21.14c-.71-.66-1.3-1.13-2-1.8C332.22,450,314.84,375.06,314.84,375.06s78.68,16.54,137.92,73c.77.74,1.3,1.35,2.05,2.08-.71-9.32-1.1-19.57-1.1-31,0-85.21,46.29-154.29,46.29-154.29s46.28,69.08,46.28,154.29c0,11.4-.39,21.64-1.1,31,.76-.73,1.29-1.34,2.05-2.08,59.24-56.43,137.92-73,137.92-73S667.77,450,608.52,506.4c-.71.67-1.3,1.14-2,1.8,44.78,4.07,78.63,21.15,78.63,21.15S641.63,551.39,587.94,551.39Z" fill="#b3b3b3"/></svg>