<svg xmlns="http://www.w3.org/2000/svg" width="452" height="322" viewBox="0 0 452 322"><path d="M198.38,27.53c3.92,7.61,9.16,14.47,14.47,21.15h0A491.42,491.42,0,0,0,250.6,93.19c4.86,4.57,10.56,7.91,16.28,11.26,4.82,3.31,9.54,6.77,14.45,10,21.56,14.07,42.9,28.48,65.69,40.53,10.68,6.32,21.29,13,33,17.14l-.12,0,1.7.71h0c8.15,3.31,16.4,7.37,24.51,10.64,16.87,6.36,34.45,12.42,51.85,17.46h0c15,4.67,30.78,5.41,46.4,6.4h0c26.25,2.92,52.15-.16,77.94-5.18,8.93-1.47,17.83-3.12,26.64-5.22,8.47-1.36,1.1-5.39-1.89-8.36a255,255,0,0,0-25.56-21.06c-7.41-4.7-15.09-9-22.16-14.18-8.07-5.43-16.49-10.31-24.58-15.7-3-1.54-19.52-13.65-12.67-3a3.85,3.85,0,0,1-.68,0h.12a11.52,11.52,0,0,1-3.18-1h0c-2.85-.26-31-17.48-28.41-11.22-1.64.19-3.17-.7-4.67-1.23h0A175,175,0,0,1,461.1,108.6a73,73,0,0,1-13.54-5.73c-1-.16-17.44-10.1-14.21-6.33-2.56.64-31.58-17.11-26.5-9.74l-.39,0h.13C396,83.63,386.73,75.34,375.84,73.65l.12,0a2.41,2.41,0,0,1-1.1,0l.13,0a11.1,11.1,0,0,1-2.37-.76l.12.05c-1.42-.17-27.06-14-20.94-7.05a5.51,5.51,0,0,1-.71-.08h.13c-2.43.39-25.19-9.81-22.67-5.31l-.24,0,.12,0c-8.21-2.25-15.65-6.93-24-8.76-3.91,1-5.54.57-9.44-.74-6-1.85-11.72-4.5-17.76-6.15-1.21-.28-2.84-.49-3.59.73-3.22,1.67-23.39-9.22-21.73-4a3.4,3.4,0,0,1-.78,0l.13,0c-6.56-1-12.33-6-19.1-5.06l.12,0c-6.06-1.38-11.85-3.84-18-4.92-4.52-1.74-9.67-2.19-13.89-4.5a.49.49,0,0,0-.66.17h0c-1,1.74,16.41,5.66,18.54,6.2,5.79,1,11.26,4.79,17.2,3.81l-.13,0c2.62-.22,18.75,8.75,17.42,3.69a1.73,1.73,0,0,1,.6,0l-.13,0c5.36.63,16.93,7.4,21.3,5l-.08.09a1.09,1.09,0,0,1,.56-.43l-.12,0a2,2,0,0,1,.59-.12l-.12,0c7.53.42,22,10,28.54,7h-.12a3,3,0,0,1,.67,0h-.13c2.75-.54,28.31,12.73,25.15,7.47,5.91,1.56,11.65,3.7,17.48,5.55h0c1.39.4,8.42,2.8,5.27-.82h0v0c7.66,2.87,14.92,7.07,22.6,9.71a2.7,2.7,0,0,0,1.59-.07,4.28,4.28,0,0,1,1.61.32c3.08,1.14,6.16,2.52,9.12,3.94,1.65.46,24.53,13.75,20.24,7.12h0v0c6,2.35,11.64,5.46,17.46,8.22,3.34,1.55,6.78,3.61,10.53,3.71h0a.39.39,0,0,0,.15-.06c6.3,3.17,12.43,6.67,18.86,9.57,2.77,1.32,5.9,1.51,8.4,3.42,2.17,1.27,30.16,17.62,28,10.88,1.79.65,3.54,1.47,5.32,2.16a.15.15,0,0,1-.07,0c3.28.36,34.33,20.24,25.4,7.34a2.29,2.29,0,0,1,.37.12h0l.08,0s0,0-.08,0c21.74,12,42.11,26.49,63.07,39.78h0c8.12,6.36,16.08,12.88,23.58,20,4.6,3.87,5.06,4-1.16,5.32h0c-19.47,4.31-39.18,7.54-59,10.07h0c-14.48,2-29,1-43.44,0h0l-1.25-.08h0c-14.71-1-29.61-1.59-43.81-5.89h0a604.14,604.14,0,0,1-94.75-36.07c-13.41-7.79-27-15.28-40.4-23.13-23.09-14-45.12-29.64-67.88-44.09h0a76.11,76.11,0,0,1-14.11-13.9c-8.07-9-15.93-18.13-23.48-27.56a.39.39,0,0,0,.08.1c-5.1-7.16-11-13.74-15.64-21.2a59.44,59.44,0,0,1-4.43-7.45.48.48,0,0,0-.83.48M208.7,41.87a.27.27,0,0,1,.07.08l-.07-.08m25.13-5.35h0s0,0,0,0m40.76,9.32.09-.07-.09.07m48.91,13,.05,0-.05,0m5.79.94v0m189,73.68h0m76.34,45.2,0,0,0,0" fill="#161616"/><path d="M225.31,272.3c1.47,2.61,8.91,3.86,11.86,5.58,1,.36,6.65,3.39,4.7.24,4.19-1.13,26.55,6.9,26.23,2.82a5.06,5.06,0,0,1,2.19,0h-.13c1.45-.48,36,8.15,26.82,3,.43,0,.86.08,1.29.14l-.13,0c9.24,1.52,18.51,2.91,27.86,3.6,1.91-.17,6,1.26,7.28,0a4.16,4.16,0,0,1,1-.21l-.12,0c8.61-.28,17.24.11,25.85.18,2.35,0,13.58,1,6.24-2.44a2.55,2.55,0,0,1,.72-.4l-.11.05c11.5-2.64,23.57-1.17,35.24-2.89,3.16-.52,6.81-.24,9.22-2.49a.43.43,0,0,1-.12.05c9.88-2.9,20.39-3,30.38-5.46a6.89,6.89,0,0,0,3.67-2.19,28.62,28.62,0,0,1,7.9-2.38,213.44,213.44,0,0,0,31.33-6.75c5.11-1.89,14-2,16.81-7l-.08.1a6.12,6.12,0,0,1,.8-.72l-.1.08c3.4-2.43,8-3,11.64-4.76,7.69-3.55,16.45-5.71,24.43-8.13,8.46-2.43,16.59-6,25.13-8.13,6.89-2,14-3.39,20.52-6.63,4.12-2,9.45-3.25,12-7.3.41-.43-.24-1.12-.69-.68-.26.26-.27.68-.51.95-2.59,2.48-5.85,3.94-9.14,5.27h0c-8.77,4.38-18.48,6.12-27.78,9-13.52,5-27.54,8.4-41,13.37h0l-.1,0h0c-3.87,1.76-7.89,3.1-11.91,4.49h0a8.46,8.46,0,0,0-5,4.14l0,0-.18.17,0,0,0,0h0c-3.55,2.18-7.79,2.76-11.74,4-4.4,1.13-8.83,2.18-13.17,3.54h0c-8.43,2.5-17.22,2.91-25.71,5-2,.56-4.1,1.19-5.45,2.84-4.94,2.07-10.72,2.23-16,3.26-3.24.6-16.44,1.68-17.67,4.05h0a1,1,0,0,1-.42.21h0a103.07,103.07,0,0,1-15.94,1.91c-1.86.42-36.4.1-26.09,4.95h0c-10.09,0-20.18-.35-30.26-.34-1.46.18-3.42-.32-4.52.8-5.87-.34-11.74-.91-17.59-1.59-3.49-.44-7.26-1-11-1.55-1.21-.16-11.77-2.56-7.59.6h0c-5.19-.88-10.38-1.84-15.55-2.82-3.4-.66-6.82-1.31-10.24-1.8-1.3-.14-3.31-.57-3.39,1.2-2.54,1-28.11-7-26.18-2.82h0v0c-.54-.2-1.08-.43-1.6-.66l.06,0c-4.26-1.92-8.81-3.32-13-5.35l.06.05,0,0,0,0a.86.86,0,0,1-.14-.13.53.53,0,0,1,.12-.14h0c8.78-5.87,16.25-13.63,25-19.46,10.73-7.15,21.94-14.19,33.32-20.35,4.85-2.55,10.13-4.3,14.79-7.2,9.43-5.48,18.84-11.26,29-15.34q8.67-3.16,17.47-6a191.45,191.45,0,0,1,20.7-6.18h0c14.5-3.72,29.12-7.08,44.18-7,18.9-1,37.92-.91,56.7,1.56,21.65,2.49,42.61,9.2,64.35,10.92,22.07,2.45,44.68,6.39,64.63,16.45.49.33,1.05-.53.49-.83-4.43-3-9.64-4.23-14.59-6-21.75-8.43-45.16-9.29-67.94-12.85-27.69-5.81-55.6-11.37-84.05-10.82-11.85.38-23.76.45-35.57,1.6-9.69,1.26-19.1,3.87-28.59,6.09-13.57,3.29-26.76,8.07-39.86,12.86-9.47,4.05-18.32,9.44-27.21,14.6-24.5,11.66-48,25.66-68.4,43.62l.06,0c-1.72,1.57-4.51,2.26-5.55,4.41m184.26,7.38.05-.05-.05.05m14.54-2.73h0m88.19-27,0,0,0,0m81.64-29h0" fill="#161616"/><path d="M8.8,258.68c6.88,3.89,14.81,5.63,22.47,7.51,10.44,2.62,21,4.84,31.43,7.39a93.86,93.86,0,0,0,20.65,3.53c13,.27,26,.06,39-.58,10-1,19.9-2.46,29.74-4.24,16.7-4.22,33.32-8.91,49.71-14.24,14.68-4.7,29.35-9.38,43.76-15.3C249.77,241,253.87,239,258,237c1-.39,3.53-1.56,1.34-2.37-2.53-.3-4.8-1.51-7.29-1.94-3.8-.81-7.38-2.57-11.17-3.42-6.62-1.87-13.54-3-20.24-4.73A151.51,151.51,0,0,0,201.18,222c-10-.64-20.05-1.57-30.09-1.81-8.81,0-17.55,1.24-26.31,2s-17.78,1.22-26.61,2.4C102,226.47,85.7,229.21,70,233.81c-17.2,3.55-34.37,7.69-50,16.28-2.4.94-16.55,9.43-8,7.74a97.05,97.05,0,0,0,20.18-4c9.06-2.38,18.4-3.75,27.63-5.18,16.33-2.71,32.93-4.59,49.41-6.61,7.39-.9,15-2.59,22.43-3.2,9.85-1.16,19.81-3,29.71-3.34,6.43-.56,12.88-1.54,19.29-1.67h-.05c12.44-.43,24.89-1.14,37.34-.71,9.84.58,19.66.91,29.47,1.86,3.77.35,7.64-.17,11.36.53-13.37,6.67-27.14,11.73-41.22,16.47h0c-17.7,5.57-35.33,11.38-53.31,16.07a134,134,0,0,1-19.88,4.55c-12,1.89-24.07,3.56-36.24,3.43-10.38.1-20.84.71-31.18-.44a138.54,138.54,0,0,1-16.27-3.5c-10.17-2.33-20.37-4.65-30.5-7.14-5.71-1.53-11.16-2.49-16.47-5-1.57-.45-5.39-3.15-5-1.33" fill="#161616"/><path d="M399.48-18.43c2.69,16.12,5.07,32.31,9.91,48,2.88,11.09,4.38,22.5,7.61,33.52,2.81,10,4.4,20.18,6.3,30.34,2.81,12.29,6.36,24.43,10,36.5h0a452.75,452.75,0,0,0,16.64,45c7.65,15.54,18.62,29.2,28.87,43.08h0c3.72,4.6,7,9.58,10.57,14.26h0c1.2,1.54,2.38,3.09,3.55,4.63l0-.06c13.35,18.66,27.57,37,42.54,54.44,17.55,19.94,37.59,37.44,58,54.39C605,356,616.66,366.35,629.3,375.45c9.32,8.59,19.37,16.24,30.88,21.65.23.33.85.35,1-.1s-.19-.51-.4-.68c-4.77-2.57-9.61-5-14.17-8-9.66-6.83-18-15.44-27.85-22l.1.07c-19.56-17.07-39.73-33.48-58.66-51.26C542.84,299.43,528,281.32,513.63,263h0l0,0h0c-2.61-3.19-5.06-6.52-7.6-9.78h0c-5.43-7.13-10.36-14.63-16-21.63h0v0h0l-.14-.18h0c-3.39-4.4-6.47-9.11-9.94-13.44h0c-10.3-13.88-21.26-27.6-29-43.11C438.19,144.39,427.42,112.8,422,80.28c-2.36-12.37-6.31-24.37-8.48-36.77-2-11.24-5.69-22-8.06-33.2-2-9.61-3.3-19.35-5-29-.14-.55-1.12-.38-.93.25M660.13,397.08l0,0,0,0m.09,0,0,0,0,0" fill="#161616"/><path d="M3.59,135a109.57,109.57,0,0,0,14.94,10c-10.76.2,27.25,18.66,29.39,19.64-.5,2.06,5.19,4,6.7,5.14A163.72,163.72,0,0,0,79,180.23l-.11,0,.52.21C76,185,108.14,192.86,112.08,193.75c-11,2.63,29.89,8.35,31.6,8.55-10.28,4.35,24.33,4.13,26.21,4.39-2.54,4.17,26,2.32,29.15,3-9.26,5.21,19.32,2.7,21.53,3.62-3.32,4,18-.76,20-.77l-.13,0a11.85,11.85,0,0,1,3.2-.22h-.13a2.48,2.48,0,0,1,.59.17,1.22,1.22,0,0,1-.07.17l0-.12c-3,4.47,2.49,2.62,4.91,2.1,4.86-.84,9.72-3,14.71-2.47.34,3.75,14.87-3.36,17.85-3.2,1.87-.41.09,1.87,1.37,2.37,4.57-1.2,8.53-4.77,13.16-6.18-2.1,5.36,5.93-1.48,7.45-2.15,6.43-4.2,13.08-8.1,19.13-12.86l0,0,.1-.08h0c.44-.54,2.53-1.34,1.38-2-1,.17-1.69,1.23-2.53,1.75l.06-.05c-8,5.93-16.48,11.1-24.88,16.39,2.56-5.78-11.21,3.61-12.92,4.08l.11-.05a4.49,4.49,0,0,1-.61.23c1.72-6.3-14.31,2.4-17.48,1.85h0a5.16,5.16,0,0,1-1.24.11c-1-3.93-16.79,2.45-20.49,2.22a2.06,2.06,0,0,1,.12-.35l-.05.12c3.36-5.33-6.19-2-8.62-2a108.65,108.65,0,0,1-14.27,1.55c2.42-2.36-4.41-1.6-5.54-1.79-5.85-.05-11.77.13-17.58-.68l.29-.23-.1.08c7.42-4-6-2.36-8.31-2.67-6.45-.23-13.09.2-19.39-1.32,3.62-2.64-8.1-1.41-9.3-1.75-6.17-.28-12.41-.46-18.46-1.78,6.76-3.16-6.08-2.95-8-3.65a157.65,157.65,0,0,1-23.44-5.18l.11,0-.21-.08c9.18-1.46-7.89-3.79-9.67-4.77-7.53-2.11-15.38-4.33-21.87-8.78,2.9-1.53-1.7-2.24-2.95-2.91a134.33,134.33,0,0,1-27.56-12.95l.1.08-.22-.17c2.23.15-.18-1.56-1-1.76-10.38-5.44-21.6-9.93-30.56-17.64l.08.09a1.64,1.64,0,0,1-.19-.25c8.75,1.22-1.1-2.92-3.28-4.48C12.69,141,3.38,132.57,3.58,135m138.91,68.6h0m28.18,3.69h0M244,214.52h0m20.63-2.19h0m18.69-2.16v0m0,.35Zm39.36-20.45-.06,0,.06,0m-180.38,12-.13,0,.13,0" fill="#161616"/><path d="M4.17,135.88c.76.92,2.36-.7,3.36-.85A43.81,43.81,0,0,1,14.9,133c2.75-1.09,19.71-2.14,8.2-4a6.68,6.68,0,0,1,.89-.18l-.12,0c6-.68,12.11-1.17,18.19-1.32,2.78-.23,14.57.74,6.2-3.1,5.68-.75,11.5-.54,17.23-.57,1.31-.34,11,1.59,8.2-1.31a4,4,0,0,1,.5-.09h-.13c5.71-.44,11.63-.5,17.37-.43,1.71-.39,13.81,1.89,11.4-1.54a1.57,1.57,0,0,1,.59-.36l-.11.05c11.9-3.15,24.49-.18,36.3-3.81h0c17-2,34.16-1.46,51.11.56,1.22-.25,12.55,1.71,9.74-.25-17.5-1.51-34.95-3.39-52.55-2.09-3.06.2-6.15.47-9.19.94-4.66,1-9.13,2.28-14,1.89-2.88.3-25-.5-22.56,3.77a5.35,5.35,0,0,1-.55.11l.12,0c-2.16.57-32.65-2-28.77,1.9-2.18.09-35.63-2.07-22.91,3.18-1.78.11-37.26.34-25.86,3.92-5.3,1.22-16.33,2.23-20,5.66M49,124.19l.09,0-.09,0m1,2.13h0" fill="#161616"/><path d="M320.68,77.41c1.29,5.6,6.71,9,10.1,13.37,10.1,12.23,21.94,22.89,33.56,33.64,11,9.48,24.9,14.88,36.9,23,15.57,10.19,30.91,20.81,46.91,30.31,8.15,4.62,17.29,7,25.81,10.74h0c27.81,11.92,58.17,15.68,87.43,22.5,5,1.49,10.22,1.81,15.27,2.88,4.76,1.31,9.84,2.52,14.52,4.07-9.32-.28-18.56-1.75-27.86-2.1-15.2-.46-30.36.37-45.56,1-13.17-.21-26.4-1-39.55.25-12.44,1.95-24.68,5.18-36.87,8.28h0c-5.15,1.64-10.21,3.63-15.41,5.11-4.05,1.2-8.2,2.05-12.27,3.2-7.87,2.39-15.32,6.09-23.17,8.59-4.53,1.57-8.94,3.48-13.41,5.22-1.61,1.15-15.39,3.45-10.35,5.35,9.13,4.74,19.56,3.92,29.5,4.48,6.11.5,12.14,2.33,18.17,3.53,3.39.55,7.21,1.42,10.45,2.15,9.61,2.71,15.51-.3,24.75-.45a141.54,141.54,0,0,1,17.09,1.07c19.4,2.3,40,5.21,58.33-3.55,10.39-4.38,20.12-10.27,30.73-14.11,5.7-2.21,11-5.33,16.45-8.07,5.33-1.52,9.19-5.47,13.42-8.82l0,0,.06,0,0,0,0,0h0c3-2.22,5.37-5.23,8.06-7.81l-.12,0c1-.42,2.2-.36,3.24-.74a.48.48,0,0,0,.62-.29h0c5.82-5.45,1.28-23.82.2-31.28-1.7-9-2.88-18-4.13-27v0a520.3,520.3,0,0,0-9.69-66.55c-4.45-17.8-10.41-35.18-16-52.65-3.9-10.73-10.44-20.22-15-30.65-5.55-13.89-14-26.23-20.74-39.54C520.19-52.6,507.05-77.73,485.49-96c-.35-.37-.94-.79-1.31-.29a2,2,0,0,0,0,1.33C486-86.84,488.12-78.8,490-70.7c4.12,19.15,11.16,37.49,18.21,55.72,8.38,23.64,18.23,46.72,26.13,70.54,8.53,22.28,14.06,45.56,22.21,68,6,19.65,14.84,38.19,22.87,57.06h0c1.74,4.53,4.75,8.41,6.62,12.88,2.65,5.53,4.84,11.44,8.66,16.3h0c1.82,2.48,3.87,5.18,3.19,8.44a.61.61,0,0,1-.36.15c-.68-.46-1.11.69-.35.91a3,3,0,0,1-.31.15c-.61-.34-1.24-.68-1.88-1,.4-1.13-1.62-1.42-2.27-2-6.65-3.38-13.13-7.09-20-10-11.52-5.26-22.83-10.94-34.35-16.19-10-5-19.21-11.41-28.54-17.52-7.5-5.19-15.9-9-23.39-14.18-14.6-10.37-30.39-18.75-46.64-26.21-11-6.55-22.5-12-33.72-18A121.6,121.6,0,0,0,379,101.9c-7.09-3.48-13.66-7.89-21.08-10.71-8.45-3.87-17.6-5.75-26.32-8.87-2.94-.64-8.77-6.57-10.91-4.91m1.09.62s0,0,0,0h0v0c11.65,7.78,25.93,9.12,38.41,15.23,5.73,2.21,10.81,5.66,16.23,8.47,4.23,2.28,8.95,3.32,13.37,5.14,10.55,4.61,20,11.42,30.58,15.92,4.43,2.07,8.71,4.6,13,7.12h0c11.31,6.58,23.7,11.14,34.85,18,19.64,13,40.13,24.6,59.67,37.74,20.71,11.68,43.14,20.05,64,31.46-5.05-1.7-10.27-2.91-15.4-4.33-4.53-.94-9.23-1.13-13.7-2.51-29.86-7-60.88-10.77-89.24-23h0c-7.13-3.19-14.74-5.2-21.74-8.71v0c-12.59-6.55-23.63-15-35.81-22.47-8.52-5.65-16.92-11.5-25.86-16.48-7.37-4.49-15.33-8.12-22.18-13.42-4.74-3.82-9.1-8.12-13.51-12.31-7.79-7.46-15.74-14.87-22.5-23.22h0c-3.32-4.26-8.09-7.47-10.15-12.6v0s0,0,0,0M587.33,226.39c-2.68,2.31-5.47,4.41-8.2,6.78-2.43,2.18-5.63,3.05-8.53,4.4-3.44,2-7,3.72-10.59,5.48-4.17,2.19-8.85,3.26-13,5.46-10.9,5.25-21.66,11.27-33.38,14.45h0c-21.36,5.81-43.26-1.82-64.92-1.35-4.7-.06-9.35,1.34-14.05,1.66-11.05-.57-22-4.25-32.77-6.1-11.6-2.2-24.18.51-35-5.3h0c7.69-2.42,15.19-5.28,22.57-8.22,7.76-2.49,15.57-6.14,23.33-8.71,4.31-1.32,8.78-2.18,13.09-3.45,5.81-1.63,11.4-3.89,17.17-5.65h0c.59-.18,1.19-.32,1.79-.49h0c11.21-2.42,22.48-5.85,34-7.37h0l1.1-.12h0c15.54-1.4,31.18.56,46.69-.45,7.87-.2,15.47-.88,23.4-.87,3.66.12,7.43.3,11.11.25,10.91,0,21.67,2.15,32.59,2.14.64.29,1.28.57,1.9.9-1,.21-2.24.21-3,1h0a4.54,4.54,0,0,0-.38.38h0c-1.26,1.53-2.71,2.9-4.09,4.33h0l-.85.82m6.74-19.05c-4.73-7.82-7.75-16.64-12.58-24.43-4.81-11.12-9.46-22.15-14.55-33.27-9.71-25.34-17.88-51.28-25.57-77.3-2.6-8.16-5.89-16.13-8.65-24.23-3.9-11.44-8-23-12.65-34.18C516.31,4.8,513-4.52,509.68-13.81c-2.52-6.72-5.31-13.38-7.61-20.19-2.1-6.42-4.61-12.75-6.59-19.2-2.16-7-3.66-14.27-5.4-21.41-1.7-6.78-3.41-13.58-4.94-20.4h0c3.55,3.55,7.4,6.93,10.93,10.55,6,7.18,12,14.2,16.77,22.21C522.73-45.85,530-28,539.78-11.56c2.46,4.3,5.58,9.44,7.67,13.89,2.61,5.58,5,11.31,7.78,16.81,3.12,6.27,6.86,12.28,9.69,18.69a137.37,137.37,0,0,1,5.82,16.73c4.18,14,9.19,27.76,12.45,42,1.41,5.85,2.27,11.8,3.29,17.73,2,12.41,4.3,24.79,5.23,37.35.69,11.24,2.57,22.23,4.26,33.2,1.68,10,4.43,20.16,2.89,30.43v0c-.54-2.48-2.22-4.38-3.66-6.46h0l0,.06-1.15-1.53m-87.9,57.18.12,0-.12,0m88.17-96.82a.06.06,0,0,0,0,0,.06.06,0,0,1,0,0" fill="#161616"/><path d="M314.71,129.37a.59.59,0,0,0,.73-.42.6.6,0,1,0-1.15-.31.59.59,0,0,0,.42.73h0" fill="#fefefe"/><path d="M331.92,90.65h0c6.75,8.35,14.7,15.76,22.5,23.22,4.41,4.19,8.76,8.49,13.5,12.3,6.85,5.31,14.81,8.94,22.18,13.43,8.94,5,17.34,10.83,25.86,16.47,12.18,7.45,23.22,15.93,35.81,22.47a147.34,147.34,0,0,1-6.53-15.24c-4.44-10.94-8.53-22.12-11.92-33.42-4.26-2.53-8.54-5-12.95-7.12-3.76-.11-7.19-2.17-10.53-3.72-5.82-2.75-11.45-5.87-17.46-8.21,4.32,6.66-18.64-6.68-20.25-7.12-3-1.42-6-2.8-9.13-3.94a4.66,4.66,0,0,0-1.61-.32,2.7,2.7,0,0,1-1.59.08c-7.67-2.65-14.93-6.85-22.6-9.72,3.12,3.64-3.86,1.23-5.27.83h0" fill="#fefefe"/><path d="M437.08,214.85a.6.6,0,0,0,.31-1.16.6.6,0,0,0-.73.43.59.59,0,0,0,.42.73" fill="#fefefe"/><path d="M366.85,251.86h0c10.86,5.83,23.47,3.09,35.09,5.32,10.74,1.82,21.95,5.63,32.92,6.07,5.48-.54,10.9-2,16.42-1.67,8.51.11,17.14,1.31,25.53,2.17,7.45-2.44,15.6-3.18,22.57-6.82h-.05l.18-.16,0,0a8.59,8.59,0,0,1,5-4.14c-4.11-5.42-7.54-10.59-11.54-15.89l.06.11c-1.14-1.54-2.37-3.13-3.58-4.68-15.61-1-31.36-1.73-46.39-6.4-5.78,1.75-11.37,4-17.17,5.65-4.32,1.27-8.79,2.13-13.1,3.44-7.76,2.58-15.56,6.23-23.32,8.72-7.39,2.93-14.88,5.8-22.57,8.22h0" fill="#fefefe"/><path d="M444.82,225.34h0c14.21,4.3,29.1,4.92,43.81,5.89-3.29-4.4-6.34-9-9.8-13.27-11.53,1.52-22.79,5-34,7.37Z" fill="#fefefe"/><path d="M226.28,272.36a.86.86,0,0,0,.14.13l-.08-.09c4.17,2.08,8.76,3.45,13,5.38l-.11-.07c.54.26,1.1.48,1.65.69-1.94-4.24,23.62,3.78,26.18,2.8.08-1.74,2.12-1.35,3.4-1.19,3.41.49,6.84,1.13,10.23,1.79,5.18,1,10.37,1.95,15.56,2.83-4.2-3.2,6.42-.76,7.59-.62,3.7.58,7.46,1.11,11,1.55,5.85.69,11.71,1.25,17.59,1.6.88-1,2.52-.66,3.74-.78,10.34-.08,20.69.35,31,.32-11.14-5.13,29-4.53,30.92-5.3a81.5,81.5,0,0,0,11.1-1.58c.47-.05.55-.55.86-.8,2.1-1.21,4.85-1.45,7.27-2,8.57-1.69,17.81-1.79,26-4.72,1.44-1.73,3.7-2.36,5.78-2.92,8.39-2.05,17.07-2.47,25.38-4.94-8.43-.89-16.47-2-24.88-1.92-6.49-.26-13,2.54-19.46,1.38-11.3-1.7-22.55-5.23-33.91-6.6-9.32-.64-19.17.37-27.85-3.78-6.59-2.12.19-3.17,3-4.19,4.73-1.24,9.47-3.44,14.07-5.21,9.49-3.24,18.7-7.32,28.22-10.47,4.06-1.14,8.21-2,12.26-3.19,5.2-1.49,10.26-3.48,15.41-5.11-6.54-2.05-13.2-3.87-19.69-6.11-9.9-3.82-20.79-6.9-30.49-10.89-8.11-3.27-16.36-7.33-24.51-10.64a188.52,188.52,0,0,0-20.7,6.17q-8.79,2.82-17.47,6c-10,4-19.25,9.71-28.56,15.09-4.76,3-10.21,4.82-15.2,7.45-11.22,6.07-22.31,13-32.87,20.06-9,5.92-16.67,13.8-25.56,19.86" fill="#fefefe"/><path d="M40.81,141.79c.19.85,1.26,1.17,1.89,1.65,2.23,1.39,4.49,2.87,6.71,4.27,5.92,3.88,12.51,6.55,18.83,9.65,6.15,3,12.08,6.4,18.27,9.29,7.15,3.17,14.63,6,21.91,8.93,17.92,7.56,37,12.18,55.93,16.49,20.42,4.1,40.76,5.14,61.61,6.53,14,1.07,28.08.87,42.11.58a347.53,347.53,0,0,0,53.78-5c17.95-3.2,35.85-7.1,53.61-11.21,6.52-1.71,13.07-3.55,19.48-5.64,4.59-1.52,9.11-3.34,13.72-4.83,7-2.35,14.4-3.82,21.55-5.78,8.15-2.14,16.13-5,24.07-7.76a202.9,202.9,0,0,1,22.25-6.75c4-1.32,11.79-2.56,10.5-3.89a2.27,2.27,0,0,0,.31-.31c.77.33,1-.79.26-1-.23-.52-.87-1.34-1.33-.63-5.71-2.49-11.9-3.18-17.91-4.64-17.85-3.53-36-3.79-54.16-4.46-16-.51-31.9-.36-47.85-1.21-13.47-.38-27-.55-40.39-2.07-42.46-4.26-85.08-7.8-127.79-6.81-9.21.06-18.36.53-27.5,1-8.71.36-17.5.5-26.13,1.8-22.7,2.91-45.81,2.44-68.24,7.55-7.66,1.53-15.21,3.74-23.09,3.75-3.69,0-7.15.07-10.92-.25-.62,0-1.48,0-1.49.79M92.08,168h0l1,.41-1-.41h0Z" fill="#d9ffde"/><path d="M301-21.71c-.14.5.42.73.82.55a39,39,0,0,0,2.95,10.65c2.66,6.57,5.41,13.2,8.55,19.57C318,17.42,324.07,25,329.21,33c7.29,10.5,14,21.72,23.67,30.21,10.13,8.19,20,16.8,30.53,24.47,6.44,4.17,13.56,7.19,20.31,10.81,10.13,5.39,20.17,10.93,30.6,15.74a129.4,129.4,0,0,0,35.8,10.93c3.68.29,17.59,4.58,11.29-3.17-3.63-4.36-7.76-8.3-11.7-12.36-9.56-9.1-18.93-18.42-28.18-27.83-7.27-6.81-14.64-13.53-21.15-21.1-12-12.24-24.52-24-37.31-35.35C372.21,15.81,361.54,6,349.56-2.15a119.77,119.77,0,0,0-21.77-12c-7.15-3.32-14.5-6.32-22.28-7.74a.47.47,0,0,0,.49-.47h0c-.47-1.09-2.12,0-3.3,0a.48.48,0,0,0-.94.2c-.29.06-.66.07-.74.42m40.73,71.13-.07-.09.76,1-.69-.9Z" fill="#fdd9ff"/><path d="M370,191.12c3.3.91,4.68-4.25,1.37-5.11s-4.68,4.25-1.37,5.11" fill="#161616"/><path d="M404.55,232.52c3.3.92,4.68-4.25,1.37-5.1s-4.68,4.24-1.37,5.1" fill="#161616"/><path d="M441.21,185c3.29.91,4.68-4.25,1.37-5.1s-4.68,4.24-1.37,5.1" fill="#161616"/><path d="M375.86,95.27c3.3.92,4.68-4.25,1.37-5.1s-4.68,4.25-1.37,5.1" fill="#161616"/><path d="M365.68,113.48c3.3.91,4.68-4.25,1.37-5.11s-4.68,4.25-1.37,5.11" fill="#161616"/><path d="M433.23,149.56c3.3.91,4.68-4.25,1.37-5.11s-4.68,4.25-1.37,5.11" fill="#161616"/><path d="M380.87,162.48c3.3.92,4.68-4.25,1.37-5.1s-4.68,4.25-1.37,5.1" fill="#161616"/><path d="M371.45,274c3.3.91,4.68-4.25,1.37-5.11s-4.68,4.25-1.37,5.11" fill="#161616"/><path d="M443.36,89.91c3.3.92,4.68-4.25,1.37-5.1s-4.68,4.25-1.37,5.1" fill="#161616"/><path d="M395,84.55c3.3.92,4.68-4.25,1.37-5.1s-4.68,4.25-1.37,5.1" fill="#161616"/><path d="M252.7,306.84c27.71,7.51,58.31,5.08,86.17-2.17,11-2.93,21.58-7,32.59-9.72,8.68-2.58,17.73-3.87,26.2-7.14l-.15,0c20.63-7.26,39.82-18,58.76-28.78A99.62,99.62,0,0,0,469,250.5c4.5-3.54,9-7.18,13.69-10.45,7-5,13.32-10.82,20.21-16.06,1.82-2,7.8-4.21,6.45-6.65-2.14-2-5.35-2.42-8.1-3.13-7.42-1.39-15-1.13-22.51-1-15.13-.47-30.13,2.64-44.89,5.33-23.75,4.17-48.28,5.78-71.19,13.8C338.53,240.67,316.48,254,294.16,266c-9.34,4.78-17.41,11.85-25,19.1-4.27,4.54-7.52,9.86-11.56,14.56-1.77,2-6.25,5.5-4.48,6.5a.6.6,0,0,0-.39.69" fill="#161616"/><path d="M426.12,34.61c0,5.1,2.78,9.44,6,13.2l0-.06a63.33,63.33,0,0,0,18.1,17.48c1.71,1.2,3.42,2.45,5.07,3.71,2.39,2.3,3.53.88,3.17-2-2.08-13.13-12.77-23.17-23.61-29.88-1-.44-9.43-6-8.16-2.91a.6.6,0,0,0-.5.45" fill="#161616"/></svg>