<svg xmlns="http://www.w3.org/2000/svg" width="19.714" height="17.25" viewBox="0 0 19.714 17.25" fill="currentColor">
    <path data-name="triangle-exclamation-light (2)" d="M1.328 46.955a.723.723 0 0 0-.1.358.707.707 0 0 0 .708.708h15.838a.707.707 0 0 0 .708-.708.734.734 0 0 0-.1-.358l-7.735-13.269a.913.913 0 0 0-1.579 0zm-1.062-.624 7.739-13.268a2.145 2.145 0 0 1 3.7 0l7.739 13.268a1.939 1.939 0 0 1-1.675 2.919H1.941a1.939 1.939 0 0 1-1.675-2.919zm9.592-9.4a.618.618 0 0 1 .616.616v4.928a.616.616 0 0 1-1.232 0v-4.931a.618.618 0 0 1 .615-.616zm-.924 8.625a.924.924 0 1 1 .924.924.924.924 0 0 1-.925-.927z" transform="translate(0 -32)" style="fill:rgba(255,255,255,.85)"/>
</svg>
