<svg xmlns="http://www.w3.org/2000/svg" xmlns:xlink="http://www.w3.org/1999/xlink" width="33.846" height="33.844" viewBox="0 0 33.846 33.844">
  <defs>
    <clipPath id="clip-path">
      <rect id="Rectangle_2638" data-name="Rectangle 2638" width="33.846" height="33.844" fill="none"/>
    </clipPath>
  </defs>
  <g id="Group_1115" data-name="Group 1115" clip-path="url(#clip-path)">
    <path id="Path_880" data-name="Path 880" d="M2.052,168.488A2.052,2.052,0,0,1,0,166.436v-2.314a2.052,2.052,0,0,1,4.1,0v2.314a2.052,2.052,0,0,1-2.052,2.052" transform="translate(0 -148.356)" fill="#0066d9"/>
    <line id="Line_78" data-name="Line 78" y2="2.314" transform="translate(31.794 15.765)"/>
    <path id="Path_881" data-name="Path 881" d="M353.532,168.488a2.052,2.052,0,0,1-2.052-2.052v-2.314a2.052,2.052,0,0,1,4.1,0v2.314a2.052,2.052,0,0,1-2.052,2.052" transform="translate(-321.738 -148.356)" fill="#4285f4"/>
    <path id="Path_882" data-name="Path 882" d="M112.12,104.27v7.57m0,6.316v2.314" transform="translate(-102.633 -95.447)"/>
    <path id="Path_883" data-name="Path 883" d="M89.922,100.324a2.052,2.052,0,0,1-2.052-2.052V95.958a2.052,2.052,0,0,1,4.1,0v2.314a2.052,2.052,0,0,1-2.052,2.052m0-8.63a2.052,2.052,0,0,1-2.052-2.052v-7.57a2.052,2.052,0,0,1,4.1,0v7.57a2.052,2.052,0,0,1-2.052,2.052" transform="translate(-80.435 -73.249)" fill="#ea4335"/>
    <path id="Path_884" data-name="Path 884" d="M287.86,112.891v7.57m0-16.2v2.314" transform="translate(-263.502 -95.438)"/>
    <path id="Path_885" data-name="Path 885" d="M265.662,100.313a2.052,2.052,0,0,1-2.052-2.052v-7.57a2.052,2.052,0,0,1,4.1,0v7.57a2.052,2.052,0,0,1-2.052,2.052m0-13.886a2.052,2.052,0,0,1-2.052-2.052V82.061a2.052,2.052,0,0,1,4.1,0v2.314a2.052,2.052,0,0,1-2.052,2.052" transform="translate(-241.304 -73.239)" fill="#34a853"/>
    <path id="Path_886" data-name="Path 886" d="M199.99,32.949V45.292m0-21.042v2.314m0,25.112v2.314" transform="translate(-183.067 -22.198)"/>
    <path id="Path_887" data-name="Path 887" d="M177.792,33.844a2.052,2.052,0,0,1-2.052-2.052V29.478a2.052,2.052,0,0,1,4.1,0v2.314a2.052,2.052,0,0,1-2.052,2.052m0-8.7a2.052,2.052,0,0,1-2.052-2.052V10.751a2.052,2.052,0,0,1,4.1,0V23.094a2.052,2.052,0,0,1-2.052,2.052m0-18.728a2.052,2.052,0,0,1-2.052-2.052V2.052a2.052,2.052,0,0,1,4.1,0V4.366a2.052,2.052,0,0,1-2.052,2.052" transform="translate(-160.869)" fill="#fab908"/>
  </g>
</svg>
