<svg xmlns="http://www.w3.org/2000/svg" width="32.191" height="26.51" viewBox="0 0 32.191 26.51">
  <path id="volume-light" d="M49.043,34.053l-8.072,7.178a.94.94,0,0,1-.627.237h-5.03a1.417,1.417,0,0,0-1.42,1.42v4.734a1.417,1.417,0,0,0,1.42,1.42h5.03a.94.94,0,0,1,.627.237l8.072,7.178ZM48,32.444A1.782,1.782,0,0,1,49.173,32a1.76,1.76,0,0,1,1.763,1.763V56.747a1.76,1.76,0,0,1-1.763,1.763A1.782,1.782,0,0,1,48,58.066l.627-.71-.627.71-8.018-7.131H35.314A3.316,3.316,0,0,1,32,47.622V42.888a3.316,3.316,0,0,1,3.314-3.314h4.669ZM54.913,40.9a.945.945,0,0,1,1.326-.189,5.681,5.681,0,0,1,0,9.089A.947.947,0,1,1,55.1,48.285a3.787,3.787,0,0,0,0-6.059.945.945,0,0,1-.189-1.326Zm5.148-4.408a11.362,11.362,0,0,1,0,17.527.946.946,0,1,1-1.207-1.456,9.469,9.469,0,0,0,0-14.61A.946.946,0,1,1,60.061,36.5Z" transform="translate(-32 -32)" fill="rgba(255,255,255,0.7)"/>
</svg>
