<svg xmlns="http://www.w3.org/2000/svg" width="34.082" height="26.51" viewBox="0 0 34.082 26.51">
  <path id="volume-xmark-light" d="M8.971,41.231l8.072-7.178v22.4L8.971,49.279a.94.94,0,0,0-.627-.237H3.314a1.417,1.417,0,0,1-1.42-1.42V42.888a1.417,1.417,0,0,1,1.42-1.42h5.03A.94.94,0,0,0,8.971,41.231ZM17.173,32A1.782,1.782,0,0,0,16,32.444L7.983,39.574H3.314A3.316,3.316,0,0,0,0,42.888v4.734a3.316,3.316,0,0,0,3.314,3.314H7.983L16,58.066l.627-.71-.627.71a1.782,1.782,0,0,0,1.172.444,1.76,1.76,0,0,0,1.763-1.763V33.763A1.76,1.76,0,0,0,17.173,32Zm7.166,7.852A.946.946,0,1,0,23,41.19l4.065,4.065L23,49.32a.946.946,0,1,0,1.337,1.337L28.4,46.592l4.065,4.065a.946.946,0,1,0,1.337-1.337l-4.065-4.065,4.065-4.065a.946.946,0,1,0-1.337-1.337L28.4,43.918Z" transform="translate(0 -32)" fill="rgba(255,255,255,0.7)"/>
</svg>
